<svg xmlns="http://www.w3.org/2000/svg" width="25" height="30" viewBox="0 0 25 30">
    <defs>
        <clipPath id="clip-path">
            <path id="Tracé_7" d="M94.832 63.867a4.2 4.2 0 0 0-3.625 4.543 1.647 1.647 0 0 1-.729 1.469l-.019.01a1.509 1.509 0 0 1-.81.236 1.4 1.4 0 0 1-.777-.232 3.832 3.832 0 0 0-2.141-.661 3.672 3.672 0 0 0-.444.025 4.2 4.2 0 0 0-3.571 4.538 1.647 1.647 0 0 1-.749 1.482 1.525 1.525 0 0 1-.809.239 1.4 1.4 0 0 1-.774-.234 3.839 3.839 0 0 0-2.135-.651 4.128 4.128 0 0 0-.469.028 4.2 4.2 0 0 0-3.531 4.481 4.136 4.136 0 0 0 4 4.016 3.641 3.641 0 0 0 .393-.02 4.141 4.141 0 0 0 3.613-3.857 4.577 4.577 0 0 0 0-.68 1.645 1.645 0 0 1 .729-1.471l.017-.01a1.5 1.5 0 0 1 .81-.239 1.4 1.4 0 0 1 .777.234 3.817 3.817 0 0 0 4.223.071 4.317 4.317 0 0 0 1.935-3.976 1.647 1.647 0 0 1 .749-1.484 1.506 1.506 0 0 1 .81-.239 1.379 1.379 0 0 1 .772.234 3.848 3.848 0 0 0 2.144.657 4.1 4.1 0 0 0 .467-.028 4.2 4.2 0 0 0 3.529-4.479 4.134 4.134 0 0 0-4-4.015 3.587 3.587 0 0 0-.391.02" class="cls-1" transform="translate(-74.245 -63.854)"/>
        </clipPath>
        <clipPath id="clip-path-2">
            <path id="Tracé_8" d="M86.89 33.65a4.229 4.229 0 0 0-3.732 4.543 1.633 1.633 0 0 1-.771 1.482 1.587 1.587 0 0 1-.833.239 1.459 1.459 0 0 1-.8-.234 4.035 4.035 0 0 0-2.2-.657 4.3 4.3 0 0 0-.481.028 4.274 4.274 0 0 0 .481 8.492 2.825 2.825 0 0 0 .406-.02 4.2 4.2 0 0 0 3.721-3.857 4.472 4.472 0 0 0 0-.686 1.618 1.618 0 0 1 .771-1.482 1.593 1.593 0 0 1 .833-.237 1.469 1.469 0 0 1 .8.234 4.035 4.035 0 0 0 2.206.657 4.348 4.348 0 0 0 .482-.028 4.274 4.274 0 0 0-.482-8.493 3.789 3.789 0 0 0-.4.02" class="cls-1" transform="translate(-74.473 -33.63)"/>
        </clipPath>
        <clipPath id="clip-path-3">
            <path id="Tracé_9" d="M81.178 7.408L81 6.531h.013a.6.6 0 0 0 .309-.765l.653-.445a.524.524 0 0 0 .1.081l-.823 2.023a.358.358 0 0 0-.077 0m.029-3.213l.659.45a.616.616 0 0 0 0 .453l-.659.45a.558.558 0 0 0-.757-.048l-.347-.323a.593.593 0 0 0 0-.61l.347-.316a.561.561 0 0 0 .753-.058m-1.671-1.462a.593.593 0 0 0 .093-.05l.708.759a.6.6 0 0 0-.066.562.726.726 0 0 0 .04.086l-.347.316a.553.553 0 0 0-.667-.02L78.7 3.8a.6.6 0 0 0-.024-.693l.333-.391a.56.56 0 0 0 .29.081.537.537 0 0 0 .217-.051m1.794 1.278a.6.6 0 0 0-.306-.771h-.014l.173-.91a.532.532 0 0 0 .106-.01l.8 2.061a.628.628 0 0 0-.1.081zM75.5 2.392c.069-.027.281-.145.314-.315l.784.153a.587.587 0 0 0 .1.34L76 3.3a.572.572 0 0 0-.333-.1zm4.259.141a.607.607 0 0 0 .108-.369l.771-.178a.587.587 0 0 0 .117.178.549.549 0 0 0 .2.132l-.173.91a.547.547 0 0 0-.22.045.483.483 0 0 0-.093.051zM78.43 1.127l.46.664a.6.6 0 0 0-.037.764l-.333.393a.546.546 0 0 0-.583 0l-.3-.343a.6.6 0 0 0-.062-.783l.439-.68a.376.376 0 0 0 .172.042.538.538 0 0 0 .25-.05m-2.568.735a.8.8 0 0 0 0-.109l1.858-.83a.564.564 0 0 0 .106.117l-.442.666a.567.567 0 0 0-.744.32zm2.732-.862A.536.536 0 0 0 78.674.9l1.927.747a.615.615 0 0 0 0 .127l-.771.178a.565.565 0 0 0-.744-.305h-.021zM78.18 0a.579.579 0 0 0-.552.482.593.593 0 0 0 0 .241l-1.85.826a.609.609 0 0 0-.083-.109.561.561 0 0 0-.81 0 .6.6 0 0 0 0 .833l.059.039a4.28 4.28 0 0 0-.816 2.119c-.014.143-.021.289-.021.435a4.208 4.208 0 0 0 4.146 4.266 3.769 3.769 0 0 0 .425-.023 3.972 3.972 0 0 0 2.122-.891c0 .01.012.025.024.036a.481.481 0 0 0 .677-.015.515.515 0 0 0 .018-.7.336.336 0 0 0-.066-.056l.816-2.036a.573.573 0 0 0 .684-.446.589.589 0 0 0-.434-.7.573.573 0 0 0-.133-.016 1.047 1.047 0 0 0-.108.01l-.8-2.063a.6.6 0 0 0 .281-.619.582.582 0 0 0-.475-.478.57.57 0 0 0-.6.3L78.759.694a.6.6 0 0 0-.121-.482A.563.563 0 0 0 78.2 0z" class="cls-1" transform="translate(-74.109)"/>
        </clipPath>
        <style>
            .cls-1{fill:none}.cls-3{fill:#fcd15a}
        </style>
    </defs>
    <g id="logo" transform="translate(-74.109 -25.69)">
        <g id="Calque_1" transform="translate(74.109 25.69)">
            <g id="logo-icon-big-black">
                <g id="Groupe_5">
                    <g id="Groupe_2" clip-path="url(#clip-path)" transform="translate(.019 10.699)">
                        <path id="Rectangle_3" d="M.582.582l31.467-.9-.9 31.467-31.467.9z" class="cls-3" transform="rotate(-45 6.668 16.832)"/>
                    </g>
                    <g id="Groupe_3" clip-path="url(#clip-path-2)" transform="translate(.06 5.752)">
                        <path id="Rectangle_4" d="M.091.091l21.887-.309-.308 21.888-21.887.308z" class="cls-3" transform="rotate(-45 4.933 11.843)"/>
                    </g>
                    <g id="Groupe_4" clip-path="url(#clip-path-3)">
                        <path id="Rectangle_5" d="M.053.053l12.764-.18-.18 12.764-12.764.18z" class="cls-3" transform="rotate(-45 3.256 7.732)"/>
                    </g>
                </g>
            </g>
        </g>
    </g>
</svg>
