<?xml version="1.0" encoding="UTF-8" standalone="no"?>
<!DOCTYPE svg PUBLIC "-//W3C//DTD SVG 1.1//EN"
 "http://www.w3.org/Graphics/SVG/1.1/DTD/svg11.dtd">
<!-- Generated by graphviz version 5.0.0 (20220707.1540)
 -->
<!-- Title: UmlClassDiagram Pages: 1 -->
<svg width="2044pt" height="802pt"
 viewBox="0.00 0.00 2044.19 802.20" xmlns="http://www.w3.org/2000/svg" xmlns:xlink="http://www.w3.org/1999/xlink">
<g id="graph0" class="graph" transform="scale(1 1) rotate(0) translate(4 798.2)">
<title>UmlClassDiagram</title>
<polygon fill="white" stroke="transparent" points="-4,4 -4,-798.2 2040.19,-798.2 2040.19,4 -4,4"/>
<!-- 1 -->
<g id="node1" class="node">
<title>1</title>
<polygon fill="#f2f2f2" stroke="black" points="160.83,-46.5 160.83,-180.1 360.74,-180.1 360.74,-46.5 160.83,-46.5"/>
<text text-anchor="middle" x="260.79" y="-163.5" font-family="Times,serif" font-size="14.00">&lt;&lt;Struct&gt;&gt;</text>
<text text-anchor="middle" x="260.79" y="-146.7" font-family="Times,serif" font-size="14.00">Content</text>
<text text-anchor="middle" x="260.79" y="-129.9" font-family="Times,serif" font-size="14.00">contracts/modules/Collection.sol</text>
<polyline fill="none" stroke="black" points="160.83,-121.7 360.74,-121.7 "/>
<text text-anchor="start" x="168.83" y="-105.1" font-family="Times,serif" font-size="14.00">protectedData: address</text>
<text text-anchor="start" x="168.83" y="-88.3" font-family="Times,serif" font-size="14.00">inSubscription: bool</text>
<text text-anchor="start" x="168.83" y="-71.5" font-family="Times,serif" font-size="14.00">inRenting: bool</text>
<text text-anchor="start" x="168.83" y="-54.7" font-family="Times,serif" font-size="14.00">inSale: bool</text>
</g>
<!-- 0 -->
<g id="node2" class="node">
<title>0</title>
<polygon fill="#f2f2f2" stroke="black" points="0,-296.7 0,-639.9 671.57,-639.9 671.57,-296.7 0,-296.7"/>
<text text-anchor="middle" x="335.79" y="-623.3" font-family="Times,serif" font-size="14.00">Collection</text>
<text text-anchor="middle" x="335.79" y="-606.5" font-family="Times,serif" font-size="14.00">contracts/modules/Collection.sol</text>
<polyline fill="none" stroke="black" points="0,-598.3 671.57,-598.3 "/>
<text text-anchor="start" x="8" y="-581.7" font-family="Times,serif" font-size="14.00">Private:</text>
<text text-anchor="start" x="8" y="-564.9" font-family="Times,serif" font-size="14.00"> &#160;&#160;_nextCollectionId: uint256</text>
<text text-anchor="start" x="8" y="-548.1" font-family="Times,serif" font-size="14.00">Public:</text>
<text text-anchor="start" x="8" y="-531.3" font-family="Times,serif" font-size="14.00"> &#160;&#160;registry: IDatasetRegistry</text>
<text text-anchor="start" x="8" y="-514.5" font-family="Times,serif" font-size="14.00"> &#160;&#160;contents: mapping(uint256=&gt;mapping(uint160=&gt;Content))</text>
<polyline fill="none" stroke="black" points="0,-506.3 671.57,-506.3 "/>
<text text-anchor="start" x="8" y="-489.7" font-family="Times,serif" font-size="14.00">Private:</text>
<text text-anchor="start" x="8" y="-472.9" font-family="Times,serif" font-size="14.00"> &#160;&#160;&#160;_safeMint(to: address)</text>
<text text-anchor="start" x="8" y="-456.1" font-family="Times,serif" font-size="14.00">Public:</text>
<text text-anchor="start" x="8" y="-439.3" font-family="Times,serif" font-size="14.00"> &#160;&#160;&#160;&lt;&lt;event&gt;&gt; AddProtectedDataToCollection(collectionId: uint256, protectedData: address)</text>
<text text-anchor="start" x="8" y="-422.5" font-family="Times,serif" font-size="14.00"> &#160;&#160;&#160;&lt;&lt;event&gt;&gt; RemoveProtectedDataFromCollection(collectionId: uint256, protectedData: address)</text>
<text text-anchor="start" x="8" y="-405.7" font-family="Times,serif" font-size="14.00"> &#160;&#160;&#160;&lt;&lt;modifier&gt;&gt; onlyCollectionOwner(_collectionId: uint256)</text>
<text text-anchor="start" x="8" y="-388.9" font-family="Times,serif" font-size="14.00"> &#160;&#160;&#160;&lt;&lt;modifier&gt;&gt; onlyProtectedDataOwnByCollection(_collectionId: uint256, _protectedData: address)</text>
<text text-anchor="start" x="8" y="-372.1" font-family="Times,serif" font-size="14.00"> &#160;&#160;&#160;constructor(_registry: IDatasetRegistry)</text>
<text text-anchor="start" x="8" y="-355.3" font-family="Times,serif" font-size="14.00"> &#160;&#160;&#160;createCollection(): uint256</text>
<text text-anchor="start" x="8" y="-338.5" font-family="Times,serif" font-size="14.00"> &#160;&#160;&#160;deleteCollection(_collectionId: uint256) &lt;&lt;onlyCollectionOwner&gt;&gt;</text>
<text text-anchor="start" x="8" y="-321.7" font-family="Times,serif" font-size="14.00"> &#160;&#160;&#160;addProtectedDataToCollection(_collectionId: uint256, _protectedData: address) &lt;&lt;onlyCollectionOwner&gt;&gt;</text>
<text text-anchor="start" x="8" y="-304.9" font-family="Times,serif" font-size="14.00"> &#160;&#160;&#160;removeProtectedDataFromCollection(_collectionId: uint256, _protectedData: address) &lt;&lt;onlyCollectionOwner&gt;&gt;</text>
</g>
<!-- 1&#45;&gt;0 -->
<g id="edge1" class="edge">
<title>1&#45;&gt;0</title>
<path fill="none" stroke="black" d="M274.81,-180.28C281.16,-210.17 289.01,-247.14 296.94,-284.48"/>
<polygon fill="black" stroke="black" points="297.03,-284.88 302.19,-289.91 299.52,-296.61 294.36,-291.58 297.03,-284.88"/>
</g>
<!-- 3 -->
<g id="node4" class="node">
<title>3</title>
<polygon fill="#f2f2f2" stroke="black" points="148.35,-710.5 148.35,-793.7 523.23,-793.7 523.23,-710.5 148.35,-710.5"/>
<text text-anchor="middle" x="335.79" y="-777.1" font-family="Times,serif" font-size="14.00">ERC721Receiver</text>
<text text-anchor="middle" x="335.79" y="-760.3" font-family="Times,serif" font-size="14.00">contracts/modules/ERC721Receiver.sol</text>
<polyline fill="none" stroke="black" points="148.35,-752.1 523.23,-752.1 "/>
<text text-anchor="start" x="156.35" y="-735.5" font-family="Times,serif" font-size="14.00">External:</text>
<text text-anchor="start" x="156.35" y="-718.7" font-family="Times,serif" font-size="14.00"> &#160;&#160;&#160;onERC721Received(address, address, uint256, bytes): bytes4</text>
</g>
<!-- 0&#45;&gt;3 -->
<g id="edge2" class="edge">
<title>0&#45;&gt;3</title>
<path fill="none" stroke="black" d="M335.79,-640.13C335.79,-654.11 335.79,-667.68 335.79,-680.25"/>
<polygon fill="none" stroke="black" points="325.29,-680.36 335.79,-710.36 346.29,-680.36 325.29,-680.36"/>
</g>
<!-- 2 -->
<g id="node3" class="node">
<title>2</title>
<polygon fill="#f2f2f2" stroke="black" points="1231.39,-46.5 1231.39,-180.1 2036.19,-180.1 2036.19,-46.5 1231.39,-46.5"/>
<text text-anchor="middle" x="1633.79" y="-163.5" font-family="Times,serif" font-size="14.00">ConsumeProtectedData</text>
<text text-anchor="middle" x="1633.79" y="-146.7" font-family="Times,serif" font-size="14.00">contracts/modules/ConsumeProtectedData.sol</text>
<polyline fill="none" stroke="black" points="1231.39,-138.5 2036.19,-138.5 "/>
<text text-anchor="start" x="1239.39" y="-121.9" font-family="Times,serif" font-size="14.00">External:</text>
<text text-anchor="start" x="1239.39" y="-105.1" font-family="Times,serif" font-size="14.00"> &#160;&#160;&#160;consumeProtectedData(_protectedData: address, _workerpoolOrder: IexecLibOrders_v5.WorkerpoolOrder, _contentPath: string): bytes32</text>
<text text-anchor="start" x="1239.39" y="-88.3" font-family="Times,serif" font-size="14.00">Public:</text>
<text text-anchor="start" x="1239.39" y="-71.5" font-family="Times,serif" font-size="14.00"> &#160;&#160;&#160;&lt;&lt;event&gt;&gt; DealId(bytes32)</text>
<text text-anchor="start" x="1239.39" y="-54.7" font-family="Times,serif" font-size="14.00"> &#160;&#160;&#160;constructor(_proxy: IExecPocoDelegate)</text>
</g>
<!-- 4 -->
<g id="node5" class="node">
<title>4</title>
<polygon fill="#f2f2f2" stroke="black" points="1245.77,-263.1 1245.77,-673.5 2021.8,-673.5 2021.8,-263.1 1245.77,-263.1"/>
<text text-anchor="middle" x="1633.79" y="-656.9" font-family="Times,serif" font-size="14.00">ManageOrders</text>
<text text-anchor="middle" x="1633.79" y="-640.1" font-family="Times,serif" font-size="14.00">contracts/modules/ManageOrders.sol</text>
<polyline fill="none" stroke="black" points="1245.77,-631.9 2021.8,-631.9 "/>
<text text-anchor="start" x="1253.77" y="-615.3" font-family="Times,serif" font-size="14.00">Private:</text>
<text text-anchor="start" x="1253.77" y="-598.5" font-family="Times,serif" font-size="14.00"> &#160;&#160;nullSign: bytes</text>
<text text-anchor="start" x="1253.77" y="-581.7" font-family="Times,serif" font-size="14.00"> &#160;&#160;iexec_result_storage_provider: string</text>
<text text-anchor="start" x="1253.77" y="-564.9" font-family="Times,serif" font-size="14.00"> &#160;&#160;iexec_result_storage_proxy: string</text>
<text text-anchor="start" x="1253.77" y="-548.1" font-family="Times,serif" font-size="14.00"> &#160;&#160;iexec_args: string</text>
<text text-anchor="start" x="1253.77" y="-531.3" font-family="Times,serif" font-size="14.00">Public:</text>
<text text-anchor="start" x="1253.77" y="-514.5" font-family="Times,serif" font-size="14.00"> &#160;&#160;pocoDelegate: IExecPocoDelegate</text>
<text text-anchor="start" x="1253.77" y="-497.7" font-family="Times,serif" font-size="14.00"> &#160;&#160;appAddress: address</text>
<text text-anchor="start" x="1253.77" y="-480.9" font-family="Times,serif" font-size="14.00"> &#160;&#160;TAG: bytes32</text>
<text text-anchor="start" x="1253.77" y="-464.1" font-family="Times,serif" font-size="14.00"> &#160;&#160;TRUST: uint256</text>
<polyline fill="none" stroke="black" points="1245.77,-455.9 2021.8,-455.9 "/>
<text text-anchor="start" x="1253.77" y="-439.3" font-family="Times,serif" font-size="14.00">Private:</text>
<text text-anchor="start" x="1253.77" y="-422.5" font-family="Times,serif" font-size="14.00"> &#160;&#160;&#160;getSalt(_protectedData: address): bytes32</text>
<text text-anchor="start" x="1253.77" y="-405.7" font-family="Times,serif" font-size="14.00"> &#160;&#160;&#160;generateParams(_contentPath: string): string</text>
<text text-anchor="start" x="1253.77" y="-388.9" font-family="Times,serif" font-size="14.00">Internal:</text>
<text text-anchor="start" x="1253.77" y="-372.1" font-family="Times,serif" font-size="14.00"> &#160;&#160;&#160;createAppOrder(_protectedData: address, _workerpoolAddresss: address): IexecLibOrders_v5.AppOrder</text>
<text text-anchor="start" x="1253.77" y="-355.3" font-family="Times,serif" font-size="14.00"> &#160;&#160;&#160;createDatasetOrder(_protectedData: address, _workerpoolAddresss: address): IexecLibOrders_v5.DatasetOrder</text>
<text text-anchor="start" x="1253.77" y="-338.5" font-family="Times,serif" font-size="14.00"> &#160;&#160;&#160;createRequestOrder(_protectedData: address, _workerpoolAddress: address, _contentPath: string): IexecLibOrders_v5.RequestOrder</text>
<text text-anchor="start" x="1253.77" y="-321.7" font-family="Times,serif" font-size="14.00">Public:</text>
<text text-anchor="start" x="1253.77" y="-304.9" font-family="Times,serif" font-size="14.00"> &#160;&#160;&#160;constructor(_proxy: IExecPocoDelegate)</text>
<text text-anchor="start" x="1253.77" y="-288.1" font-family="Times,serif" font-size="14.00"> &#160;&#160;&#160;setAppAddress(_appAddress: address) &lt;&lt;onlyOwner&gt;&gt;</text>
<text text-anchor="start" x="1253.77" y="-271.3" font-family="Times,serif" font-size="14.00"> &#160;&#160;&#160;updateParams(_resultStorageProvider: string, _resultStorageProxy: string, _contentPath: string) &lt;&lt;onlyOwner&gt;&gt;</text>
</g>
<!-- 2&#45;&gt;4 -->
<g id="edge3" class="edge">
<title>2&#45;&gt;4</title>
<path fill="none" stroke="black" d="M1633.79,-180.28C1633.79,-196.13 1633.79,-213.96 1633.79,-232.79"/>
<polygon fill="none" stroke="black" points="1623.29,-233.04 1633.79,-263.04 1644.29,-233.04 1623.29,-233.04"/>
</g>
<!-- 6 -->
<g id="node6" class="node">
<title>6</title>
<polygon fill="#f2f2f2" stroke="black" points="689.6,-418.3 689.6,-518.3 901.97,-518.3 901.97,-418.3 689.6,-418.3"/>
<text text-anchor="middle" x="795.79" y="-501.7" font-family="Times,serif" font-size="14.00">&lt;&lt;Struct&gt;&gt;</text>
<text text-anchor="middle" x="795.79" y="-484.9" font-family="Times,serif" font-size="14.00">SubscriptionParams</text>
<text text-anchor="middle" x="795.79" y="-468.1" font-family="Times,serif" font-size="14.00">contracts/modules/Subscription.sol</text>
<polyline fill="none" stroke="black" points="689.6,-459.9 901.97,-459.9 "/>
<text text-anchor="start" x="697.6" y="-443.3" font-family="Times,serif" font-size="14.00">price: uint256</text>
<text text-anchor="start" x="697.6" y="-426.5" font-family="Times,serif" font-size="14.00">duration: uint256</text>
</g>
<!-- 5 -->
<g id="node8" class="node">
<title>5</title>
<polygon fill="#f2f2f2" stroke="black" points="378.33,-0.5 378.33,-226.1 1213.24,-226.1 1213.24,-0.5 378.33,-0.5"/>
<text text-anchor="middle" x="795.79" y="-209.5" font-family="Times,serif" font-size="14.00">Subscription</text>
<text text-anchor="middle" x="795.79" y="-192.7" font-family="Times,serif" font-size="14.00">contracts/modules/Subscription.sol</text>
<polyline fill="none" stroke="black" points="378.33,-184.5 1213.24,-184.5 "/>
<text text-anchor="start" x="386.33" y="-167.9" font-family="Times,serif" font-size="14.00">Public:</text>
<text text-anchor="start" x="386.33" y="-151.1" font-family="Times,serif" font-size="14.00"> &#160;&#160;subscriptionInfos: mapping(uint256=&gt;SubscriptionInfo)</text>
<text text-anchor="start" x="386.33" y="-134.3" font-family="Times,serif" font-size="14.00"> &#160;&#160;subscriptionParams: mapping(uint256=&gt;SubscriptionParams)</text>
<polyline fill="none" stroke="black" points="378.33,-126.1 1213.24,-126.1 "/>
<text text-anchor="start" x="386.33" y="-109.5" font-family="Times,serif" font-size="14.00">Public:</text>
<text text-anchor="start" x="386.33" y="-92.7" font-family="Times,serif" font-size="14.00"> &#160;&#160;&#160;&lt;&lt;payable&gt;&gt; subscribeTo(_collectionId: uint256): uint256</text>
<text text-anchor="start" x="386.33" y="-75.9" font-family="Times,serif" font-size="14.00"> &#160;&#160;&#160;&lt;&lt;event&gt;&gt; NewSubscriptionParams(subscriptionParams: SubscriptionParams)</text>
<text text-anchor="start" x="386.33" y="-59.1" font-family="Times,serif" font-size="14.00"> &#160;&#160;&#160;&lt;&lt;event&gt;&gt; NewSubscription(subscriber: address, endDate: uint256)</text>
<text text-anchor="start" x="386.33" y="-42.3" font-family="Times,serif" font-size="14.00"> &#160;&#160;&#160;constructor(_registry: IDatasetRegistry)</text>
<text text-anchor="start" x="386.33" y="-25.5" font-family="Times,serif" font-size="14.00"> &#160;&#160;&#160;setCollectionToSubscription(_collectionId: uint256, _protectedData: address) &lt;&lt;onlyCollectionOwner, onlyProtectedDataOwnByCollection&gt;&gt;</text>
<text text-anchor="start" x="386.33" y="-8.7" font-family="Times,serif" font-size="14.00"> &#160;&#160;&#160;setSubscriptionParams(_collectionId: uint256, _subscriptionParams: SubscriptionParams) &lt;&lt;onlyCollectionOwner&gt;&gt;</text>
</g>
<!-- 6&#45;&gt;5 -->
<g id="edge4" class="edge">
<title>6&#45;&gt;5</title>
<path fill="none" stroke="black" d="M800.64,-417.89C802.38,-371.6 802.92,-300.47 802.27,-238.7"/>
<polygon fill="black" stroke="black" points="802.27,-238.48 798.19,-232.52 802.12,-226.48 806.19,-232.43 802.27,-238.48"/>
</g>
<!-- 7 -->
<g id="node7" class="node">
<title>7</title>
<polygon fill="#f2f2f2" stroke="black" points="919.6,-418.3 919.6,-518.3 1131.97,-518.3 1131.97,-418.3 919.6,-418.3"/>
<text text-anchor="middle" x="1025.79" y="-501.7" font-family="Times,serif" font-size="14.00">&lt;&lt;Struct&gt;&gt;</text>
<text text-anchor="middle" x="1025.79" y="-484.9" font-family="Times,serif" font-size="14.00">SubscriptionInfo</text>
<text text-anchor="middle" x="1025.79" y="-468.1" font-family="Times,serif" font-size="14.00">contracts/modules/Subscription.sol</text>
<polyline fill="none" stroke="black" points="919.6,-459.9 1131.97,-459.9 "/>
<text text-anchor="start" x="927.6" y="-443.3" font-family="Times,serif" font-size="14.00">subscriber: address</text>
<text text-anchor="start" x="927.6" y="-426.5" font-family="Times,serif" font-size="14.00">endDate: uint256</text>
</g>
<!-- 7&#45;&gt;5 -->
<g id="edge5" class="edge">
<title>7&#45;&gt;5</title>
<path fill="none" stroke="black" d="M1007.94,-418.13C987.71,-375.89 953.81,-313.89 919.79,-262.6 914.03,-253.92 907.92,-245.1 901.61,-236.3"/>
<polygon fill="black" stroke="black" points="901.46,-236.1 894.7,-233.59 894.41,-226.39 901.17,-228.89 901.46,-236.1"/>
</g>
<!-- 5&#45;&gt;0 -->
<g id="edge6" class="edge">
<title>5&#45;&gt;0</title>
<path fill="none" stroke="black" d="M649.92,-226.23C628.25,-242.87 605.41,-260.39 582.35,-278.09"/>
<polygon fill="none" stroke="black" points="575.69,-269.97 558.28,-296.56 588.47,-286.63 575.69,-269.97"/>
</g>
<!-- 5&#45;&gt;6 -->
<g id="edge8" class="edge">
<title>5&#45;&gt;6</title>
<path fill="none" stroke="black" d="M789.45,-226.48C788.64,-286.6 789.02,-358.26 790.58,-407.69"/>
<polygon fill="black" stroke="black" points="787.09,-408.02 790.93,-417.89 794.08,-407.78 787.09,-408.02"/>
</g>
<!-- 5&#45;&gt;7 -->
<g id="edge7" class="edge">
<title>5&#45;&gt;7</title>
<path fill="none" stroke="black" d="M876.5,-226.39C885.26,-238.43 893.86,-250.65 901.79,-262.6 933.49,-310.39 965.07,-367.47 988.59,-409.2"/>
<polygon fill="black" stroke="black" points="985.67,-411.14 993.64,-418.13 991.77,-407.7 985.67,-411.14"/>
</g>
</g>
</svg>
