<?xml version="1.0" encoding="UTF-8" standalone="no"?>
<!DOCTYPE svg PUBLIC "-//W3C//DTD SVG 1.1//EN"
 "http://www.w3.org/Graphics/SVG/1.1/DTD/svg11.dtd">
<!-- Generated by graphviz version 5.0.0 (20220707.1540)
 -->
<!-- Title: StorageDiagram Pages: 1 -->
<svg width="1576pt" height="682pt"
 viewBox="0.00 0.00 1575.83 682.40" xmlns="http://www.w3.org/2000/svg" xmlns:xlink="http://www.w3.org/1999/xlink">
<g id="graph0" class="graph" transform="scale(1 1) rotate(0) translate(4 678.4)">
<title>StorageDiagram</title>
<polygon fill="white" stroke="transparent" points="-4,4 -4,-678.4 1571.83,-678.4 1571.83,4 -4,4"/>
<!-- 5 -->
<g id="node1" class="node">
<title>5</title>
<polygon fill="#f2f2f2" stroke="black" points="0,-128.3 0,-673.9 779.72,-673.9 779.72,-128.3 0,-128.3"/>
<text text-anchor="middle" x="389.86" y="-657.3" font-family="Courier New" font-size="14.00">ProtectedDataSharing &lt;&lt;Contract&gt;&gt;</text>
<polyline fill="none" stroke="black" points="0,-649.1 779.72,-649.1 "/>
<text text-anchor="middle" x="24.8" y="-632.5" font-family="Courier New" font-size="14.00">slot</text>
<polyline fill="none" stroke="black" points="0,-624.3 49.61,-624.3 "/>
<text text-anchor="middle" x="24.8" y="-607.7" font-family="Courier New" font-size="14.00">0</text>
<polyline fill="none" stroke="black" points="0,-599.5 49.61,-599.5 "/>
<text text-anchor="middle" x="24.8" y="-582.9" font-family="Courier New" font-size="14.00">1</text>
<polyline fill="none" stroke="black" points="0,-574.7 49.61,-574.7 "/>
<text text-anchor="middle" x="24.8" y="-558.1" font-family="Courier New" font-size="14.00">2</text>
<polyline fill="none" stroke="black" points="0,-549.9 49.61,-549.9 "/>
<text text-anchor="middle" x="24.8" y="-533.3" font-family="Courier New" font-size="14.00">3</text>
<polyline fill="none" stroke="black" points="0,-525.1 49.61,-525.1 "/>
<text text-anchor="middle" x="24.8" y="-508.5" font-family="Courier New" font-size="14.00">4</text>
<polyline fill="none" stroke="black" points="0,-500.3 49.61,-500.3 "/>
<text text-anchor="middle" x="24.8" y="-483.7" font-family="Courier New" font-size="14.00">5</text>
<polyline fill="none" stroke="black" points="0,-475.5 49.61,-475.5 "/>
<text text-anchor="middle" x="24.8" y="-458.9" font-family="Courier New" font-size="14.00">6</text>
<polyline fill="none" stroke="black" points="0,-450.7 49.61,-450.7 "/>
<text text-anchor="middle" x="24.8" y="-434.1" font-family="Courier New" font-size="14.00">7</text>
<polyline fill="none" stroke="black" points="0,-425.9 49.61,-425.9 "/>
<text text-anchor="middle" x="24.8" y="-409.3" font-family="Courier New" font-size="14.00">8</text>
<polyline fill="none" stroke="black" points="0,-401.1 49.61,-401.1 "/>
<text text-anchor="middle" x="24.8" y="-384.5" font-family="Courier New" font-size="14.00">9</text>
<polyline fill="none" stroke="black" points="0,-376.3 49.61,-376.3 "/>
<text text-anchor="middle" x="24.8" y="-359.7" font-family="Courier New" font-size="14.00">10</text>
<polyline fill="none" stroke="black" points="0,-351.5 49.61,-351.5 "/>
<text text-anchor="middle" x="24.8" y="-334.9" font-family="Courier New" font-size="14.00">11</text>
<polyline fill="none" stroke="black" points="0,-326.7 49.61,-326.7 "/>
<text text-anchor="middle" x="24.8" y="-310.1" font-family="Courier New" font-size="14.00">12</text>
<polyline fill="none" stroke="black" points="0,-301.9 49.61,-301.9 "/>
<text text-anchor="middle" x="24.8" y="-285.3" font-family="Courier New" font-size="14.00">13</text>
<polyline fill="none" stroke="black" points="0,-277.1 49.61,-277.1 "/>
<text text-anchor="middle" x="24.8" y="-260.5" font-family="Courier New" font-size="14.00">14</text>
<polyline fill="none" stroke="black" points="0,-252.3 49.61,-252.3 "/>
<text text-anchor="middle" x="24.8" y="-235.7" font-family="Courier New" font-size="14.00">15</text>
<polyline fill="none" stroke="black" points="0,-227.5 49.61,-227.5 "/>
<text text-anchor="middle" x="24.8" y="-210.9" font-family="Courier New" font-size="14.00">16</text>
<polyline fill="none" stroke="black" points="0,-202.7 49.61,-202.7 "/>
<text text-anchor="middle" x="24.8" y="-186.1" font-family="Courier New" font-size="14.00">17</text>
<polyline fill="none" stroke="black" points="0,-177.9 49.61,-177.9 "/>
<text text-anchor="middle" x="24.8" y="-161.3" font-family="Courier New" font-size="14.00">18</text>
<polyline fill="none" stroke="black" points="0,-153.1 49.61,-153.1 "/>
<text text-anchor="middle" x="24.8" y="-136.5" font-family="Courier New" font-size="14.00">19</text>
<polyline fill="none" stroke="black" points="49.61,-128.3 49.61,-649.1 "/>
<text text-anchor="middle" x="414.66" y="-632.5" font-family="Courier New" font-size="14.00">type: &lt;inherited contract&gt;.variable (bytes)</text>
<polyline fill="none" stroke="black" points="49.61,-624.3 779.72,-624.3 "/>
<text text-anchor="middle" x="414.62" y="-607.7" font-family="Courier New" font-size="14.00">string: ERC721._name (32)</text>
<polyline fill="none" stroke="black" points="49.61,-599.5 779.72,-599.5 "/>
<text text-anchor="middle" x="414.52" y="-582.9" font-family="Courier New" font-size="14.00">string: ERC721._symbol (32)</text>
<polyline fill="none" stroke="black" points="49.61,-574.7 779.72,-574.7 "/>
<text text-anchor="middle" x="414.34" y="-558.1" font-family="Courier New" font-size="14.00">mapping(uint256=&gt;address): ERC721._owners (32)</text>
<polyline fill="none" stroke="black" points="49.61,-549.9 779.72,-549.9 "/>
<text text-anchor="middle" x="414.24" y="-533.3" font-family="Courier New" font-size="14.00">mapping(address=&gt;uint256): ERC721._balances (32)</text>
<polyline fill="none" stroke="black" points="49.61,-525.1 779.72,-525.1 "/>
<text text-anchor="middle" x="414.44" y="-508.5" font-family="Courier New" font-size="14.00">mapping(uint256=&gt;address): ERC721._tokenApprovals (32)</text>
<polyline fill="none" stroke="black" points="49.61,-500.3 779.72,-500.3 "/>
<text text-anchor="middle" x="414.55" y="-483.7" font-family="Courier New" font-size="14.00">mapping(address=&gt;mapping(address=&gt;bool)): ERC721._operatorApprovals (32)</text>
<polyline fill="none" stroke="black" points="49.61,-475.5 779.72,-475.5 "/>
<text text-anchor="middle" x="414.24" y="-458.9" font-family="Courier New" font-size="14.00">string: Store.iexec_result_storage_provider (32)</text>
<polyline fill="none" stroke="black" points="49.61,-450.7 779.72,-450.7 "/>
<text text-anchor="middle" x="414.64" y="-434.1" font-family="Courier New" font-size="14.00">string: Store.iexec_result_storage_proxy (32)</text>
<polyline fill="none" stroke="black" points="49.61,-425.9 779.72,-425.9 "/>
<text text-anchor="middle" x="414.66" y="-409.3" font-family="Courier New" font-size="14.00">mapping(uint256=&gt;mapping(address=&gt;address)): Store.appForProtectedData (32)</text>
<polyline fill="none" stroke="black" points="49.61,-401.1 779.72,-401.1 "/>
<text text-anchor="middle" x="414.53" y="-384.5" font-family="Courier New" font-size="14.00">uint256: Store._nextCollectionId (32)</text>
<polyline fill="none" stroke="black" points="49.61,-376.3 779.72,-376.3 "/>
<text text-anchor="middle" x="414.65" y="-359.7" font-family="Courier New" font-size="14.00">mapping(uint256=&gt;mapping(uint160=&gt;address)): Store.protectedDatas (32)</text>
<polyline fill="none" stroke="black" points="49.61,-351.5 779.72,-351.5 "/>
<text text-anchor="middle" x="414.66" y="-334.9" font-family="Courier New" font-size="14.00">mapping(uint256=&gt;mapping(address=&gt;bool)): Store.protectedDataInSubscription (32)</text>
<polyline fill="none" stroke="black" points="49.61,-326.7 779.72,-326.7 "/>
<text text-anchor="middle" x="414.35" y="-310.1" font-family="Courier New" font-size="14.00">mapping(uint256=&gt;mapping(address=&gt;uint48)): Store.subscribers (32)</text>
<polyline fill="none" stroke="black" points="49.61,-301.9 779.72,-301.9 "/>
<text text-anchor="middle" x="414.55" y="-285.3" font-family="Courier New" font-size="14.00">mapping(uint256=&gt;SubscriptionParams): Store.subscriptionParams (32)</text>
<polyline fill="none" stroke="black" points="49.61,-277.1 779.72,-277.1 "/>
<text text-anchor="middle" x="414.25" y="-260.5" font-family="Courier New" font-size="14.00">mapping(uint256=&gt;uint48): Store.lastSubscriptionExpiration (32)</text>
<polyline fill="none" stroke="black" points="49.61,-252.3 779.72,-252.3 "/>
<text text-anchor="middle" x="414.66" y="-235.7" font-family="Courier New" font-size="14.00">mapping(uint256=&gt;mapping(address=&gt;RentingParams)): Store.protectedDataForRenting (32)</text>
<polyline fill="none" stroke="black" points="49.61,-227.5 779.72,-227.5 "/>
<text text-anchor="middle" x="414.55" y="-210.9" font-family="Courier New" font-size="14.00">mapping(uint256=&gt;mapping(address=&gt;uint48)): Store.renters (32)</text>
<polyline fill="none" stroke="black" points="49.61,-202.7 779.72,-202.7 "/>
<text text-anchor="middle" x="414.54" y="-186.1" font-family="Courier New" font-size="14.00">mapping(address=&gt;uint48): Store.lastRentalExpiration (32)</text>
<polyline fill="none" stroke="black" points="49.61,-177.9 779.72,-177.9 "/>
<text text-anchor="middle" x="414.56" y="-161.3" font-family="Courier New" font-size="14.00">mapping(uint256=&gt;mapping(address=&gt;SellingParams)): Store.protectedDataForSale (32)</text>
<polyline fill="none" stroke="black" points="49.61,-153.1 779.72,-153.1 "/>
<text text-anchor="middle" x="414.24" y="-136.5" font-family="Courier New" font-size="14.00">mapping(bytes32=&gt;RoleData): AccessControl._roles (32)</text>
</g>
<!-- 1 -->
<g id="node2" class="node">
<title>1</title>
<polygon fill="#f2f2f2" stroke="black" points="903.53,-304.9 903.53,-379.3 1480.02,-379.3 1480.02,-304.9 903.53,-304.9"/>
<text text-anchor="middle" x="1191.78" y="-362.7" font-family="Courier New" font-size="14.00">SubscriptionParams &lt;&lt;Struct&gt;&gt;</text>
<polyline fill="none" stroke="black" points="903.53,-354.5 1480.02,-354.5 "/>
<text text-anchor="middle" x="936.74" y="-337.9" font-family="Courier New" font-size="14.00">offset</text>
<polyline fill="none" stroke="black" points="903.53,-329.7 969.94,-329.7 "/>
<text text-anchor="middle" x="936.74" y="-313.1" font-family="Courier New" font-size="14.00">0</text>
<polyline fill="none" stroke="black" points="969.94,-304.9 969.94,-354.5 "/>
<text text-anchor="middle" x="1224.98" y="-337.9" font-family="Courier New" font-size="14.00">type: variable (bytes)</text>
<polyline fill="none" stroke="black" points="969.94,-329.7 1480.02,-329.7 "/>
<text text-anchor="middle" x="1045.15" y="-313.1" font-family="Courier New" font-size="14.00">unallocated (12)</text>
<polyline fill="none" stroke="black" points="1120.36,-304.9 1120.36,-329.7 "/>
<text text-anchor="middle" x="1212.38" y="-313.1" font-family="Courier New" font-size="14.00">uint48: duration (6)</text>
<polyline fill="none" stroke="black" points="1304.39,-304.9 1304.39,-329.7 "/>
<text text-anchor="middle" x="1392.21" y="-313.1" font-family="Courier New" font-size="14.00">uint112: price (14)</text>
</g>
<!-- 5&#45;&gt;1 -->
<g id="edge1" class="edge">
<title>5:16&#45;&gt;1</title>
<path fill="none" stroke="black" d="M779.72,-289.1C796.02,-289.1 799.62,-293.55 815.72,-296.1 840.86,-300.08 866.99,-303.91 893.24,-307.54"/>
<polygon fill="black" stroke="black" points="892.92,-311.03 903.3,-308.93 893.87,-304.1 892.92,-311.03"/>
</g>
<!-- 2 -->
<g id="node3" class="node">
<title>2</title>
<polygon fill="#f2f2f2" stroke="black" points="815.72,-211.9 815.72,-286.3 1567.83,-286.3 1567.83,-211.9 815.72,-211.9"/>
<text text-anchor="middle" x="1191.78" y="-269.7" font-family="Courier New" font-size="14.00">RentingParams &lt;&lt;Struct&gt;&gt;</text>
<polyline fill="none" stroke="black" points="815.72,-261.5 1567.83,-261.5 "/>
<text text-anchor="middle" x="848.93" y="-244.9" font-family="Courier New" font-size="14.00">offset</text>
<polyline fill="none" stroke="black" points="815.72,-236.7 882.13,-236.7 "/>
<text text-anchor="middle" x="848.93" y="-220.1" font-family="Courier New" font-size="14.00">0</text>
<polyline fill="none" stroke="black" points="882.13,-211.9 882.13,-261.5 "/>
<text text-anchor="middle" x="1224.98" y="-244.9" font-family="Courier New" font-size="14.00">type: variable (bytes)</text>
<polyline fill="none" stroke="black" points="882.13,-236.7 1567.83,-236.7 "/>
<text text-anchor="middle" x="957.34" y="-220.1" font-family="Courier New" font-size="14.00">unallocated (11)</text>
<polyline fill="none" stroke="black" points="1032.55,-211.9 1032.55,-236.7 "/>
<text text-anchor="middle" x="1124.57" y="-220.1" font-family="Courier New" font-size="14.00">uint48: duration (6)</text>
<polyline fill="none" stroke="black" points="1216.58,-211.9 1216.58,-236.7 "/>
<text text-anchor="middle" x="1304.39" y="-220.1" font-family="Courier New" font-size="14.00">uint112: price (14)</text>
<polyline fill="none" stroke="black" points="1392.21,-211.9 1392.21,-236.7 "/>
<text text-anchor="middle" x="1480.02" y="-220.1" font-family="Courier New" font-size="14.00">bool: isForRent (1)</text>
</g>
<!-- 5&#45;&gt;2 -->
<g id="edge2" class="edge">
<title>5:21&#45;&gt;2</title>
<path fill="none" stroke="black" d="M779.72,-240.1C788.19,-240.1 796.75,-240.12 805.38,-240.16"/>
<polygon fill="black" stroke="black" points="805.53,-243.66 815.55,-240.21 805.57,-236.66 805.53,-243.66"/>
</g>
<!-- 3 -->
<g id="node4" class="node">
<title>3</title>
<polygon fill="#f2f2f2" stroke="black" points="907.74,-118.9 907.74,-193.3 1475.82,-193.3 1475.82,-118.9 907.74,-118.9"/>
<text text-anchor="middle" x="1191.78" y="-176.7" font-family="Courier New" font-size="14.00">SellingParams &lt;&lt;Struct&gt;&gt;</text>
<polyline fill="none" stroke="black" points="907.74,-168.5 1475.82,-168.5 "/>
<text text-anchor="middle" x="940.94" y="-151.9" font-family="Courier New" font-size="14.00">offset</text>
<polyline fill="none" stroke="black" points="907.74,-143.7 974.14,-143.7 "/>
<text text-anchor="middle" x="940.94" y="-127.1" font-family="Courier New" font-size="14.00">0</text>
<polyline fill="none" stroke="black" points="974.14,-118.9 974.14,-168.5 "/>
<text text-anchor="middle" x="1224.98" y="-151.9" font-family="Courier New" font-size="14.00">type: variable (bytes)</text>
<polyline fill="none" stroke="black" points="974.14,-143.7 1475.82,-143.7 "/>
<text text-anchor="middle" x="1049.35" y="-127.1" font-family="Courier New" font-size="14.00">unallocated (17)</text>
<polyline fill="none" stroke="black" points="1124.57,-118.9 1124.57,-143.7 "/>
<text text-anchor="middle" x="1212.38" y="-127.1" font-family="Courier New" font-size="14.00">uint112: price (14)</text>
<polyline fill="none" stroke="black" points="1300.19,-118.9 1300.19,-143.7 "/>
<text text-anchor="middle" x="1388" y="-127.1" font-family="Courier New" font-size="14.00">bool: isForSale (1)</text>
</g>
<!-- 5&#45;&gt;3 -->
<g id="edge3" class="edge">
<title>5:26&#45;&gt;3</title>
<path fill="none" stroke="black" d="M779.72,-165.1C817.81,-165.1 857.87,-164.71 897.43,-164.09"/>
<polygon fill="black" stroke="black" points="897.54,-167.59 907.48,-163.93 897.43,-160.59 897.54,-167.59"/>
</g>
<!-- 4 -->
<g id="node5" class="node">
<title>4</title>
<polygon fill="#f2f2f2" stroke="black" points="999.35,-0.5 999.35,-99.7 1384.21,-99.7 1384.21,-0.5 999.35,-0.5"/>
<text text-anchor="middle" x="1191.78" y="-83.1" font-family="Courier New" font-size="14.00">RoleData &lt;&lt;Struct&gt;&gt;</text>
<polyline fill="none" stroke="black" points="999.35,-74.9 1384.21,-74.9 "/>
<text text-anchor="middle" x="1032.55" y="-58.3" font-family="Courier New" font-size="14.00">offset</text>
<polyline fill="none" stroke="black" points="999.35,-50.1 1065.76,-50.1 "/>
<text text-anchor="middle" x="1032.55" y="-33.5" font-family="Courier New" font-size="14.00">0</text>
<polyline fill="none" stroke="black" points="999.35,-25.3 1065.76,-25.3 "/>
<text text-anchor="middle" x="1032.55" y="-8.7" font-family="Courier New" font-size="14.00">1</text>
<polyline fill="none" stroke="black" points="1065.76,-0.5 1065.76,-74.9 "/>
<text text-anchor="middle" x="1224.98" y="-58.3" font-family="Courier New" font-size="14.00">type: variable (bytes)</text>
<polyline fill="none" stroke="black" points="1065.76,-50.1 1384.21,-50.1 "/>
<text text-anchor="middle" x="1224.98" y="-33.5" font-family="Courier New" font-size="14.00">mapping(address=&gt;bool): hasRole (32)</text>
<polyline fill="none" stroke="black" points="1065.76,-25.3 1384.21,-25.3 "/>
<text text-anchor="middle" x="1224.87" y="-8.7" font-family="Courier New" font-size="14.00">bytes32: adminRole (32)</text>
</g>
<!-- 5&#45;&gt;4 -->
<g id="edge4" class="edge">
<title>5:29&#45;&gt;4</title>
<path fill="none" stroke="black" d="M779.72,-141.1C801.13,-141.1 796.37,-118.24 815.72,-109.1 869.1,-83.88 931.04,-69.09 989.02,-60.51"/>
<polygon fill="black" stroke="black" points="989.63,-63.96 999.04,-59.08 988.64,-57.03 989.63,-63.96"/>
</g>
</g>
</svg>
