<?xml version="1.0" encoding="UTF-8" standalone="no"?>
<!DOCTYPE svg PUBLIC "-//W3C//DTD SVG 1.1//EN"
 "http://www.w3.org/Graphics/SVG/1.1/DTD/svg11.dtd">
<!-- Generated by graphviz version 5.0.0 (20220707.1540)
 -->
<!-- Title: StorageDiagram Pages: 1 -->
<svg width="679pt" height="406pt"
 viewBox="0.00 0.00 678.50 405.80" xmlns="http://www.w3.org/2000/svg" xmlns:xlink="http://www.w3.org/1999/xlink">
<g id="graph0" class="graph" transform="scale(1 1) rotate(0) translate(4 401.8)">
<title>StorageDiagram</title>
<polygon fill="white" stroke="transparent" points="-4,4 -4,-401.8 674.5,-401.8 674.5,4 -4,4"/>
<!-- 1 -->
<g id="node1" class="node">
<title>1</title>
<polygon fill="#f2f2f2" stroke="black" points="0,-0.5 0,-397.3 670.5,-397.3 670.5,-0.5 0,-0.5"/>
<text text-anchor="middle" x="335.25" y="-380.7" font-family="Courier New" font-size="14.00">ProtectedDataSharing &lt;&lt;Contract&gt;&gt;</text>
<polyline fill="none" stroke="black" points="0,-372.5 670.5,-372.5 "/>
<text text-anchor="middle" x="24.8" y="-355.9" font-family="Courier New" font-size="14.00">slot</text>
<polyline fill="none" stroke="black" points="0,-347.7 49.61,-347.7 "/>
<text text-anchor="middle" x="24.8" y="-331.1" font-family="Courier New" font-size="14.00">0</text>
<polyline fill="none" stroke="black" points="0,-322.9 49.61,-322.9 "/>
<text text-anchor="middle" x="24.8" y="-306.3" font-family="Courier New" font-size="14.00">1</text>
<polyline fill="none" stroke="black" points="0,-298.1 49.61,-298.1 "/>
<text text-anchor="middle" x="24.8" y="-281.5" font-family="Courier New" font-size="14.00">2</text>
<polyline fill="none" stroke="black" points="0,-273.3 49.61,-273.3 "/>
<text text-anchor="middle" x="24.8" y="-256.7" font-family="Courier New" font-size="14.00">3</text>
<polyline fill="none" stroke="black" points="0,-248.5 49.61,-248.5 "/>
<text text-anchor="middle" x="24.8" y="-231.9" font-family="Courier New" font-size="14.00">4</text>
<polyline fill="none" stroke="black" points="0,-223.7 49.61,-223.7 "/>
<text text-anchor="middle" x="24.8" y="-207.1" font-family="Courier New" font-size="14.00">5</text>
<polyline fill="none" stroke="black" points="0,-198.9 49.61,-198.9 "/>
<text text-anchor="middle" x="24.8" y="-182.3" font-family="Courier New" font-size="14.00">6</text>
<polyline fill="none" stroke="black" points="0,-174.1 49.61,-174.1 "/>
<text text-anchor="middle" x="24.8" y="-157.5" font-family="Courier New" font-size="14.00">7</text>
<polyline fill="none" stroke="black" points="0,-149.3 49.61,-149.3 "/>
<text text-anchor="middle" x="24.8" y="-132.7" font-family="Courier New" font-size="14.00">8</text>
<polyline fill="none" stroke="black" points="0,-124.5 49.61,-124.5 "/>
<text text-anchor="middle" x="24.8" y="-107.9" font-family="Courier New" font-size="14.00">9</text>
<polyline fill="none" stroke="black" points="0,-99.7 49.61,-99.7 "/>
<text text-anchor="middle" x="24.8" y="-83.1" font-family="Courier New" font-size="14.00">10</text>
<polyline fill="none" stroke="black" points="0,-74.9 49.61,-74.9 "/>
<text text-anchor="middle" x="24.8" y="-58.3" font-family="Courier New" font-size="14.00">11</text>
<polyline fill="none" stroke="black" points="0,-50.1 49.61,-50.1 "/>
<text text-anchor="middle" x="24.8" y="-33.5" font-family="Courier New" font-size="14.00">12</text>
<polyline fill="none" stroke="black" points="0,-25.3 49.61,-25.3 "/>
<text text-anchor="middle" x="24.8" y="-8.7" font-family="Courier New" font-size="14.00">13</text>
<polyline fill="none" stroke="black" points="49.61,-0.5 49.61,-372.5 "/>
<text text-anchor="middle" x="360.05" y="-355.9" font-family="Courier New" font-size="14.00">type: &lt;inherited contract&gt;.variable (bytes)</text>
<polyline fill="none" stroke="black" points="49.61,-347.7 670.5,-347.7 "/>
<text text-anchor="middle" x="179.32" y="-331.1" font-family="Courier New" font-size="14.00">unallocated (12)</text>
<polyline fill="none" stroke="black" points="309.03,-322.9 309.03,-347.7 "/>
<text text-anchor="middle" x="489.65" y="-331.1" font-family="Courier New" font-size="14.00">address: Ownable._owner (20)</text>
<polyline fill="none" stroke="black" points="49.61,-322.9 670.5,-322.9 "/>
<text text-anchor="middle" x="160.32" y="-306.3" font-family="Courier New" font-size="14.00">unallocated (12)</text>
<polyline fill="none" stroke="black" points="271.03,-298.1 271.03,-322.9 "/>
<text text-anchor="middle" x="470.45" y="-306.3" font-family="Courier New" font-size="14.00">address: ManageOrders.appAddress (20)</text>
<polyline fill="none" stroke="black" points="49.61,-298.1 670.5,-298.1 "/>
<text text-anchor="middle" x="359.73" y="-281.5" font-family="Courier New" font-size="14.00">bytes: ManageOrders.nullSign (32)</text>
<polyline fill="none" stroke="black" points="49.61,-273.3 670.5,-273.3 "/>
<text text-anchor="middle" x="359.64" y="-256.7" font-family="Courier New" font-size="14.00">string: ManageOrders.iexec_result_storage_provider (32)</text>
<polyline fill="none" stroke="black" points="49.61,-248.5 670.5,-248.5 "/>
<text text-anchor="middle" x="360.04" y="-231.9" font-family="Courier New" font-size="14.00">string: ManageOrders.iexec_result_storage_proxy (32)</text>
<polyline fill="none" stroke="black" points="49.61,-223.7 670.5,-223.7 "/>
<text text-anchor="middle" x="359.83" y="-207.1" font-family="Courier New" font-size="14.00">string: ManageOrders.iexec_args (32)</text>
<polyline fill="none" stroke="black" points="49.61,-198.9 670.5,-198.9 "/>
<text text-anchor="middle" x="359.62" y="-182.3" font-family="Courier New" font-size="14.00">string: ERC721._name (32)</text>
<polyline fill="none" stroke="black" points="49.61,-174.1 670.5,-174.1 "/>
<text text-anchor="middle" x="360.02" y="-157.5" font-family="Courier New" font-size="14.00">string: ERC721._symbol (32)</text>
<polyline fill="none" stroke="black" points="49.61,-149.3 670.5,-149.3 "/>
<text text-anchor="middle" x="359.84" y="-132.7" font-family="Courier New" font-size="14.00">mapping(uint256=&gt;address): ERC721._owners (32)</text>
<polyline fill="none" stroke="black" points="49.61,-124.5 670.5,-124.5 "/>
<text text-anchor="middle" x="359.74" y="-107.9" font-family="Courier New" font-size="14.00">mapping(address=&gt;uint256): ERC721._balances (32)</text>
<polyline fill="none" stroke="black" points="49.61,-99.7 670.5,-99.7 "/>
<text text-anchor="middle" x="359.94" y="-83.1" font-family="Courier New" font-size="14.00">mapping(uint256=&gt;address): ERC721._tokenApprovals (32)</text>
<polyline fill="none" stroke="black" points="49.61,-74.9 670.5,-74.9 "/>
<text text-anchor="middle" x="360.05" y="-58.3" font-family="Courier New" font-size="14.00">mapping(address=&gt;mapping(address=&gt;bool)): ERC721._operatorApprovals (32)</text>
<polyline fill="none" stroke="black" points="49.61,-50.1 670.5,-50.1 "/>
<text text-anchor="middle" x="360.03" y="-33.5" font-family="Courier New" font-size="14.00">uint256: Collection._nextCollectionId (32)</text>
<polyline fill="none" stroke="black" points="49.61,-25.3 670.5,-25.3 "/>
<text text-anchor="middle" x="359.95" y="-8.7" font-family="Courier New" font-size="14.00">mapping(uint256=&gt;mapping(uint160=&gt;address)): Collection.contents (32)</text>
</g>
</g>
</svg>
