<?xml version="1.0" encoding="UTF-8" standalone="no"?>
<!DOCTYPE svg PUBLIC "-//W3C//DTD SVG 1.1//EN"
 "http://www.w3.org/Graphics/SVG/1.1/DTD/svg11.dtd">
<!-- Generated by graphviz version 5.0.0 (20220707.1540)
 -->
<!-- Title: StorageDiagram Pages: 1 -->
<svg width="1576pt" height="450pt"
 viewBox="0.00 0.00 1575.83 449.60" xmlns="http://www.w3.org/2000/svg" xmlns:xlink="http://www.w3.org/1999/xlink">
<g id="graph0" class="graph" transform="scale(1 1) rotate(0) translate(4 445.6)">
<title>StorageDiagram</title>
<polygon fill="white" stroke="transparent" points="-4,4 -4,-445.6 1571.83,-445.6 1571.83,4 -4,4"/>
<!-- 4 -->
<g id="node1" class="node">
<title>4</title>
<polygon fill="#f2f2f2" stroke="black" points="0,-44.3 0,-441.1 779.72,-441.1 779.72,-44.3 0,-44.3"/>
<text text-anchor="middle" x="389.86" y="-424.5" font-family="Courier New" font-size="14.00">ProtectedDataSharing &lt;&lt;Contract&gt;&gt;</text>
<polyline fill="none" stroke="black" points="0,-416.3 779.72,-416.3 "/>
<text text-anchor="middle" x="24.8" y="-399.7" font-family="Courier New" font-size="14.00">slot</text>
<polyline fill="none" stroke="black" points="0,-391.5 49.61,-391.5 "/>
<text text-anchor="middle" x="24.8" y="-374.9" font-family="Courier New" font-size="14.00">0</text>
<polyline fill="none" stroke="black" points="0,-366.7 49.61,-366.7 "/>
<text text-anchor="middle" x="24.8" y="-350.1" font-family="Courier New" font-size="14.00">1</text>
<polyline fill="none" stroke="black" points="0,-341.9 49.61,-341.9 "/>
<text text-anchor="middle" x="24.8" y="-325.3" font-family="Courier New" font-size="14.00">2</text>
<polyline fill="none" stroke="black" points="0,-317.1 49.61,-317.1 "/>
<text text-anchor="middle" x="24.8" y="-300.5" font-family="Courier New" font-size="14.00">3</text>
<polyline fill="none" stroke="black" points="0,-292.3 49.61,-292.3 "/>
<text text-anchor="middle" x="24.8" y="-275.7" font-family="Courier New" font-size="14.00">4</text>
<polyline fill="none" stroke="black" points="0,-267.5 49.61,-267.5 "/>
<text text-anchor="middle" x="24.8" y="-250.9" font-family="Courier New" font-size="14.00">5</text>
<polyline fill="none" stroke="black" points="0,-242.7 49.61,-242.7 "/>
<text text-anchor="middle" x="24.8" y="-226.1" font-family="Courier New" font-size="14.00">6</text>
<polyline fill="none" stroke="black" points="0,-217.9 49.61,-217.9 "/>
<text text-anchor="middle" x="24.8" y="-201.3" font-family="Courier New" font-size="14.00">7</text>
<polyline fill="none" stroke="black" points="0,-193.1 49.61,-193.1 "/>
<text text-anchor="middle" x="24.8" y="-176.5" font-family="Courier New" font-size="14.00">8</text>
<polyline fill="none" stroke="black" points="0,-168.3 49.61,-168.3 "/>
<text text-anchor="middle" x="24.8" y="-151.7" font-family="Courier New" font-size="14.00">9</text>
<polyline fill="none" stroke="black" points="0,-143.5 49.61,-143.5 "/>
<text text-anchor="middle" x="24.8" y="-126.9" font-family="Courier New" font-size="14.00">10</text>
<polyline fill="none" stroke="black" points="0,-118.7 49.61,-118.7 "/>
<text text-anchor="middle" x="24.8" y="-102.1" font-family="Courier New" font-size="14.00">11</text>
<polyline fill="none" stroke="black" points="0,-93.9 49.61,-93.9 "/>
<text text-anchor="middle" x="24.8" y="-77.3" font-family="Courier New" font-size="14.00">12</text>
<polyline fill="none" stroke="black" points="0,-69.1 49.61,-69.1 "/>
<text text-anchor="middle" x="24.8" y="-52.5" font-family="Courier New" font-size="14.00">13</text>
<polyline fill="none" stroke="black" points="49.61,-44.3 49.61,-416.3 "/>
<text text-anchor="middle" x="414.66" y="-399.7" font-family="Courier New" font-size="14.00">type: &lt;inherited contract&gt;.variable (bytes)</text>
<polyline fill="none" stroke="black" points="49.61,-391.5 779.72,-391.5 "/>
<text text-anchor="middle" x="206.82" y="-374.9" font-family="Courier New" font-size="14.00">unallocated (12)</text>
<polyline fill="none" stroke="black" points="364.03,-366.7 364.03,-391.5 "/>
<text text-anchor="middle" x="571.65" y="-374.9" font-family="Courier New" font-size="14.00">address: Ownable._owner (20)</text>
<polyline fill="none" stroke="black" points="49.61,-366.7 779.72,-366.7 "/>
<text text-anchor="middle" x="202.32" y="-350.1" font-family="Courier New" font-size="14.00">unallocated (12)</text>
<polyline fill="none" stroke="black" points="355.03,-341.9 355.03,-366.7 "/>
<text text-anchor="middle" x="567.05" y="-350.1" font-family="Courier New" font-size="14.00">address: Store.appAddress (20)</text>
<polyline fill="none" stroke="black" points="49.61,-341.9 779.72,-341.9 "/>
<text text-anchor="middle" x="414.32" y="-325.3" font-family="Courier New" font-size="14.00">bytes: Store.nullSign (32)</text>
<polyline fill="none" stroke="black" points="49.61,-317.1 779.72,-317.1 "/>
<text text-anchor="middle" x="414.24" y="-300.5" font-family="Courier New" font-size="14.00">string: Store.iexec_result_storage_provider (32)</text>
<polyline fill="none" stroke="black" points="49.61,-292.3 779.72,-292.3 "/>
<text text-anchor="middle" x="414.64" y="-275.7" font-family="Courier New" font-size="14.00">string: Store.iexec_result_storage_proxy (32)</text>
<polyline fill="none" stroke="black" points="49.61,-267.5 779.72,-267.5 "/>
<text text-anchor="middle" x="414.63" y="-250.9" font-family="Courier New" font-size="14.00">Collection: Store.m_collection (32)</text>
<polyline fill="none" stroke="black" points="49.61,-242.7 779.72,-242.7 "/>
<text text-anchor="middle" x="414.66" y="-226.1" font-family="Courier New" font-size="14.00">mapping(uint256=&gt;mapping(address=&gt;bool)): Store.protectedDataInSubscription (32)</text>
<polyline fill="none" stroke="black" points="49.61,-217.9 779.72,-217.9 "/>
<text text-anchor="middle" x="414.35" y="-201.3" font-family="Courier New" font-size="14.00">mapping(uint256=&gt;mapping(address=&gt;uint48)): Store.subscribers (32)</text>
<polyline fill="none" stroke="black" points="49.61,-193.1 779.72,-193.1 "/>
<text text-anchor="middle" x="414.55" y="-176.5" font-family="Courier New" font-size="14.00">mapping(uint256=&gt;SubscriptionParams): Store.subscriptionParams (32)</text>
<polyline fill="none" stroke="black" points="49.61,-168.3 779.72,-168.3 "/>
<text text-anchor="middle" x="414.25" y="-151.7" font-family="Courier New" font-size="14.00">mapping(uint256=&gt;uint48): Store.lastSubscriptionExpiration (32)</text>
<polyline fill="none" stroke="black" points="49.61,-143.5 779.72,-143.5 "/>
<text text-anchor="middle" x="414.66" y="-126.9" font-family="Courier New" font-size="14.00">mapping(uint256=&gt;mapping(address=&gt;RentingParams)): Store.protectedDataForRenting (32)</text>
<polyline fill="none" stroke="black" points="49.61,-118.7 779.72,-118.7 "/>
<text text-anchor="middle" x="414.55" y="-102.1" font-family="Courier New" font-size="14.00">mapping(uint256=&gt;mapping(address=&gt;uint48)): Store.tenants (32)</text>
<polyline fill="none" stroke="black" points="49.61,-93.9 779.72,-93.9 "/>
<text text-anchor="middle" x="414.54" y="-77.3" font-family="Courier New" font-size="14.00">mapping(address=&gt;uint48): Store.lastRentalExpiration (32)</text>
<polyline fill="none" stroke="black" points="49.61,-69.1 779.72,-69.1 "/>
<text text-anchor="middle" x="414.36" y="-52.5" font-family="Courier New" font-size="14.00">mapping(uint256=&gt;mapping(address=&gt;SellingParam)): Store.protectedDataForSale (32)</text>
</g>
<!-- 1 -->
<g id="node2" class="node">
<title>1</title>
<polygon fill="#f2f2f2" stroke="black" points="903.53,-186.5 903.53,-260.9 1480.02,-260.9 1480.02,-186.5 903.53,-186.5"/>
<text text-anchor="middle" x="1191.78" y="-244.3" font-family="Courier New" font-size="14.00">SubscriptionParams &lt;&lt;Struct&gt;&gt;</text>
<polyline fill="none" stroke="black" points="903.53,-236.1 1480.02,-236.1 "/>
<text text-anchor="middle" x="936.74" y="-219.5" font-family="Courier New" font-size="14.00">offset</text>
<polyline fill="none" stroke="black" points="903.53,-211.3 969.94,-211.3 "/>
<text text-anchor="middle" x="936.74" y="-194.7" font-family="Courier New" font-size="14.00">0</text>
<polyline fill="none" stroke="black" points="969.94,-186.5 969.94,-236.1 "/>
<text text-anchor="middle" x="1224.98" y="-219.5" font-family="Courier New" font-size="14.00">type: variable (bytes)</text>
<polyline fill="none" stroke="black" points="969.94,-211.3 1480.02,-211.3 "/>
<text text-anchor="middle" x="1045.15" y="-194.7" font-family="Courier New" font-size="14.00">unallocated (12)</text>
<polyline fill="none" stroke="black" points="1120.36,-186.5 1120.36,-211.3 "/>
<text text-anchor="middle" x="1212.38" y="-194.7" font-family="Courier New" font-size="14.00">uint48: duration (6)</text>
<polyline fill="none" stroke="black" points="1304.39,-186.5 1304.39,-211.3 "/>
<text text-anchor="middle" x="1392.21" y="-194.7" font-family="Courier New" font-size="14.00">uint112: price (14)</text>
</g>
<!-- 4&#45;&gt;1 -->
<g id="edge1" class="edge">
<title>4:11&#45;&gt;1</title>
<path fill="none" stroke="black" d="M779.72,-180.7C818.83,-180.7 859.92,-182.65 900.37,-185.72"/>
<polygon fill="black" stroke="black" points="900.12,-189.21 910.37,-186.5 900.67,-182.23 900.12,-189.21"/>
</g>
<!-- 2 -->
<g id="node3" class="node">
<title>2</title>
<polygon fill="#f2f2f2" stroke="black" points="815.72,-93.5 815.72,-167.9 1567.83,-167.9 1567.83,-93.5 815.72,-93.5"/>
<text text-anchor="middle" x="1191.78" y="-151.3" font-family="Courier New" font-size="14.00">RentingParams &lt;&lt;Struct&gt;&gt;</text>
<polyline fill="none" stroke="black" points="815.72,-143.1 1567.83,-143.1 "/>
<text text-anchor="middle" x="848.93" y="-126.5" font-family="Courier New" font-size="14.00">offset</text>
<polyline fill="none" stroke="black" points="815.72,-118.3 882.13,-118.3 "/>
<text text-anchor="middle" x="848.93" y="-101.7" font-family="Courier New" font-size="14.00">0</text>
<polyline fill="none" stroke="black" points="882.13,-93.5 882.13,-143.1 "/>
<text text-anchor="middle" x="1224.98" y="-126.5" font-family="Courier New" font-size="14.00">type: variable (bytes)</text>
<polyline fill="none" stroke="black" points="882.13,-118.3 1567.83,-118.3 "/>
<text text-anchor="middle" x="957.34" y="-101.7" font-family="Courier New" font-size="14.00">unallocated (11)</text>
<polyline fill="none" stroke="black" points="1032.55,-93.5 1032.55,-118.3 "/>
<text text-anchor="middle" x="1124.57" y="-101.7" font-family="Courier New" font-size="14.00">uint48: duration (6)</text>
<polyline fill="none" stroke="black" points="1216.58,-93.5 1216.58,-118.3 "/>
<text text-anchor="middle" x="1304.39" y="-101.7" font-family="Courier New" font-size="14.00">uint112: price (14)</text>
<polyline fill="none" stroke="black" points="1392.21,-93.5 1392.21,-118.3 "/>
<text text-anchor="middle" x="1480.02" y="-101.7" font-family="Courier New" font-size="14.00">bool: inRenting (1)</text>
</g>
<!-- 4&#45;&gt;2 -->
<g id="edge2" class="edge">
<title>4:16&#45;&gt;2</title>
<path fill="none" stroke="black" d="M779.72,-130.7C788.18,-130.7 796.75,-130.7 805.38,-130.7"/>
<polygon fill="black" stroke="black" points="805.54,-134.2 815.54,-130.7 805.54,-127.2 805.54,-134.2"/>
</g>
<!-- 3 -->
<g id="node4" class="node">
<title>3</title>
<polygon fill="#f2f2f2" stroke="black" points="916.14,-0.5 916.14,-74.9 1467.42,-74.9 1467.42,-0.5 916.14,-0.5"/>
<text text-anchor="middle" x="1191.78" y="-58.3" font-family="Courier New" font-size="14.00">SellingParam &lt;&lt;Struct&gt;&gt;</text>
<polyline fill="none" stroke="black" points="916.14,-50.1 1467.42,-50.1 "/>
<text text-anchor="middle" x="949.34" y="-33.5" font-family="Courier New" font-size="14.00">offset</text>
<polyline fill="none" stroke="black" points="916.14,-25.3 982.54,-25.3 "/>
<text text-anchor="middle" x="949.34" y="-8.7" font-family="Courier New" font-size="14.00">0</text>
<polyline fill="none" stroke="black" points="982.54,-0.5 982.54,-50.1 "/>
<text text-anchor="middle" x="1224.98" y="-33.5" font-family="Courier New" font-size="14.00">type: variable (bytes)</text>
<polyline fill="none" stroke="black" points="982.54,-25.3 1467.42,-25.3 "/>
<text text-anchor="middle" x="1057.76" y="-8.7" font-family="Courier New" font-size="14.00">unallocated (17)</text>
<polyline fill="none" stroke="black" points="1132.97,-0.5 1132.97,-25.3 "/>
<text text-anchor="middle" x="1220.78" y="-8.7" font-family="Courier New" font-size="14.00">uint112: price (14)</text>
<polyline fill="none" stroke="black" points="1308.59,-0.5 1308.59,-25.3 "/>
<text text-anchor="middle" x="1388" y="-8.7" font-family="Courier New" font-size="14.00">bool: forSale (1)</text>
</g>
<!-- 4&#45;&gt;3 -->
<g id="edge3" class="edge">
<title>4:21&#45;&gt;3</title>
<path fill="none" stroke="black" d="M779.72,-56.7C820.56,-56.7 863.66,-55.75 905.97,-54.28"/>
<polygon fill="black" stroke="black" points="906.26,-57.77 916.13,-53.92 906.01,-50.78 906.26,-57.77"/>
</g>
</g>
</svg>
