<?xml version="1.0" encoding="UTF-8" standalone="no"?>
<!DOCTYPE svg PUBLIC "-//W3C//DTD SVG 1.1//EN"
 "http://www.w3.org/Graphics/SVG/1.1/DTD/svg11.dtd">
<!-- Generated by graphviz version 5.0.0 (20220707.1540)
 -->
<!-- Title: StorageDiagram Pages: 1 -->
<svg width="2247pt" height="642pt"
 viewBox="0.00 0.00 2247.12 642.20" xmlns="http://www.w3.org/2000/svg" xmlns:xlink="http://www.w3.org/1999/xlink">
<g id="graph0" class="graph" transform="scale(1 1) rotate(0) translate(4 638.2)">
<title>StorageDiagram</title>
<polygon fill="white" stroke="transparent" points="-4,4 -4,-638.2 2243.12,-638.2 2243.12,4 -4,4"/>
<!-- 7 -->
<g id="node1" class="node">
<title>7</title>
<polygon fill="#f2f2f2" stroke="black" points="0,-329.9 0,-577.9 611.69,-577.9 611.69,-329.9 0,-329.9"/>
<text text-anchor="middle" x="305.85" y="-561.3" font-family="Courier New" font-size="14.00">DataProtectorSharing &lt;&lt;Contract&gt;&gt;</text>
<polyline fill="none" stroke="black" points="0,-553.1 611.69,-553.1 "/>
<text text-anchor="middle" x="24.8" y="-536.5" font-family="Courier New" font-size="14.00">slot</text>
<polyline fill="none" stroke="black" points="0,-528.3 49.61,-528.3 "/>
<text text-anchor="middle" x="24.8" y="-511.7" font-family="Courier New" font-size="14.00">0</text>
<polyline fill="none" stroke="black" points="0,-503.5 49.61,-503.5 "/>
<text text-anchor="middle" x="24.8" y="-486.9" font-family="Courier New" font-size="14.00">1</text>
<polyline fill="none" stroke="black" points="0,-478.7 49.61,-478.7 "/>
<text text-anchor="middle" x="24.8" y="-462.1" font-family="Courier New" font-size="14.00">2</text>
<polyline fill="none" stroke="black" points="0,-453.9 49.61,-453.9 "/>
<text text-anchor="middle" x="24.8" y="-437.3" font-family="Courier New" font-size="14.00">3</text>
<polyline fill="none" stroke="black" points="0,-429.1 49.61,-429.1 "/>
<text text-anchor="middle" x="24.8" y="-412.5" font-family="Courier New" font-size="14.00">4</text>
<polyline fill="none" stroke="black" points="0,-404.3 49.61,-404.3 "/>
<text text-anchor="middle" x="24.8" y="-387.7" font-family="Courier New" font-size="14.00">5</text>
<polyline fill="none" stroke="black" points="0,-379.5 49.61,-379.5 "/>
<text text-anchor="middle" x="24.8" y="-362.9" font-family="Courier New" font-size="14.00">6</text>
<polyline fill="none" stroke="black" points="0,-354.7 49.61,-354.7 "/>
<text text-anchor="middle" x="24.8" y="-338.1" font-family="Courier New" font-size="14.00">7</text>
<polyline fill="none" stroke="black" points="49.61,-329.9 49.61,-553.1 "/>
<text text-anchor="middle" x="330.65" y="-536.5" font-family="Courier New" font-size="14.00">type: &lt;inherited contract&gt;.variable (bytes)</text>
<polyline fill="none" stroke="black" points="49.61,-528.3 611.69,-528.3 "/>
<text text-anchor="middle" x="330.34" y="-511.7" font-family="Courier New" font-size="14.00">string: ManageOrders._iexec_result_storage_provider (32)</text>
<polyline fill="none" stroke="black" points="49.61,-503.5 611.69,-503.5 "/>
<text text-anchor="middle" x="330.24" y="-486.9" font-family="Courier New" font-size="14.00">string: ManageOrders._iexec_result_storage_proxy (32)</text>
<polyline fill="none" stroke="black" points="49.61,-478.7 611.69,-478.7 "/>
<text text-anchor="middle" x="330.53" y="-462.1" font-family="Courier New" font-size="14.00">uint256: ManageOrders._salt (32)</text>
<polyline fill="none" stroke="black" points="49.61,-453.9 611.69,-453.9 "/>
<text text-anchor="middle" x="330.33" y="-437.3" font-family="Courier New" font-size="14.00">uint256: _nextCollectionTokenId (32)</text>
<polyline fill="none" stroke="black" points="49.61,-429.1 611.69,-429.1 "/>
<text text-anchor="middle" x="330.43" y="-412.5" font-family="Courier New" font-size="14.00">mapping(address=&gt;uint256): earning (32)</text>
<polyline fill="none" stroke="black" points="49.61,-404.3 611.69,-404.3 "/>
<text text-anchor="middle" x="330.65" y="-387.7" font-family="Courier New" font-size="14.00">mapping(address=&gt;ProtectedDataDetails): protectedDataDetails (32)</text>
<polyline fill="none" stroke="black" points="49.61,-379.5 611.69,-379.5 "/>
<text text-anchor="middle" x="330.45" y="-362.9" font-family="Courier New" font-size="14.00">mapping(uint256=&gt;CollectionDetails): collectionDetails (32)</text>
<polyline fill="none" stroke="black" points="49.61,-354.7 611.69,-354.7 "/>
<text text-anchor="middle" x="330.35" y="-338.1" font-family="Courier New" font-size="14.00">mapping(address=&gt;IexecLibOrders_v5.AppOrder): _appOrders (32)</text>
</g>
<!-- 3 -->
<g id="node4" class="node">
<title>3</title>
<polygon fill="#f2f2f2" stroke="black" points="647.69,-460.1 647.69,-633.7 1643.44,-633.7 1643.44,-460.1 647.69,-460.1"/>
<text text-anchor="middle" x="1145.57" y="-617.1" font-family="Courier New" font-size="14.00">ProtectedDataDetails &lt;&lt;Struct&gt;&gt;</text>
<polyline fill="none" stroke="black" points="647.69,-608.9 1643.44,-608.9 "/>
<text text-anchor="middle" x="680.9" y="-592.3" font-family="Courier New" font-size="14.00">offset</text>
<polyline fill="none" stroke="black" points="647.69,-584.1 714.1,-584.1 "/>
<text text-anchor="middle" x="680.9" y="-567.5" font-family="Courier New" font-size="14.00">0</text>
<polyline fill="none" stroke="black" points="647.69,-559.3 714.1,-559.3 "/>
<text text-anchor="middle" x="680.9" y="-542.7" font-family="Courier New" font-size="14.00">1</text>
<polyline fill="none" stroke="black" points="647.69,-534.5 714.1,-534.5 "/>
<text text-anchor="middle" x="680.9" y="-517.9" font-family="Courier New" font-size="14.00">2</text>
<polyline fill="none" stroke="black" points="647.69,-509.7 714.1,-509.7 "/>
<text text-anchor="middle" x="680.9" y="-493.1" font-family="Courier New" font-size="14.00">3</text>
<polyline fill="none" stroke="black" points="647.69,-484.9 714.1,-484.9 "/>
<text text-anchor="middle" x="680.9" y="-468.3" font-family="Courier New" font-size="14.00">4</text>
<polyline fill="none" stroke="black" points="714.1,-460.1 714.1,-608.9 "/>
<text text-anchor="middle" x="1178.77" y="-592.3" font-family="Courier New" font-size="14.00">type: variable (bytes)</text>
<polyline fill="none" stroke="black" points="714.1,-584.1 1643.44,-584.1 "/>
<text text-anchor="middle" x="1178.42" y="-567.5" font-family="Courier New" font-size="14.00">uint256: collection (32)</text>
<polyline fill="none" stroke="black" points="714.1,-559.3 1643.44,-559.3 "/>
<text text-anchor="middle" x="785.11" y="-542.7" font-family="Courier New" font-size="14.00">unallocated (5)</text>
<polyline fill="none" stroke="black" points="856.12,-534.5 856.12,-559.3 "/>
<text text-anchor="middle" x="964.94" y="-542.7" font-family="Courier New" font-size="14.00">bool: inSubscription (1)</text>
<polyline fill="none" stroke="black" points="1073.76,-534.5 1073.76,-559.3 "/>
<text text-anchor="middle" x="1216.18" y="-542.7" font-family="Courier New" font-size="14.00">uint48: lastRentalExpiration (6)</text>
<polyline fill="none" stroke="black" points="1358.6,-534.5 1358.6,-559.3 "/>
<text text-anchor="middle" x="1501.02" y="-542.7" font-family="Courier New" font-size="14.00">IAppWhitelist: appWhitelist (20)</text>
<polyline fill="none" stroke="black" points="714.1,-534.5 1643.44,-534.5 "/>
<text text-anchor="middle" x="1178.73" y="-517.9" font-family="Courier New" font-size="14.00">RentingParams: rentingParams (32)</text>
<polyline fill="none" stroke="black" points="714.1,-509.7 1643.44,-509.7 "/>
<text text-anchor="middle" x="1178.73" y="-493.1" font-family="Courier New" font-size="14.00">mapping(address=&gt;uint48): renters (32)</text>
<polyline fill="none" stroke="black" points="714.1,-484.9 1643.44,-484.9 "/>
<text text-anchor="middle" x="1178.73" y="-468.3" font-family="Courier New" font-size="14.00">SellingParams: sellingParams (32)</text>
</g>
<!-- 7&#45;&gt;3 -->
<g id="edge1" class="edge">
<title>7:17&#45;&gt;3</title>
<path fill="none" stroke="black" d="M611.69,-391.9C642.41,-391.9 622.46,-433.38 647.69,-450.9 649.39,-452.07 651.09,-453.24 652.8,-454.38"/>
<polygon fill="black" stroke="black" points="651.16,-457.49 661.45,-460.01 654.98,-451.62 651.16,-457.49"/>
</g>
<!-- 5 -->
<g id="node6" class="node">
<title>5</title>
<polygon fill="#f2f2f2" stroke="black" points="869.53,-292.5 869.53,-441.3 1421.61,-441.3 1421.61,-292.5 869.53,-292.5"/>
<text text-anchor="middle" x="1145.57" y="-424.7" font-family="Courier New" font-size="14.00">CollectionDetails &lt;&lt;Struct&gt;&gt;</text>
<polyline fill="none" stroke="black" points="869.53,-416.5 1421.61,-416.5 "/>
<text text-anchor="middle" x="902.73" y="-399.9" font-family="Courier New" font-size="14.00">offset</text>
<polyline fill="none" stroke="black" points="869.53,-391.7 935.94,-391.7 "/>
<text text-anchor="middle" x="902.73" y="-375.1" font-family="Courier New" font-size="14.00">0</text>
<polyline fill="none" stroke="black" points="869.53,-366.9 935.94,-366.9 "/>
<text text-anchor="middle" x="902.73" y="-350.3" font-family="Courier New" font-size="14.00">1</text>
<polyline fill="none" stroke="black" points="869.53,-342.1 935.94,-342.1 "/>
<text text-anchor="middle" x="902.73" y="-325.5" font-family="Courier New" font-size="14.00">2</text>
<polyline fill="none" stroke="black" points="869.53,-317.3 935.94,-317.3 "/>
<text text-anchor="middle" x="902.73" y="-300.7" font-family="Courier New" font-size="14.00">3</text>
<polyline fill="none" stroke="black" points="935.94,-292.5 935.94,-416.5 "/>
<text text-anchor="middle" x="1178.77" y="-399.9" font-family="Courier New" font-size="14.00">type: variable (bytes)</text>
<polyline fill="none" stroke="black" points="935.94,-391.7 1421.61,-391.7 "/>
<text text-anchor="middle" x="1178.55" y="-375.1" font-family="Courier New" font-size="14.00">uint256: size (32)</text>
<polyline fill="none" stroke="black" points="935.94,-366.9 1421.61,-366.9 "/>
<text text-anchor="middle" x="1011.15" y="-350.3" font-family="Courier New" font-size="14.00">unallocated (26)</text>
<polyline fill="none" stroke="black" points="1086.36,-342.1 1086.36,-366.9 "/>
<text text-anchor="middle" x="1253.98" y="-350.3" font-family="Courier New" font-size="14.00">uint48: lastSubscriptionExpiration (6)</text>
<polyline fill="none" stroke="black" points="935.94,-342.1 1421.61,-342.1 "/>
<text text-anchor="middle" x="1178.57" y="-325.5" font-family="Courier New" font-size="14.00">SubscriptionParams: subscriptionParams (32)</text>
<polyline fill="none" stroke="black" points="935.94,-317.3 1421.61,-317.3 "/>
<text text-anchor="middle" x="1178.36" y="-300.7" font-family="Courier New" font-size="14.00">mapping(address=&gt;uint48): subscribers (32)</text>
</g>
<!-- 7&#45;&gt;5 -->
<g id="edge2" class="edge">
<title>7:24&#45;&gt;5</title>
<path fill="none" stroke="black" d="M611.69,-366.9C691.98,-366.9 779.08,-366.9 859.14,-366.9"/>
<polygon fill="black" stroke="black" points="859.37,-370.4 869.37,-366.9 859.37,-363.4 859.37,-370.4"/>
</g>
<!-- 6 -->
<g id="node7" class="node">
<title>6</title>
<polygon fill="#f2f2f2" stroke="black" points="894.73,-0.5 894.73,-273.3 1396.41,-273.3 1396.41,-0.5 894.73,-0.5"/>
<text text-anchor="middle" x="1145.57" y="-256.7" font-family="Courier New" font-size="14.00">AppOrder &lt;&lt;Struct&gt;&gt;</text>
<polyline fill="none" stroke="black" points="894.73,-248.5 1396.41,-248.5 "/>
<text text-anchor="middle" x="927.94" y="-231.9" font-family="Courier New" font-size="14.00">offset</text>
<polyline fill="none" stroke="black" points="894.73,-223.7 961.14,-223.7 "/>
<text text-anchor="middle" x="927.94" y="-207.1" font-family="Courier New" font-size="14.00">0</text>
<polyline fill="none" stroke="black" points="894.73,-198.9 961.14,-198.9 "/>
<text text-anchor="middle" x="927.94" y="-182.3" font-family="Courier New" font-size="14.00">1</text>
<polyline fill="none" stroke="black" points="894.73,-174.1 961.14,-174.1 "/>
<text text-anchor="middle" x="927.94" y="-157.5" font-family="Courier New" font-size="14.00">2</text>
<polyline fill="none" stroke="black" points="894.73,-149.3 961.14,-149.3 "/>
<text text-anchor="middle" x="927.94" y="-132.7" font-family="Courier New" font-size="14.00">3</text>
<polyline fill="none" stroke="black" points="894.73,-124.5 961.14,-124.5 "/>
<text text-anchor="middle" x="927.94" y="-107.9" font-family="Courier New" font-size="14.00">4</text>
<polyline fill="none" stroke="black" points="894.73,-99.7 961.14,-99.7 "/>
<text text-anchor="middle" x="927.94" y="-83.1" font-family="Courier New" font-size="14.00">5</text>
<polyline fill="none" stroke="black" points="894.73,-74.9 961.14,-74.9 "/>
<text text-anchor="middle" x="927.94" y="-58.3" font-family="Courier New" font-size="14.00">6</text>
<polyline fill="none" stroke="black" points="894.73,-50.1 961.14,-50.1 "/>
<text text-anchor="middle" x="927.94" y="-33.5" font-family="Courier New" font-size="14.00">7</text>
<polyline fill="none" stroke="black" points="894.73,-25.3 961.14,-25.3 "/>
<text text-anchor="middle" x="927.94" y="-8.7" font-family="Courier New" font-size="14.00">8</text>
<polyline fill="none" stroke="black" points="961.14,-0.5 961.14,-248.5 "/>
<text text-anchor="middle" x="1178.77" y="-231.9" font-family="Courier New" font-size="14.00">type: variable (bytes)</text>
<polyline fill="none" stroke="black" points="961.14,-223.7 1396.41,-223.7 "/>
<text text-anchor="middle" x="1067.85" y="-207.1" font-family="Courier New" font-size="14.00">unallocated (12)</text>
<polyline fill="none" stroke="black" points="1174.56,-198.9 1174.56,-223.7 "/>
<text text-anchor="middle" x="1285.47" y="-207.1" font-family="Courier New" font-size="14.00">address: app (20)</text>
<polyline fill="none" stroke="black" points="961.14,-198.9 1396.41,-198.9 "/>
<text text-anchor="middle" x="1178.56" y="-182.3" font-family="Courier New" font-size="14.00">uint256: appprice (32)</text>
<polyline fill="none" stroke="black" points="961.14,-174.1 1396.41,-174.1 "/>
<text text-anchor="middle" x="1178.65" y="-157.5" font-family="Courier New" font-size="14.00">uint256: volume (32)</text>
<polyline fill="none" stroke="black" points="961.14,-149.3 1396.41,-149.3 "/>
<text text-anchor="middle" x="1178.55" y="-132.7" font-family="Courier New" font-size="14.00">bytes32: tag (32)</text>
<polyline fill="none" stroke="black" points="961.14,-124.5 1396.41,-124.5 "/>
<text text-anchor="middle" x="1042.35" y="-107.9" font-family="Courier New" font-size="14.00">unallocated (12)</text>
<polyline fill="none" stroke="black" points="1123.56,-99.7 1123.56,-124.5 "/>
<text text-anchor="middle" x="1259.88" y="-107.9" font-family="Courier New" font-size="14.00">address: datasetrestrict (20)</text>
<polyline fill="none" stroke="black" points="961.14,-99.7 1396.41,-99.7 "/>
<text text-anchor="middle" x="1036.35" y="-83.1" font-family="Courier New" font-size="14.00">unallocated (12)</text>
<polyline fill="none" stroke="black" points="1111.56,-74.9 1111.56,-99.7 "/>
<text text-anchor="middle" x="1253.98" y="-83.1" font-family="Courier New" font-size="14.00">address: workerpoolrestrict (20)</text>
<polyline fill="none" stroke="black" points="961.14,-74.9 1396.41,-74.9 "/>
<text text-anchor="middle" x="1038.35" y="-58.3" font-family="Courier New" font-size="14.00">unallocated (12)</text>
<polyline fill="none" stroke="black" points="1115.56,-50.1 1115.56,-74.9 "/>
<text text-anchor="middle" x="1255.78" y="-58.3" font-family="Courier New" font-size="14.00">address: requesterrestrict (20)</text>
<polyline fill="none" stroke="black" points="961.14,-50.1 1396.41,-50.1 "/>
<text text-anchor="middle" x="1178.75" y="-33.5" font-family="Courier New" font-size="14.00">bytes32: salt (32)</text>
<polyline fill="none" stroke="black" points="961.14,-25.3 1396.41,-25.3 "/>
<text text-anchor="middle" x="1178.35" y="-8.7" font-family="Courier New" font-size="14.00">bytes: sign (32)</text>
</g>
<!-- 7&#45;&gt;6 -->
<g id="edge3" class="edge">
<title>7:34&#45;&gt;6</title>
<path fill="none" stroke="black" d="M611.69,-341.9C642.41,-341.9 623.32,-301.6 647.69,-282.9 715.99,-230.51 802.69,-196.89 884.48,-175.32"/>
<polygon fill="black" stroke="black" points="885.62,-178.64 894.43,-172.75 883.87,-171.86 885.62,-178.64"/>
</g>
<!-- 1 -->
<g id="node2" class="node">
<title>1</title>
<polygon fill="#f2f2f2" stroke="black" points="1679.44,-506.7 1679.44,-581.1 2239.12,-581.1 2239.12,-506.7 1679.44,-506.7"/>
<text text-anchor="middle" x="1959.28" y="-564.5" font-family="Courier New" font-size="14.00">RentingParams &lt;&lt;Struct&gt;&gt;</text>
<polyline fill="none" stroke="black" points="1679.44,-556.3 2239.12,-556.3 "/>
<text text-anchor="middle" x="1712.65" y="-539.7" font-family="Courier New" font-size="14.00">offset</text>
<polyline fill="none" stroke="black" points="1679.44,-531.5 1745.85,-531.5 "/>
<text text-anchor="middle" x="1712.65" y="-514.9" font-family="Courier New" font-size="14.00">0</text>
<polyline fill="none" stroke="black" points="1745.85,-506.7 1745.85,-556.3 "/>
<text text-anchor="middle" x="1992.49" y="-539.7" font-family="Courier New" font-size="14.00">type: variable (bytes)</text>
<polyline fill="none" stroke="black" points="1745.85,-531.5 2239.12,-531.5 "/>
<text text-anchor="middle" x="1821.06" y="-514.9" font-family="Courier New" font-size="14.00">unallocated (17)</text>
<polyline fill="none" stroke="black" points="1896.27,-506.7 1896.27,-531.5 "/>
<text text-anchor="middle" x="1988.29" y="-514.9" font-family="Courier New" font-size="14.00">uint48: duration (6)</text>
<polyline fill="none" stroke="black" points="2080.3,-506.7 2080.3,-531.5 "/>
<text text-anchor="middle" x="2159.71" y="-514.9" font-family="Courier New" font-size="14.00">uint72: price (9)</text>
</g>
<!-- 2 -->
<g id="node3" class="node">
<title>2</title>
<polygon fill="#f2f2f2" stroke="black" points="1683.64,-413.7 1683.64,-488.1 2234.92,-488.1 2234.92,-413.7 1683.64,-413.7"/>
<text text-anchor="middle" x="1959.28" y="-471.5" font-family="Courier New" font-size="14.00">SellingParams &lt;&lt;Struct&gt;&gt;</text>
<polyline fill="none" stroke="black" points="1683.64,-463.3 2234.92,-463.3 "/>
<text text-anchor="middle" x="1716.85" y="-446.7" font-family="Courier New" font-size="14.00">offset</text>
<polyline fill="none" stroke="black" points="1683.64,-438.5 1750.05,-438.5 "/>
<text text-anchor="middle" x="1716.85" y="-421.9" font-family="Courier New" font-size="14.00">0</text>
<polyline fill="none" stroke="black" points="1750.05,-413.7 1750.05,-463.3 "/>
<text text-anchor="middle" x="1992.49" y="-446.7" font-family="Courier New" font-size="14.00">type: variable (bytes)</text>
<polyline fill="none" stroke="black" points="1750.05,-438.5 2234.92,-438.5 "/>
<text text-anchor="middle" x="1825.26" y="-421.9" font-family="Courier New" font-size="14.00">unallocated (22)</text>
<polyline fill="none" stroke="black" points="1900.47,-413.7 1900.47,-438.5 "/>
<text text-anchor="middle" x="1979.89" y="-421.9" font-family="Courier New" font-size="14.00">uint72: price (9)</text>
<polyline fill="none" stroke="black" points="2059.3,-413.7 2059.3,-438.5 "/>
<text text-anchor="middle" x="2147.11" y="-421.9" font-family="Courier New" font-size="14.00">bool: isForSale (1)</text>
</g>
<!-- 3&#45;&gt;1 -->
<g id="edge4" class="edge">
<title>3:12&#45;&gt;1</title>
<path fill="none" stroke="black" d="M1643.44,-521.9C1651.91,-521.9 1660.5,-521.98 1669.17,-522.13"/>
<polygon fill="black" stroke="black" points="1669.32,-525.63 1679.39,-522.34 1669.46,-518.64 1669.32,-525.63"/>
</g>
<!-- 3&#45;&gt;2 -->
<g id="edge5" class="edge">
<title>3:16&#45;&gt;2</title>
<path fill="none" stroke="black" d="M1643.44,-472.9C1653.31,-472.9 1663.34,-472.79 1673.47,-472.59"/>
<polygon fill="black" stroke="black" points="1673.71,-476.08 1683.63,-472.36 1673.55,-469.09 1673.71,-476.08"/>
</g>
<!-- 4 -->
<g id="node5" class="node">
<title>4</title>
<polygon fill="#f2f2f2" stroke="black" points="1679.44,-292.7 1679.44,-367.1 2239.12,-367.1 2239.12,-292.7 1679.44,-292.7"/>
<text text-anchor="middle" x="1959.28" y="-350.5" font-family="Courier New" font-size="14.00">SubscriptionParams &lt;&lt;Struct&gt;&gt;</text>
<polyline fill="none" stroke="black" points="1679.44,-342.3 2239.12,-342.3 "/>
<text text-anchor="middle" x="1712.65" y="-325.7" font-family="Courier New" font-size="14.00">offset</text>
<polyline fill="none" stroke="black" points="1679.44,-317.5 1745.85,-317.5 "/>
<text text-anchor="middle" x="1712.65" y="-300.9" font-family="Courier New" font-size="14.00">0</text>
<polyline fill="none" stroke="black" points="1745.85,-292.7 1745.85,-342.3 "/>
<text text-anchor="middle" x="1992.49" y="-325.7" font-family="Courier New" font-size="14.00">type: variable (bytes)</text>
<polyline fill="none" stroke="black" points="1745.85,-317.5 2239.12,-317.5 "/>
<text text-anchor="middle" x="1821.06" y="-300.9" font-family="Courier New" font-size="14.00">unallocated (17)</text>
<polyline fill="none" stroke="black" points="1896.27,-292.7 1896.27,-317.5 "/>
<text text-anchor="middle" x="1988.29" y="-300.9" font-family="Courier New" font-size="14.00">uint48: duration (6)</text>
<polyline fill="none" stroke="black" points="2080.3,-292.7 2080.3,-317.5 "/>
<text text-anchor="middle" x="2159.71" y="-300.9" font-family="Courier New" font-size="14.00">uint72: price (9)</text>
</g>
<!-- 5&#45;&gt;4 -->
<g id="edge6" class="edge">
<title>5:22&#45;&gt;4</title>
<path fill="none" stroke="black" d="M1422.57,-329.9C1502.51,-329.9 1589.15,-329.9 1668.99,-329.9"/>
<polygon fill="black" stroke="black" points="1669.2,-333.4 1679.2,-329.9 1669.2,-326.4 1669.2,-333.4"/>
</g>
</g>
</svg>
