<?xml version="1.0" encoding="UTF-8" standalone="no"?>
<!DOCTYPE svg PUBLIC "-//W3C//DTD SVG 1.1//EN"
 "http://www.w3.org/Graphics/SVG/1.1/DTD/svg11.dtd">
<!-- Generated by graphviz version 5.0.0 (20220707.1540)
 -->
<!-- Title: StorageDiagram Pages: 1 -->
<svg width="2290pt" height="830pt"
 viewBox="0.00 0.00 2289.93 829.60" xmlns="http://www.w3.org/2000/svg" xmlns:xlink="http://www.w3.org/1999/xlink">
<g id="graph0" class="graph" transform="scale(1 1) rotate(0) translate(4 825.6)">
<title>StorageDiagram</title>
<polygon fill="white" stroke="transparent" points="-4,4 -4,-825.6 2285.93,-825.6 2285.93,4 -4,4"/>
<!-- 8 -->
<g id="node1" class="node">
<title>8</title>
<polygon fill="#f2f2f2" stroke="black" points="0,-329.9 0,-577.9 611.69,-577.9 611.69,-329.9 0,-329.9"/>
<text text-anchor="middle" x="305.85" y="-561.3" font-family="Courier New" font-size="14.00">DataProtectorSharing &lt;&lt;Contract&gt;&gt;</text>
<polyline fill="none" stroke="black" points="0,-553.1 611.69,-553.1 "/>
<text text-anchor="middle" x="24.8" y="-536.5" font-family="Courier New" font-size="14.00">slot</text>
<polyline fill="none" stroke="black" points="0,-528.3 49.61,-528.3 "/>
<text text-anchor="middle" x="24.8" y="-511.7" font-family="Courier New" font-size="14.00">0</text>
<polyline fill="none" stroke="black" points="0,-503.5 49.61,-503.5 "/>
<text text-anchor="middle" x="24.8" y="-486.9" font-family="Courier New" font-size="14.00">1</text>
<polyline fill="none" stroke="black" points="0,-478.7 49.61,-478.7 "/>
<text text-anchor="middle" x="24.8" y="-462.1" font-family="Courier New" font-size="14.00">2</text>
<polyline fill="none" stroke="black" points="0,-453.9 49.61,-453.9 "/>
<text text-anchor="middle" x="24.8" y="-437.3" font-family="Courier New" font-size="14.00">3</text>
<polyline fill="none" stroke="black" points="0,-429.1 49.61,-429.1 "/>
<text text-anchor="middle" x="24.8" y="-412.5" font-family="Courier New" font-size="14.00">4</text>
<polyline fill="none" stroke="black" points="0,-404.3 49.61,-404.3 "/>
<text text-anchor="middle" x="24.8" y="-387.7" font-family="Courier New" font-size="14.00">5</text>
<polyline fill="none" stroke="black" points="0,-379.5 49.61,-379.5 "/>
<text text-anchor="middle" x="24.8" y="-362.9" font-family="Courier New" font-size="14.00">6</text>
<polyline fill="none" stroke="black" points="0,-354.7 49.61,-354.7 "/>
<text text-anchor="middle" x="24.8" y="-338.1" font-family="Courier New" font-size="14.00">7</text>
<polyline fill="none" stroke="black" points="49.61,-329.9 49.61,-553.1 "/>
<text text-anchor="middle" x="330.65" y="-536.5" font-family="Courier New" font-size="14.00">type: &lt;inherited contract&gt;.variable (bytes)</text>
<polyline fill="none" stroke="black" points="49.61,-528.3 611.69,-528.3 "/>
<text text-anchor="middle" x="330.34" y="-511.7" font-family="Courier New" font-size="14.00">string: ManageOrders._iexec_result_storage_provider (32)</text>
<polyline fill="none" stroke="black" points="49.61,-503.5 611.69,-503.5 "/>
<text text-anchor="middle" x="330.24" y="-486.9" font-family="Courier New" font-size="14.00">string: ManageOrders._iexec_result_storage_proxy (32)</text>
<polyline fill="none" stroke="black" points="49.61,-478.7 611.69,-478.7 "/>
<text text-anchor="middle" x="330.53" y="-462.1" font-family="Courier New" font-size="14.00">uint256: ManageOrders._salt (32)</text>
<polyline fill="none" stroke="black" points="49.61,-453.9 611.69,-453.9 "/>
<text text-anchor="middle" x="330.33" y="-437.3" font-family="Courier New" font-size="14.00">uint256: _nextCollectionTokenId (32)</text>
<polyline fill="none" stroke="black" points="49.61,-429.1 611.69,-429.1 "/>
<text text-anchor="middle" x="330.43" y="-412.5" font-family="Courier New" font-size="14.00">mapping(address=&gt;uint256): earning (32)</text>
<polyline fill="none" stroke="black" points="49.61,-404.3 611.69,-404.3 "/>
<text text-anchor="middle" x="330.65" y="-387.7" font-family="Courier New" font-size="14.00">mapping(address=&gt;ProtectedDataDetails): protectedDataDetails (32)</text>
<polyline fill="none" stroke="black" points="49.61,-379.5 611.69,-379.5 "/>
<text text-anchor="middle" x="330.45" y="-362.9" font-family="Courier New" font-size="14.00">mapping(uint256=&gt;CollectionDetails): collectionDetails (32)</text>
<polyline fill="none" stroke="black" points="49.61,-354.7 611.69,-354.7 "/>
<text text-anchor="middle" x="330.35" y="-338.1" font-family="Courier New" font-size="14.00">mapping(address=&gt;IexecLibOrders_v5.AppOrder): _appOrders (32)</text>
</g>
<!-- 4 -->
<g id="node5" class="node">
<title>4</title>
<polygon fill="#f2f2f2" stroke="black" points="647.69,-569.7 647.69,-768.1 1635.04,-768.1 1635.04,-569.7 647.69,-569.7"/>
<text text-anchor="middle" x="1141.37" y="-751.5" font-family="Courier New" font-size="14.00">ProtectedDataDetails &lt;&lt;Struct&gt;&gt;</text>
<polyline fill="none" stroke="black" points="647.69,-743.3 1635.04,-743.3 "/>
<text text-anchor="middle" x="680.9" y="-726.7" font-family="Courier New" font-size="14.00">offset</text>
<polyline fill="none" stroke="black" points="647.69,-718.5 714.1,-718.5 "/>
<text text-anchor="middle" x="680.9" y="-701.9" font-family="Courier New" font-size="14.00">0</text>
<polyline fill="none" stroke="black" points="647.69,-693.7 714.1,-693.7 "/>
<text text-anchor="middle" x="680.9" y="-677.1" font-family="Courier New" font-size="14.00">1</text>
<polyline fill="none" stroke="black" points="647.69,-668.9 714.1,-668.9 "/>
<text text-anchor="middle" x="680.9" y="-652.3" font-family="Courier New" font-size="14.00">2</text>
<polyline fill="none" stroke="black" points="647.69,-644.1 714.1,-644.1 "/>
<text text-anchor="middle" x="680.9" y="-627.5" font-family="Courier New" font-size="14.00">3</text>
<polyline fill="none" stroke="black" points="647.69,-619.3 714.1,-619.3 "/>
<text text-anchor="middle" x="680.9" y="-602.7" font-family="Courier New" font-size="14.00">4</text>
<polyline fill="none" stroke="black" points="647.69,-594.5 714.1,-594.5 "/>
<text text-anchor="middle" x="680.9" y="-577.9" font-family="Courier New" font-size="14.00">5&#45;13</text>
<polyline fill="none" stroke="black" points="714.1,-569.7 714.1,-743.3 "/>
<text text-anchor="middle" x="1174.57" y="-726.7" font-family="Courier New" font-size="14.00">type: variable (bytes)</text>
<polyline fill="none" stroke="black" points="714.1,-718.5 1635.04,-718.5 "/>
<text text-anchor="middle" x="1174.42" y="-701.9" font-family="Courier New" font-size="14.00">uint256: collection (32)</text>
<polyline fill="none" stroke="black" points="714.1,-693.7 1635.04,-693.7 "/>
<text text-anchor="middle" x="785.11" y="-677.1" font-family="Courier New" font-size="14.00">unallocated (5)</text>
<polyline fill="none" stroke="black" points="856.12,-668.9 856.12,-693.7 "/>
<text text-anchor="middle" x="964.94" y="-677.1" font-family="Courier New" font-size="14.00">bool: inSubscription (1)</text>
<polyline fill="none" stroke="black" points="1073.76,-668.9 1073.76,-693.7 "/>
<text text-anchor="middle" x="1216.18" y="-677.1" font-family="Courier New" font-size="14.00">uint48: lastRentalExpiration (6)</text>
<polyline fill="none" stroke="black" points="1358.6,-668.9 1358.6,-693.7 "/>
<text text-anchor="middle" x="1496.82" y="-677.1" font-family="Courier New" font-size="14.00">AppWhitelist: appWhitelist (20)</text>
<polyline fill="none" stroke="black" points="714.1,-668.9 1635.04,-668.9 "/>
<text text-anchor="middle" x="1174.23" y="-652.3" font-family="Courier New" font-size="14.00">RentingParams: rentingParams (32)</text>
<polyline fill="none" stroke="black" points="714.1,-644.1 1635.04,-644.1 "/>
<text text-anchor="middle" x="1174.23" y="-627.5" font-family="Courier New" font-size="14.00">mapping(address=&gt;uint48): renters (32)</text>
<polyline fill="none" stroke="black" points="714.1,-619.3 1635.04,-619.3 "/>
<text text-anchor="middle" x="1174.23" y="-602.7" font-family="Courier New" font-size="14.00">SellingParams: sellingParams (32)</text>
<polyline fill="none" stroke="black" points="714.1,-594.5 1635.04,-594.5 "/>
<text text-anchor="middle" x="1174.14" y="-577.9" font-family="Courier New" font-size="14.00">IexecLibOrders_v5.DatasetOrder: datasetOrder (288)</text>
</g>
<!-- 8&#45;&gt;4 -->
<g id="edge1" class="edge">
<title>8:27&#45;&gt;4</title>
<path fill="none" stroke="black" d="M611.69,-391.9C642.41,-391.9 624.6,-430.65 647.69,-450.9 700.43,-497.13 764.53,-534.97 828.82,-565.39"/>
<polygon fill="black" stroke="black" points="827.35,-568.56 837.89,-569.63 830.31,-562.22 827.35,-568.56"/>
</g>
<!-- 6 -->
<g id="node7" class="node">
<title>6</title>
<polygon fill="#f2f2f2" stroke="black" points="865.33,-292.5 865.33,-441.3 1417.41,-441.3 1417.41,-292.5 865.33,-292.5"/>
<text text-anchor="middle" x="1141.37" y="-424.7" font-family="Courier New" font-size="14.00">CollectionDetails &lt;&lt;Struct&gt;&gt;</text>
<polyline fill="none" stroke="black" points="865.33,-416.5 1417.41,-416.5 "/>
<text text-anchor="middle" x="898.53" y="-399.9" font-family="Courier New" font-size="14.00">offset</text>
<polyline fill="none" stroke="black" points="865.33,-391.7 931.74,-391.7 "/>
<text text-anchor="middle" x="898.53" y="-375.1" font-family="Courier New" font-size="14.00">0</text>
<polyline fill="none" stroke="black" points="865.33,-366.9 931.74,-366.9 "/>
<text text-anchor="middle" x="898.53" y="-350.3" font-family="Courier New" font-size="14.00">1</text>
<polyline fill="none" stroke="black" points="865.33,-342.1 931.74,-342.1 "/>
<text text-anchor="middle" x="898.53" y="-325.5" font-family="Courier New" font-size="14.00">2</text>
<polyline fill="none" stroke="black" points="865.33,-317.3 931.74,-317.3 "/>
<text text-anchor="middle" x="898.53" y="-300.7" font-family="Courier New" font-size="14.00">3</text>
<polyline fill="none" stroke="black" points="931.74,-292.5 931.74,-416.5 "/>
<text text-anchor="middle" x="1174.57" y="-399.9" font-family="Courier New" font-size="14.00">type: variable (bytes)</text>
<polyline fill="none" stroke="black" points="931.74,-391.7 1417.41,-391.7 "/>
<text text-anchor="middle" x="1174.35" y="-375.1" font-family="Courier New" font-size="14.00">uint256: size (32)</text>
<polyline fill="none" stroke="black" points="931.74,-366.9 1417.41,-366.9 "/>
<text text-anchor="middle" x="1006.95" y="-350.3" font-family="Courier New" font-size="14.00">unallocated (26)</text>
<polyline fill="none" stroke="black" points="1082.16,-342.1 1082.16,-366.9 "/>
<text text-anchor="middle" x="1249.78" y="-350.3" font-family="Courier New" font-size="14.00">uint48: lastSubscriptionExpiration (6)</text>
<polyline fill="none" stroke="black" points="931.74,-342.1 1417.41,-342.1 "/>
<text text-anchor="middle" x="1174.36" y="-325.5" font-family="Courier New" font-size="14.00">SubscriptionParams: subscriptionParams (32)</text>
<polyline fill="none" stroke="black" points="931.74,-317.3 1417.41,-317.3 "/>
<text text-anchor="middle" x="1174.16" y="-300.7" font-family="Courier New" font-size="14.00">mapping(address=&gt;uint48): subscribers (32)</text>
</g>
<!-- 8&#45;&gt;6 -->
<g id="edge2" class="edge">
<title>8:34&#45;&gt;6</title>
<path fill="none" stroke="black" d="M611.69,-366.9C690.69,-366.9 776.33,-366.9 855.21,-366.9"/>
<polygon fill="black" stroke="black" points="855.29,-370.4 865.29,-366.9 855.29,-363.4 855.29,-370.4"/>
</g>
<!-- 7 -->
<g id="node8" class="node">
<title>7</title>
<polygon fill="#f2f2f2" stroke="black" points="890.53,-0.5 890.53,-273.3 1392.21,-273.3 1392.21,-0.5 890.53,-0.5"/>
<text text-anchor="middle" x="1141.37" y="-256.7" font-family="Courier New" font-size="14.00">AppOrder &lt;&lt;Struct&gt;&gt;</text>
<polyline fill="none" stroke="black" points="890.53,-248.5 1392.21,-248.5 "/>
<text text-anchor="middle" x="923.74" y="-231.9" font-family="Courier New" font-size="14.00">offset</text>
<polyline fill="none" stroke="black" points="890.53,-223.7 956.94,-223.7 "/>
<text text-anchor="middle" x="923.74" y="-207.1" font-family="Courier New" font-size="14.00">0</text>
<polyline fill="none" stroke="black" points="890.53,-198.9 956.94,-198.9 "/>
<text text-anchor="middle" x="923.74" y="-182.3" font-family="Courier New" font-size="14.00">1</text>
<polyline fill="none" stroke="black" points="890.53,-174.1 956.94,-174.1 "/>
<text text-anchor="middle" x="923.74" y="-157.5" font-family="Courier New" font-size="14.00">2</text>
<polyline fill="none" stroke="black" points="890.53,-149.3 956.94,-149.3 "/>
<text text-anchor="middle" x="923.74" y="-132.7" font-family="Courier New" font-size="14.00">3</text>
<polyline fill="none" stroke="black" points="890.53,-124.5 956.94,-124.5 "/>
<text text-anchor="middle" x="923.74" y="-107.9" font-family="Courier New" font-size="14.00">4</text>
<polyline fill="none" stroke="black" points="890.53,-99.7 956.94,-99.7 "/>
<text text-anchor="middle" x="923.74" y="-83.1" font-family="Courier New" font-size="14.00">5</text>
<polyline fill="none" stroke="black" points="890.53,-74.9 956.94,-74.9 "/>
<text text-anchor="middle" x="923.74" y="-58.3" font-family="Courier New" font-size="14.00">6</text>
<polyline fill="none" stroke="black" points="890.53,-50.1 956.94,-50.1 "/>
<text text-anchor="middle" x="923.74" y="-33.5" font-family="Courier New" font-size="14.00">7</text>
<polyline fill="none" stroke="black" points="890.53,-25.3 956.94,-25.3 "/>
<text text-anchor="middle" x="923.74" y="-8.7" font-family="Courier New" font-size="14.00">8</text>
<polyline fill="none" stroke="black" points="956.94,-0.5 956.94,-248.5 "/>
<text text-anchor="middle" x="1174.57" y="-231.9" font-family="Courier New" font-size="14.00">type: variable (bytes)</text>
<polyline fill="none" stroke="black" points="956.94,-223.7 1392.21,-223.7 "/>
<text text-anchor="middle" x="1063.65" y="-207.1" font-family="Courier New" font-size="14.00">unallocated (12)</text>
<polyline fill="none" stroke="black" points="1170.36,-198.9 1170.36,-223.7 "/>
<text text-anchor="middle" x="1281.27" y="-207.1" font-family="Courier New" font-size="14.00">address: app (20)</text>
<polyline fill="none" stroke="black" points="956.94,-198.9 1392.21,-198.9 "/>
<text text-anchor="middle" x="1174.35" y="-182.3" font-family="Courier New" font-size="14.00">uint256: appprice (32)</text>
<polyline fill="none" stroke="black" points="956.94,-174.1 1392.21,-174.1 "/>
<text text-anchor="middle" x="1174.45" y="-157.5" font-family="Courier New" font-size="14.00">uint256: volume (32)</text>
<polyline fill="none" stroke="black" points="956.94,-149.3 1392.21,-149.3 "/>
<text text-anchor="middle" x="1174.35" y="-132.7" font-family="Courier New" font-size="14.00">bytes32: tag (32)</text>
<polyline fill="none" stroke="black" points="956.94,-124.5 1392.21,-124.5 "/>
<text text-anchor="middle" x="1038.15" y="-107.9" font-family="Courier New" font-size="14.00">unallocated (12)</text>
<polyline fill="none" stroke="black" points="1119.36,-99.7 1119.36,-124.5 "/>
<text text-anchor="middle" x="1255.68" y="-107.9" font-family="Courier New" font-size="14.00">address: datasetrestrict (20)</text>
<polyline fill="none" stroke="black" points="956.94,-99.7 1392.21,-99.7 "/>
<text text-anchor="middle" x="1032.15" y="-83.1" font-family="Courier New" font-size="14.00">unallocated (12)</text>
<polyline fill="none" stroke="black" points="1107.36,-74.9 1107.36,-99.7 "/>
<text text-anchor="middle" x="1249.78" y="-83.1" font-family="Courier New" font-size="14.00">address: workerpoolrestrict (20)</text>
<polyline fill="none" stroke="black" points="956.94,-74.9 1392.21,-74.9 "/>
<text text-anchor="middle" x="1034.15" y="-58.3" font-family="Courier New" font-size="14.00">unallocated (12)</text>
<polyline fill="none" stroke="black" points="1111.36,-50.1 1111.36,-74.9 "/>
<text text-anchor="middle" x="1251.58" y="-58.3" font-family="Courier New" font-size="14.00">address: requesterrestrict (20)</text>
<polyline fill="none" stroke="black" points="956.94,-50.1 1392.21,-50.1 "/>
<text text-anchor="middle" x="1174.55" y="-33.5" font-family="Courier New" font-size="14.00">bytes32: salt (32)</text>
<polyline fill="none" stroke="black" points="956.94,-25.3 1392.21,-25.3 "/>
<text text-anchor="middle" x="1174.15" y="-8.7" font-family="Courier New" font-size="14.00">bytes: sign (32)</text>
</g>
<!-- 8&#45;&gt;7 -->
<g id="edge3" class="edge">
<title>8:44&#45;&gt;7</title>
<path fill="none" stroke="black" d="M611.69,-341.9C642.41,-341.9 623.34,-301.62 647.69,-282.9 714.89,-231.23 800.07,-197.81 880.63,-176.2"/>
<polygon fill="black" stroke="black" points="881.65,-179.55 890.43,-173.62 879.87,-172.78 881.65,-179.55"/>
</g>
<!-- 1 -->
<g id="node2" class="node">
<title>1</title>
<polygon fill="#f2f2f2" stroke="black" points="1688.25,-746.7 1688.25,-821.1 2264.73,-821.1 2264.73,-746.7 1688.25,-746.7"/>
<text text-anchor="middle" x="1976.49" y="-804.5" font-family="Courier New" font-size="14.00">RentingParams &lt;&lt;Struct&gt;&gt;</text>
<polyline fill="none" stroke="black" points="1688.25,-796.3 2264.73,-796.3 "/>
<text text-anchor="middle" x="1721.45" y="-779.7" font-family="Courier New" font-size="14.00">offset</text>
<polyline fill="none" stroke="black" points="1688.25,-771.5 1754.65,-771.5 "/>
<text text-anchor="middle" x="1721.45" y="-754.9" font-family="Courier New" font-size="14.00">0</text>
<polyline fill="none" stroke="black" points="1754.65,-746.7 1754.65,-796.3 "/>
<text text-anchor="middle" x="2009.69" y="-779.7" font-family="Courier New" font-size="14.00">type: variable (bytes)</text>
<polyline fill="none" stroke="black" points="1754.65,-771.5 2264.73,-771.5 "/>
<text text-anchor="middle" x="1829.87" y="-754.9" font-family="Courier New" font-size="14.00">unallocated (12)</text>
<polyline fill="none" stroke="black" points="1905.08,-746.7 1905.08,-771.5 "/>
<text text-anchor="middle" x="1997.09" y="-754.9" font-family="Courier New" font-size="14.00">uint48: duration (6)</text>
<polyline fill="none" stroke="black" points="2089.1,-746.7 2089.1,-771.5 "/>
<text text-anchor="middle" x="2176.92" y="-754.9" font-family="Courier New" font-size="14.00">uint112: price (14)</text>
</g>
<!-- 2 -->
<g id="node3" class="node">
<title>2</title>
<polygon fill="#f2f2f2" stroke="black" points="1692.45,-653.7 1692.45,-728.1 2260.53,-728.1 2260.53,-653.7 1692.45,-653.7"/>
<text text-anchor="middle" x="1976.49" y="-711.5" font-family="Courier New" font-size="14.00">SellingParams &lt;&lt;Struct&gt;&gt;</text>
<polyline fill="none" stroke="black" points="1692.45,-703.3 2260.53,-703.3 "/>
<text text-anchor="middle" x="1725.65" y="-686.7" font-family="Courier New" font-size="14.00">offset</text>
<polyline fill="none" stroke="black" points="1692.45,-678.5 1758.85,-678.5 "/>
<text text-anchor="middle" x="1725.65" y="-661.9" font-family="Courier New" font-size="14.00">0</text>
<polyline fill="none" stroke="black" points="1758.85,-653.7 1758.85,-703.3 "/>
<text text-anchor="middle" x="2009.69" y="-686.7" font-family="Courier New" font-size="14.00">type: variable (bytes)</text>
<polyline fill="none" stroke="black" points="1758.85,-678.5 2260.53,-678.5 "/>
<text text-anchor="middle" x="1834.07" y="-661.9" font-family="Courier New" font-size="14.00">unallocated (17)</text>
<polyline fill="none" stroke="black" points="1909.28,-653.7 1909.28,-678.5 "/>
<text text-anchor="middle" x="1997.09" y="-661.9" font-family="Courier New" font-size="14.00">uint112: price (14)</text>
<polyline fill="none" stroke="black" points="2084.9,-653.7 2084.9,-678.5 "/>
<text text-anchor="middle" x="2172.72" y="-661.9" font-family="Courier New" font-size="14.00">bool: isForSale (1)</text>
</g>
<!-- 3 -->
<g id="node4" class="node">
<title>3</title>
<polygon fill="#f2f2f2" stroke="black" points="1671.04,-361.5 1671.04,-634.3 2281.93,-634.3 2281.93,-361.5 1671.04,-361.5"/>
<text text-anchor="middle" x="1976.49" y="-617.7" font-family="Courier New" font-size="14.00">IexecLibOrders_v5.DatasetOrder &lt;&lt;Struct&gt;&gt;</text>
<polyline fill="none" stroke="black" points="1671.04,-609.5 2281.93,-609.5 "/>
<text text-anchor="middle" x="1704.25" y="-592.9" font-family="Courier New" font-size="14.00">offset</text>
<polyline fill="none" stroke="black" points="1671.04,-584.7 1737.45,-584.7 "/>
<text text-anchor="middle" x="1704.25" y="-568.1" font-family="Courier New" font-size="14.00">0</text>
<polyline fill="none" stroke="black" points="1671.04,-559.9 1737.45,-559.9 "/>
<text text-anchor="middle" x="1704.25" y="-543.3" font-family="Courier New" font-size="14.00">1</text>
<polyline fill="none" stroke="black" points="1671.04,-535.1 1737.45,-535.1 "/>
<text text-anchor="middle" x="1704.25" y="-518.5" font-family="Courier New" font-size="14.00">2</text>
<polyline fill="none" stroke="black" points="1671.04,-510.3 1737.45,-510.3 "/>
<text text-anchor="middle" x="1704.25" y="-493.7" font-family="Courier New" font-size="14.00">3</text>
<polyline fill="none" stroke="black" points="1671.04,-485.5 1737.45,-485.5 "/>
<text text-anchor="middle" x="1704.25" y="-468.9" font-family="Courier New" font-size="14.00">4</text>
<polyline fill="none" stroke="black" points="1671.04,-460.7 1737.45,-460.7 "/>
<text text-anchor="middle" x="1704.25" y="-444.1" font-family="Courier New" font-size="14.00">5</text>
<polyline fill="none" stroke="black" points="1671.04,-435.9 1737.45,-435.9 "/>
<text text-anchor="middle" x="1704.25" y="-419.3" font-family="Courier New" font-size="14.00">6</text>
<polyline fill="none" stroke="black" points="1671.04,-411.1 1737.45,-411.1 "/>
<text text-anchor="middle" x="1704.25" y="-394.5" font-family="Courier New" font-size="14.00">7</text>
<polyline fill="none" stroke="black" points="1671.04,-386.3 1737.45,-386.3 "/>
<text text-anchor="middle" x="1704.25" y="-369.7" font-family="Courier New" font-size="14.00">8</text>
<polyline fill="none" stroke="black" points="1737.45,-361.5 1737.45,-609.5 "/>
<text text-anchor="middle" x="2009.69" y="-592.9" font-family="Courier New" font-size="14.00">type: variable (bytes)</text>
<polyline fill="none" stroke="black" points="1737.45,-584.7 2281.93,-584.7 "/>
<text text-anchor="middle" x="1835.66" y="-568.1" font-family="Courier New" font-size="14.00">unallocated (12)</text>
<polyline fill="none" stroke="black" points="1933.87,-559.9 1933.87,-584.7 "/>
<text text-anchor="middle" x="2107.7" y="-568.1" font-family="Courier New" font-size="14.00">address: DatasetOrder.dataset (20)</text>
<polyline fill="none" stroke="black" points="1737.45,-559.9 2281.93,-559.9 "/>
<text text-anchor="middle" x="2009.28" y="-543.3" font-family="Courier New" font-size="14.00">uint256: DatasetOrder.datasetprice (32)</text>
<polyline fill="none" stroke="black" points="1737.45,-535.1 2281.93,-535.1 "/>
<text text-anchor="middle" x="2009.57" y="-518.5" font-family="Courier New" font-size="14.00">uint256: DatasetOrder.volume (32)</text>
<polyline fill="none" stroke="black" points="1737.45,-510.3 2281.93,-510.3 "/>
<text text-anchor="middle" x="2009.47" y="-493.7" font-family="Courier New" font-size="14.00">bytes32: DatasetOrder.tag (32)</text>
<polyline fill="none" stroke="black" points="1737.45,-485.5 2281.93,-485.5 "/>
<text text-anchor="middle" x="1827.16" y="-468.9" font-family="Courier New" font-size="14.00">unallocated (12)</text>
<polyline fill="none" stroke="black" points="1916.87,-460.7 1916.87,-485.5 "/>
<text text-anchor="middle" x="2099" y="-468.9" font-family="Courier New" font-size="14.00">address: DatasetOrder.apprestrict (20)</text>
<polyline fill="none" stroke="black" points="1737.45,-460.7 2281.93,-460.7 "/>
<text text-anchor="middle" x="1812.66" y="-444.1" font-family="Courier New" font-size="14.00">unallocated (12)</text>
<polyline fill="none" stroke="black" points="1887.87,-435.9 1887.87,-460.7 "/>
<text text-anchor="middle" x="2084.9" y="-444.1" font-family="Courier New" font-size="14.00">address: DatasetOrder.workerpoolrestrict (20)</text>
<polyline fill="none" stroke="black" points="1737.45,-435.9 2281.93,-435.9 "/>
<text text-anchor="middle" x="1814.66" y="-419.3" font-family="Courier New" font-size="14.00">unallocated (12)</text>
<polyline fill="none" stroke="black" points="1891.87,-411.1 1891.87,-435.9 "/>
<text text-anchor="middle" x="2086.7" y="-419.3" font-family="Courier New" font-size="14.00">address: DatasetOrder.requesterrestrict (20)</text>
<polyline fill="none" stroke="black" points="1737.45,-411.1 2281.93,-411.1 "/>
<text text-anchor="middle" x="2009.67" y="-394.5" font-family="Courier New" font-size="14.00">bytes32: DatasetOrder.salt (32)</text>
<polyline fill="none" stroke="black" points="1737.45,-386.3 2281.93,-386.3 "/>
<text text-anchor="middle" x="2009.27" y="-369.7" font-family="Courier New" font-size="14.00">bytes: DatasetOrder.sign (32)</text>
</g>
<!-- 4&#45;&gt;1 -->
<g id="edge4" class="edge">
<title>4:12&#45;&gt;1</title>
<path fill="none" stroke="black" d="M1635.04,-656.9C1674.44,-656.9 1639.71,-714.02 1671.04,-737.9 1673.75,-739.97 1676.52,-741.96 1679.33,-743.88"/>
<polygon fill="black" stroke="black" points="1677.62,-746.94 1687.91,-749.42 1681.41,-741.06 1677.62,-746.94"/>
</g>
<!-- 4&#45;&gt;2 -->
<g id="edge5" class="edge">
<title>4:16&#45;&gt;2</title>
<path fill="none" stroke="black" d="M1635.04,-606.9C1657.99,-606.9 1650.65,-633.38 1671.04,-643.9 1674.92,-645.9 1678.86,-647.82 1682.85,-649.66"/>
<polygon fill="black" stroke="black" points="1681.7,-652.98 1692.26,-653.82 1684.53,-646.58 1681.7,-652.98"/>
</g>
<!-- 4&#45;&gt;3 -->
<g id="edge6" class="edge">
<title>4:26&#45;&gt;3</title>
<path fill="none" stroke="black" d="M1635.04,-581.9C1643.46,-581.9 1651.97,-581.65 1660.53,-581.19"/>
<polygon fill="black" stroke="black" points="1660.84,-584.68 1670.6,-580.55 1660.39,-577.69 1660.84,-584.68"/>
</g>
<!-- 5 -->
<g id="node6" class="node">
<title>5</title>
<polygon fill="#f2f2f2" stroke="black" points="1688.25,-267.7 1688.25,-342.1 2264.73,-342.1 2264.73,-267.7 1688.25,-267.7"/>
<text text-anchor="middle" x="1976.49" y="-325.5" font-family="Courier New" font-size="14.00">SubscriptionParams &lt;&lt;Struct&gt;&gt;</text>
<polyline fill="none" stroke="black" points="1688.25,-317.3 2264.73,-317.3 "/>
<text text-anchor="middle" x="1721.45" y="-300.7" font-family="Courier New" font-size="14.00">offset</text>
<polyline fill="none" stroke="black" points="1688.25,-292.5 1754.65,-292.5 "/>
<text text-anchor="middle" x="1721.45" y="-275.9" font-family="Courier New" font-size="14.00">0</text>
<polyline fill="none" stroke="black" points="1754.65,-267.7 1754.65,-317.3 "/>
<text text-anchor="middle" x="2009.69" y="-300.7" font-family="Courier New" font-size="14.00">type: variable (bytes)</text>
<polyline fill="none" stroke="black" points="1754.65,-292.5 2264.73,-292.5 "/>
<text text-anchor="middle" x="1829.87" y="-275.9" font-family="Courier New" font-size="14.00">unallocated (12)</text>
<polyline fill="none" stroke="black" points="1905.08,-267.7 1905.08,-292.5 "/>
<text text-anchor="middle" x="1997.09" y="-275.9" font-family="Courier New" font-size="14.00">uint48: duration (6)</text>
<polyline fill="none" stroke="black" points="2089.1,-267.7 2089.1,-292.5 "/>
<text text-anchor="middle" x="2176.92" y="-275.9" font-family="Courier New" font-size="14.00">uint112: price (14)</text>
</g>
<!-- 6&#45;&gt;5 -->
<g id="edge7" class="edge">
<title>6:32&#45;&gt;5</title>
<path fill="none" stroke="black" d="M1418.37,-329.9C1502.68,-329.9 1594.1,-327.01 1678.04,-323.19"/>
<polygon fill="black" stroke="black" points="1678.41,-326.68 1688.24,-322.72 1678.09,-319.68 1678.41,-326.68"/>
</g>
</g>
</svg>
