<?xml version="1.0" encoding="UTF-8" standalone="no"?>
<!DOCTYPE svg PUBLIC "-//W3C//DTD SVG 1.1//EN"
 "http://www.w3.org/Graphics/SVG/1.1/DTD/svg11.dtd">
<!-- Generated by graphviz version 5.0.0 (20220707.1540)
 -->
<!-- Title: StorageDiagram Pages: 1 -->
<svg width="1350pt" height="474pt"
 viewBox="0.00 0.00 1349.80 474.00" xmlns="http://www.w3.org/2000/svg" xmlns:xlink="http://www.w3.org/1999/xlink">
<g id="graph0" class="graph" transform="scale(1 1) rotate(0) translate(4 470)">
<title>StorageDiagram</title>
<polygon fill="white" stroke="transparent" points="-4,4 -4,-470 1345.8,-470 1345.8,4 -4,4"/>
<!-- 4 -->
<g id="node1" class="node">
<title>4</title>
<polygon fill="#f2f2f2" stroke="black" points="0,-43.9 0,-465.5 729.31,-465.5 729.31,-43.9 0,-43.9"/>
<text text-anchor="middle" x="364.66" y="-448.9" font-family="Courier New" font-size="14.00">ProtectedDataSharing &lt;&lt;Contract&gt;&gt;</text>
<polyline fill="none" stroke="black" points="0,-440.7 729.31,-440.7 "/>
<text text-anchor="middle" x="24.8" y="-424.1" font-family="Courier New" font-size="14.00">slot</text>
<polyline fill="none" stroke="black" points="0,-415.9 49.61,-415.9 "/>
<text text-anchor="middle" x="24.8" y="-399.3" font-family="Courier New" font-size="14.00">0</text>
<polyline fill="none" stroke="black" points="0,-391.1 49.61,-391.1 "/>
<text text-anchor="middle" x="24.8" y="-374.5" font-family="Courier New" font-size="14.00">1</text>
<polyline fill="none" stroke="black" points="0,-366.3 49.61,-366.3 "/>
<text text-anchor="middle" x="24.8" y="-349.7" font-family="Courier New" font-size="14.00">2</text>
<polyline fill="none" stroke="black" points="0,-341.5 49.61,-341.5 "/>
<text text-anchor="middle" x="24.8" y="-324.9" font-family="Courier New" font-size="14.00">3</text>
<polyline fill="none" stroke="black" points="0,-316.7 49.61,-316.7 "/>
<text text-anchor="middle" x="24.8" y="-300.1" font-family="Courier New" font-size="14.00">4</text>
<polyline fill="none" stroke="black" points="0,-291.9 49.61,-291.9 "/>
<text text-anchor="middle" x="24.8" y="-275.3" font-family="Courier New" font-size="14.00">5</text>
<polyline fill="none" stroke="black" points="0,-267.1 49.61,-267.1 "/>
<text text-anchor="middle" x="24.8" y="-250.5" font-family="Courier New" font-size="14.00">6</text>
<polyline fill="none" stroke="black" points="0,-242.3 49.61,-242.3 "/>
<text text-anchor="middle" x="24.8" y="-225.7" font-family="Courier New" font-size="14.00">7</text>
<polyline fill="none" stroke="black" points="0,-217.5 49.61,-217.5 "/>
<text text-anchor="middle" x="24.8" y="-200.9" font-family="Courier New" font-size="14.00">8</text>
<polyline fill="none" stroke="black" points="0,-192.7 49.61,-192.7 "/>
<text text-anchor="middle" x="24.8" y="-176.1" font-family="Courier New" font-size="14.00">9</text>
<polyline fill="none" stroke="black" points="0,-167.9 49.61,-167.9 "/>
<text text-anchor="middle" x="24.8" y="-151.3" font-family="Courier New" font-size="14.00">10</text>
<polyline fill="none" stroke="black" points="0,-143.1 49.61,-143.1 "/>
<text text-anchor="middle" x="24.8" y="-126.5" font-family="Courier New" font-size="14.00">11</text>
<polyline fill="none" stroke="black" points="0,-118.3 49.61,-118.3 "/>
<text text-anchor="middle" x="24.8" y="-101.7" font-family="Courier New" font-size="14.00">12</text>
<polyline fill="none" stroke="black" points="0,-93.5 49.61,-93.5 "/>
<text text-anchor="middle" x="24.8" y="-76.9" font-family="Courier New" font-size="14.00">13</text>
<polyline fill="none" stroke="black" points="0,-68.7 49.61,-68.7 "/>
<text text-anchor="middle" x="24.8" y="-52.1" font-family="Courier New" font-size="14.00">14</text>
<polyline fill="none" stroke="black" points="49.61,-43.9 49.61,-440.7 "/>
<text text-anchor="middle" x="389.46" y="-424.1" font-family="Courier New" font-size="14.00">type: &lt;inherited contract&gt;.variable (bytes)</text>
<polyline fill="none" stroke="black" points="49.61,-415.9 729.31,-415.9 "/>
<text text-anchor="middle" x="389.14" y="-399.3" font-family="Courier New" font-size="14.00">string: ManageOrders.iexec_result_storage_provider (32)</text>
<polyline fill="none" stroke="black" points="49.61,-391.1 729.31,-391.1 "/>
<text text-anchor="middle" x="389.04" y="-374.5" font-family="Courier New" font-size="14.00">string: ManageOrders.iexec_result_storage_proxy (32)</text>
<polyline fill="none" stroke="black" points="49.61,-366.3 729.31,-366.3 "/>
<text text-anchor="middle" x="389.33" y="-349.7" font-family="Courier New" font-size="14.00">uint256: _nextCollectionTokenId (32)</text>
<polyline fill="none" stroke="black" points="49.61,-341.5 729.31,-341.5 "/>
<text text-anchor="middle" x="389.45" y="-324.9" font-family="Courier New" font-size="14.00">mapping(uint256=&gt;mapping(uint160=&gt;address)): protectedDatas (32)</text>
<polyline fill="none" stroke="black" points="49.61,-316.7 729.31,-316.7 "/>
<text text-anchor="middle" x="389.45" y="-300.1" font-family="Courier New" font-size="14.00">mapping(uint256=&gt;mapping(address=&gt;address)): appForProtectedData (32)</text>
<polyline fill="none" stroke="black" points="49.61,-291.9 729.31,-291.9 "/>
<text text-anchor="middle" x="389.04" y="-275.3" font-family="Courier New" font-size="14.00">mapping(uint256=&gt;uint256): protectedDataInCollection (32)</text>
<polyline fill="none" stroke="black" points="49.61,-267.1 729.31,-267.1 "/>
<text text-anchor="middle" x="389.13" y="-250.5" font-family="Courier New" font-size="14.00">mapping(address=&gt;uint256): balances (32)</text>
<polyline fill="none" stroke="black" points="49.61,-242.3 729.31,-242.3 "/>
<text text-anchor="middle" x="389.46" y="-225.7" font-family="Courier New" font-size="14.00">mapping(uint256=&gt;mapping(address=&gt;bool)): protectedDataInSubscription (32)</text>
<polyline fill="none" stroke="black" points="49.61,-217.5 729.31,-217.5 "/>
<text text-anchor="middle" x="389.15" y="-200.9" font-family="Courier New" font-size="14.00">mapping(uint256=&gt;mapping(address=&gt;uint48)): subscribers (32)</text>
<polyline fill="none" stroke="black" points="49.61,-192.7 729.31,-192.7 "/>
<text text-anchor="middle" x="389.35" y="-176.1" font-family="Courier New" font-size="14.00">mapping(uint256=&gt;SubscriptionParams): subscriptionParams (32)</text>
<polyline fill="none" stroke="black" points="49.61,-167.9 729.31,-167.9 "/>
<text text-anchor="middle" x="389.04" y="-151.3" font-family="Courier New" font-size="14.00">mapping(uint256=&gt;uint48): lastSubscriptionExpiration (32)</text>
<polyline fill="none" stroke="black" points="49.61,-143.1 729.31,-143.1 "/>
<text text-anchor="middle" x="389.46" y="-126.5" font-family="Courier New" font-size="14.00">mapping(uint256=&gt;mapping(address=&gt;RentingParams)): protectedDataForRenting (32)</text>
<polyline fill="none" stroke="black" points="49.61,-118.3 729.31,-118.3 "/>
<text text-anchor="middle" x="389.34" y="-101.7" font-family="Courier New" font-size="14.00">mapping(address=&gt;mapping(address=&gt;uint48)): renters (32)</text>
<polyline fill="none" stroke="black" points="49.61,-93.5 729.31,-93.5 "/>
<text text-anchor="middle" x="389.34" y="-76.9" font-family="Courier New" font-size="14.00">mapping(address=&gt;uint48): lastRentalExpiration (32)</text>
<polyline fill="none" stroke="black" points="49.61,-68.7 729.31,-68.7 "/>
<text text-anchor="middle" x="389.36" y="-52.1" font-family="Courier New" font-size="14.00">mapping(uint256=&gt;mapping(address=&gt;SellingParams)): protectedDataForSale (32)</text>
</g>
<!-- 1 -->
<g id="node2" class="node">
<title>1</title>
<polygon fill="#f2f2f2" stroke="black" points="765.31,-186.5 765.31,-260.9 1341.8,-260.9 1341.8,-186.5 765.31,-186.5"/>
<text text-anchor="middle" x="1053.56" y="-244.3" font-family="Courier New" font-size="14.00">SubscriptionParams &lt;&lt;Struct&gt;&gt;</text>
<polyline fill="none" stroke="black" points="765.31,-236.1 1341.8,-236.1 "/>
<text text-anchor="middle" x="798.52" y="-219.5" font-family="Courier New" font-size="14.00">offset</text>
<polyline fill="none" stroke="black" points="765.31,-211.3 831.72,-211.3 "/>
<text text-anchor="middle" x="798.52" y="-194.7" font-family="Courier New" font-size="14.00">0</text>
<polyline fill="none" stroke="black" points="831.72,-186.5 831.72,-236.1 "/>
<text text-anchor="middle" x="1086.76" y="-219.5" font-family="Courier New" font-size="14.00">type: variable (bytes)</text>
<polyline fill="none" stroke="black" points="831.72,-211.3 1341.8,-211.3 "/>
<text text-anchor="middle" x="906.93" y="-194.7" font-family="Courier New" font-size="14.00">unallocated (12)</text>
<polyline fill="none" stroke="black" points="982.14,-186.5 982.14,-211.3 "/>
<text text-anchor="middle" x="1074.16" y="-194.7" font-family="Courier New" font-size="14.00">uint48: duration (6)</text>
<polyline fill="none" stroke="black" points="1166.17,-186.5 1166.17,-211.3 "/>
<text text-anchor="middle" x="1253.98" y="-194.7" font-family="Courier New" font-size="14.00">uint112: price (14)</text>
</g>
<!-- 4&#45;&gt;1 -->
<g id="edge1" class="edge">
<title>4:12&#45;&gt;1</title>
<path fill="none" stroke="black" d="M729.31,-180.7C759.45,-180.7 791.04,-182.56 822.16,-185.51"/>
<polygon fill="black" stroke="black" points="821.95,-189 832.25,-186.5 822.64,-182.04 821.95,-189"/>
</g>
<!-- 2 -->
<g id="node3" class="node">
<title>2</title>
<polygon fill="#f2f2f2" stroke="black" points="765.31,-93.5 765.31,-167.9 1341.8,-167.9 1341.8,-93.5 765.31,-93.5"/>
<text text-anchor="middle" x="1053.56" y="-151.3" font-family="Courier New" font-size="14.00">RentingParams &lt;&lt;Struct&gt;&gt;</text>
<polyline fill="none" stroke="black" points="765.31,-143.1 1341.8,-143.1 "/>
<text text-anchor="middle" x="798.52" y="-126.5" font-family="Courier New" font-size="14.00">offset</text>
<polyline fill="none" stroke="black" points="765.31,-118.3 831.72,-118.3 "/>
<text text-anchor="middle" x="798.52" y="-101.7" font-family="Courier New" font-size="14.00">0</text>
<polyline fill="none" stroke="black" points="831.72,-93.5 831.72,-143.1 "/>
<text text-anchor="middle" x="1086.76" y="-126.5" font-family="Courier New" font-size="14.00">type: variable (bytes)</text>
<polyline fill="none" stroke="black" points="831.72,-118.3 1341.8,-118.3 "/>
<text text-anchor="middle" x="906.93" y="-101.7" font-family="Courier New" font-size="14.00">unallocated (12)</text>
<polyline fill="none" stroke="black" points="982.14,-93.5 982.14,-118.3 "/>
<text text-anchor="middle" x="1074.16" y="-101.7" font-family="Courier New" font-size="14.00">uint48: duration (6)</text>
<polyline fill="none" stroke="black" points="1166.17,-93.5 1166.17,-118.3 "/>
<text text-anchor="middle" x="1253.98" y="-101.7" font-family="Courier New" font-size="14.00">uint112: price (14)</text>
</g>
<!-- 4&#45;&gt;2 -->
<g id="edge2" class="edge">
<title>4:16&#45;&gt;2</title>
<path fill="none" stroke="black" d="M729.31,-130.7C737.78,-130.7 746.38,-130.7 755.05,-130.7"/>
<polygon fill="black" stroke="black" points="755.27,-134.2 765.27,-130.7 755.27,-127.2 755.27,-134.2"/>
</g>
<!-- 3 -->
<g id="node4" class="node">
<title>3</title>
<polygon fill="#f2f2f2" stroke="black" points="769.51,-0.5 769.51,-74.9 1337.6,-74.9 1337.6,-0.5 769.51,-0.5"/>
<text text-anchor="middle" x="1053.56" y="-58.3" font-family="Courier New" font-size="14.00">SellingParams &lt;&lt;Struct&gt;&gt;</text>
<polyline fill="none" stroke="black" points="769.51,-50.1 1337.6,-50.1 "/>
<text text-anchor="middle" x="802.72" y="-33.5" font-family="Courier New" font-size="14.00">offset</text>
<polyline fill="none" stroke="black" points="769.51,-25.3 835.92,-25.3 "/>
<text text-anchor="middle" x="802.72" y="-8.7" font-family="Courier New" font-size="14.00">0</text>
<polyline fill="none" stroke="black" points="835.92,-0.5 835.92,-50.1 "/>
<text text-anchor="middle" x="1086.76" y="-33.5" font-family="Courier New" font-size="14.00">type: variable (bytes)</text>
<polyline fill="none" stroke="black" points="835.92,-25.3 1337.6,-25.3 "/>
<text text-anchor="middle" x="911.13" y="-8.7" font-family="Courier New" font-size="14.00">unallocated (17)</text>
<polyline fill="none" stroke="black" points="986.34,-0.5 986.34,-25.3 "/>
<text text-anchor="middle" x="1074.16" y="-8.7" font-family="Courier New" font-size="14.00">uint112: price (14)</text>
<polyline fill="none" stroke="black" points="1161.97,-0.5 1161.97,-25.3 "/>
<text text-anchor="middle" x="1249.78" y="-8.7" font-family="Courier New" font-size="14.00">bool: isForSale (1)</text>
</g>
<!-- 4&#45;&gt;3 -->
<g id="edge3" class="edge">
<title>4:21&#45;&gt;3</title>
<path fill="none" stroke="black" d="M729.31,-56.7C739.12,-56.7 749.08,-56.61 759.15,-56.45"/>
<polygon fill="black" stroke="black" points="759.31,-59.95 769.24,-56.26 759.18,-52.95 759.31,-59.95"/>
</g>
</g>
</svg>
