<?xml version="1.0" encoding="UTF-8" standalone="no"?>
<!DOCTYPE svg PUBLIC "-//W3C//DTD SVG 1.1//EN"
 "http://www.w3.org/Graphics/SVG/1.1/DTD/svg11.dtd">
<!-- Generated by graphviz version 5.0.0 (20220707.1540)
 -->
<!-- Title: StorageDiagram Pages: 1 -->
<svg width="1417pt" height="505pt"
 viewBox="0.00 0.00 1417.01 504.80" xmlns="http://www.w3.org/2000/svg" xmlns:xlink="http://www.w3.org/1999/xlink">
<g id="graph0" class="graph" transform="scale(1 1) rotate(0) translate(4 500.8)">
<title>StorageDiagram</title>
<polygon fill="white" stroke="transparent" points="-4,4 -4,-500.8 1413.01,-500.8 1413.01,4 -4,4"/>
<!-- 2 -->
<g id="node1" class="node">
<title>2</title>
<polygon fill="#f2f2f2" stroke="black" points="0,-25.1 0,-496.3 796.52,-496.3 796.52,-25.1 0,-25.1"/>
<text text-anchor="middle" x="398.26" y="-479.7" font-family="Courier New" font-size="14.00">ProtectedDataSharing &lt;&lt;Contract&gt;&gt;</text>
<polyline fill="none" stroke="black" points="0,-471.5 796.52,-471.5 "/>
<text text-anchor="middle" x="24.8" y="-454.9" font-family="Courier New" font-size="14.00">slot</text>
<polyline fill="none" stroke="black" points="0,-446.7 49.61,-446.7 "/>
<text text-anchor="middle" x="24.8" y="-430.1" font-family="Courier New" font-size="14.00">0</text>
<polyline fill="none" stroke="black" points="0,-421.9 49.61,-421.9 "/>
<text text-anchor="middle" x="24.8" y="-405.3" font-family="Courier New" font-size="14.00">1</text>
<polyline fill="none" stroke="black" points="0,-397.1 49.61,-397.1 "/>
<text text-anchor="middle" x="24.8" y="-380.5" font-family="Courier New" font-size="14.00">2</text>
<polyline fill="none" stroke="black" points="0,-372.3 49.61,-372.3 "/>
<text text-anchor="middle" x="24.8" y="-355.7" font-family="Courier New" font-size="14.00">3</text>
<polyline fill="none" stroke="black" points="0,-347.5 49.61,-347.5 "/>
<text text-anchor="middle" x="24.8" y="-330.9" font-family="Courier New" font-size="14.00">4</text>
<polyline fill="none" stroke="black" points="0,-322.7 49.61,-322.7 "/>
<text text-anchor="middle" x="24.8" y="-306.1" font-family="Courier New" font-size="14.00">5</text>
<polyline fill="none" stroke="black" points="0,-297.9 49.61,-297.9 "/>
<text text-anchor="middle" x="24.8" y="-281.3" font-family="Courier New" font-size="14.00">6</text>
<polyline fill="none" stroke="black" points="0,-273.1 49.61,-273.1 "/>
<text text-anchor="middle" x="24.8" y="-256.5" font-family="Courier New" font-size="14.00">7</text>
<polyline fill="none" stroke="black" points="0,-248.3 49.61,-248.3 "/>
<text text-anchor="middle" x="24.8" y="-231.7" font-family="Courier New" font-size="14.00">8</text>
<polyline fill="none" stroke="black" points="0,-223.5 49.61,-223.5 "/>
<text text-anchor="middle" x="24.8" y="-206.9" font-family="Courier New" font-size="14.00">9</text>
<polyline fill="none" stroke="black" points="0,-198.7 49.61,-198.7 "/>
<text text-anchor="middle" x="24.8" y="-182.1" font-family="Courier New" font-size="14.00">10</text>
<polyline fill="none" stroke="black" points="0,-173.9 49.61,-173.9 "/>
<text text-anchor="middle" x="24.8" y="-157.3" font-family="Courier New" font-size="14.00">11</text>
<polyline fill="none" stroke="black" points="0,-149.1 49.61,-149.1 "/>
<text text-anchor="middle" x="24.8" y="-132.5" font-family="Courier New" font-size="14.00">12</text>
<polyline fill="none" stroke="black" points="0,-124.3 49.61,-124.3 "/>
<text text-anchor="middle" x="24.8" y="-107.7" font-family="Courier New" font-size="14.00">13</text>
<polyline fill="none" stroke="black" points="0,-99.5 49.61,-99.5 "/>
<text text-anchor="middle" x="24.8" y="-82.9" font-family="Courier New" font-size="14.00">14</text>
<polyline fill="none" stroke="black" points="0,-74.7 49.61,-74.7 "/>
<text text-anchor="middle" x="24.8" y="-58.1" font-family="Courier New" font-size="14.00">15</text>
<polyline fill="none" stroke="black" points="0,-49.9 49.61,-49.9 "/>
<text text-anchor="middle" x="24.8" y="-33.3" font-family="Courier New" font-size="14.00">16</text>
<polyline fill="none" stroke="black" points="49.61,-25.1 49.61,-471.5 "/>
<text text-anchor="middle" x="423.06" y="-454.9" font-family="Courier New" font-size="14.00">type: &lt;inherited contract&gt;.variable (bytes)</text>
<polyline fill="none" stroke="black" points="49.61,-446.7 796.52,-446.7 "/>
<text text-anchor="middle" x="210.82" y="-430.1" font-family="Courier New" font-size="14.00">unallocated (12)</text>
<polyline fill="none" stroke="black" points="372.03,-421.9 372.03,-446.7 "/>
<text text-anchor="middle" x="584.15" y="-430.1" font-family="Courier New" font-size="14.00">address: Ownable._owner (20)</text>
<polyline fill="none" stroke="black" points="49.61,-421.9 796.52,-421.9 "/>
<text text-anchor="middle" x="191.82" y="-405.3" font-family="Courier New" font-size="14.00">unallocated (12)</text>
<polyline fill="none" stroke="black" points="334.03,-397.1 334.03,-421.9 "/>
<text text-anchor="middle" x="564.95" y="-405.3" font-family="Courier New" font-size="14.00">address: ManageOrders.appAddress (20)</text>
<polyline fill="none" stroke="black" points="49.61,-397.1 796.52,-397.1 "/>
<text text-anchor="middle" x="422.73" y="-380.5" font-family="Courier New" font-size="14.00">bytes: ManageOrders.nullSign (32)</text>
<polyline fill="none" stroke="black" points="49.61,-372.3 796.52,-372.3 "/>
<text text-anchor="middle" x="422.64" y="-355.7" font-family="Courier New" font-size="14.00">string: ManageOrders.iexec_result_storage_provider (32)</text>
<polyline fill="none" stroke="black" points="49.61,-347.5 796.52,-347.5 "/>
<text text-anchor="middle" x="423.04" y="-330.9" font-family="Courier New" font-size="14.00">string: ManageOrders.iexec_result_storage_proxy (32)</text>
<polyline fill="none" stroke="black" points="49.61,-322.7 796.52,-322.7 "/>
<text text-anchor="middle" x="422.83" y="-306.1" font-family="Courier New" font-size="14.00">string: ManageOrders.iexec_args (32)</text>
<polyline fill="none" stroke="black" points="49.61,-297.9 796.52,-297.9 "/>
<text text-anchor="middle" x="422.62" y="-281.3" font-family="Courier New" font-size="14.00">string: ERC721._name (32)</text>
<polyline fill="none" stroke="black" points="49.61,-273.1 796.52,-273.1 "/>
<text text-anchor="middle" x="423.02" y="-256.5" font-family="Courier New" font-size="14.00">string: ERC721._symbol (32)</text>
<polyline fill="none" stroke="black" points="49.61,-248.3 796.52,-248.3 "/>
<text text-anchor="middle" x="422.84" y="-231.7" font-family="Courier New" font-size="14.00">mapping(uint256=&gt;address): ERC721._owners (32)</text>
<polyline fill="none" stroke="black" points="49.61,-223.5 796.52,-223.5 "/>
<text text-anchor="middle" x="422.74" y="-206.9" font-family="Courier New" font-size="14.00">mapping(address=&gt;uint256): ERC721._balances (32)</text>
<polyline fill="none" stroke="black" points="49.61,-198.7 796.52,-198.7 "/>
<text text-anchor="middle" x="422.94" y="-182.1" font-family="Courier New" font-size="14.00">mapping(uint256=&gt;address): ERC721._tokenApprovals (32)</text>
<polyline fill="none" stroke="black" points="49.61,-173.9 796.52,-173.9 "/>
<text text-anchor="middle" x="423.05" y="-157.3" font-family="Courier New" font-size="14.00">mapping(address=&gt;mapping(address=&gt;bool)): ERC721._operatorApprovals (32)</text>
<polyline fill="none" stroke="black" points="49.61,-149.1 796.52,-149.1 "/>
<text text-anchor="middle" x="423.03" y="-132.5" font-family="Courier New" font-size="14.00">uint256: Collection._nextCollectionId (32)</text>
<polyline fill="none" stroke="black" points="49.61,-124.3 796.52,-124.3 "/>
<text text-anchor="middle" x="422.66" y="-107.7" font-family="Courier New" font-size="14.00">mapping(uint256=&gt;mapping(uint160=&gt;address)): Collection.protectedDatas (32)</text>
<polyline fill="none" stroke="black" points="49.61,-99.5 796.52,-99.5 "/>
<text text-anchor="middle" x="423.06" y="-82.9" font-family="Courier New" font-size="14.00">mapping(uint256=&gt;mapping(address=&gt;bool)): Subscription.protectedDataInSubscription (32)</text>
<polyline fill="none" stroke="black" points="49.61,-74.7 796.52,-74.7 "/>
<text text-anchor="middle" x="422.76" y="-58.1" font-family="Courier New" font-size="14.00">mapping(uint256=&gt;mapping(address=&gt;uint48)): Subscription.subscribers (32)</text>
<polyline fill="none" stroke="black" points="49.61,-49.9 796.52,-49.9 "/>
<text text-anchor="middle" x="422.96" y="-33.3" font-family="Courier New" font-size="14.00">mapping(uint256=&gt;SubscriptionParams): Subscription.subscriptionParams (32)</text>
</g>
<!-- 1 -->
<g id="node2" class="node">
<title>1</title>
<polygon fill="#f2f2f2" stroke="black" points="832.52,-0.5 832.52,-74.9 1409.01,-74.9 1409.01,-0.5 832.52,-0.5"/>
<text text-anchor="middle" x="1120.77" y="-58.3" font-family="Courier New" font-size="14.00">SubscriptionParams &lt;&lt;Struct&gt;&gt;</text>
<polyline fill="none" stroke="black" points="832.52,-50.1 1409.01,-50.1 "/>
<text text-anchor="middle" x="865.73" y="-33.5" font-family="Courier New" font-size="14.00">offset</text>
<polyline fill="none" stroke="black" points="832.52,-25.3 898.93,-25.3 "/>
<text text-anchor="middle" x="865.73" y="-8.7" font-family="Courier New" font-size="14.00">0</text>
<polyline fill="none" stroke="black" points="898.93,-0.5 898.93,-50.1 "/>
<text text-anchor="middle" x="1153.97" y="-33.5" font-family="Courier New" font-size="14.00">type: variable (bytes)</text>
<polyline fill="none" stroke="black" points="898.93,-25.3 1409.01,-25.3 "/>
<text text-anchor="middle" x="974.14" y="-8.7" font-family="Courier New" font-size="14.00">unallocated (14)</text>
<polyline fill="none" stroke="black" points="1049.35,-0.5 1049.35,-25.3 "/>
<text text-anchor="middle" x="1141.37" y="-8.7" font-family="Courier New" font-size="14.00">uint32: duration (4)</text>
<polyline fill="none" stroke="black" points="1233.38,-0.5 1233.38,-25.3 "/>
<text text-anchor="middle" x="1321.19" y="-8.7" font-family="Courier New" font-size="14.00">uint112: price (14)</text>
</g>
<!-- 2&#45;&gt;1 -->
<g id="edge1" class="edge">
<title>2:19&#45;&gt;1</title>
<path fill="none" stroke="black" d="M796.52,-37.7C804.99,-37.7 813.59,-37.7 822.27,-37.7"/>
<polygon fill="black" stroke="black" points="822.49,-41.2 832.49,-37.7 822.49,-34.2 822.49,-41.2"/>
</g>
</g>
</svg>
