<?xml version="1.0" encoding="UTF-8" standalone="no"?>
<!DOCTYPE svg PUBLIC "-//W3C//DTD SVG 1.1//EN"
 "http://www.w3.org/Graphics/SVG/1.1/DTD/svg11.dtd">
<!-- Generated by graphviz version 5.0.0 (20220707.1540)
 -->
<!-- Title: StorageDiagram Pages: 1 -->
<svg width="999pt" height="467pt"
 viewBox="0.00 0.00 998.54 467.40" xmlns="http://www.w3.org/2000/svg" xmlns:xlink="http://www.w3.org/1999/xlink">
<g id="graph0" class="graph" transform="scale(1 1) rotate(0) translate(4 463.4)">
<title>StorageDiagram</title>
<polygon fill="white" stroke="transparent" points="-4,4 -4,-463.4 994.54,-463.4 994.54,4 -4,4"/>
<!-- 2 -->
<g id="node1" class="node">
<title>2</title>
<polygon fill="#f2f2f2" stroke="black" points="0,-37.3 0,-458.9 687.31,-458.9 687.31,-37.3 0,-37.3"/>
<text text-anchor="middle" x="343.65" y="-442.3" font-family="Courier New" font-size="14.00">ProtectedDataSharing &lt;&lt;Contract&gt;&gt;</text>
<polyline fill="none" stroke="black" points="0,-434.1 687.31,-434.1 "/>
<text text-anchor="middle" x="24.8" y="-417.5" font-family="Courier New" font-size="14.00">slot</text>
<polyline fill="none" stroke="black" points="0,-409.3 49.61,-409.3 "/>
<text text-anchor="middle" x="24.8" y="-392.7" font-family="Courier New" font-size="14.00">0</text>
<polyline fill="none" stroke="black" points="0,-384.5 49.61,-384.5 "/>
<text text-anchor="middle" x="24.8" y="-367.9" font-family="Courier New" font-size="14.00">1</text>
<polyline fill="none" stroke="black" points="0,-359.7 49.61,-359.7 "/>
<text text-anchor="middle" x="24.8" y="-343.1" font-family="Courier New" font-size="14.00">2</text>
<polyline fill="none" stroke="black" points="0,-334.9 49.61,-334.9 "/>
<text text-anchor="middle" x="24.8" y="-318.3" font-family="Courier New" font-size="14.00">3</text>
<polyline fill="none" stroke="black" points="0,-310.1 49.61,-310.1 "/>
<text text-anchor="middle" x="24.8" y="-293.5" font-family="Courier New" font-size="14.00">4</text>
<polyline fill="none" stroke="black" points="0,-285.3 49.61,-285.3 "/>
<text text-anchor="middle" x="24.8" y="-268.7" font-family="Courier New" font-size="14.00">5</text>
<polyline fill="none" stroke="black" points="0,-260.5 49.61,-260.5 "/>
<text text-anchor="middle" x="24.8" y="-243.9" font-family="Courier New" font-size="14.00">6</text>
<polyline fill="none" stroke="black" points="0,-235.7 49.61,-235.7 "/>
<text text-anchor="middle" x="24.8" y="-219.1" font-family="Courier New" font-size="14.00">7</text>
<polyline fill="none" stroke="black" points="0,-210.9 49.61,-210.9 "/>
<text text-anchor="middle" x="24.8" y="-194.3" font-family="Courier New" font-size="14.00">8</text>
<polyline fill="none" stroke="black" points="0,-186.1 49.61,-186.1 "/>
<text text-anchor="middle" x="24.8" y="-169.5" font-family="Courier New" font-size="14.00">9</text>
<polyline fill="none" stroke="black" points="0,-161.3 49.61,-161.3 "/>
<text text-anchor="middle" x="24.8" y="-144.7" font-family="Courier New" font-size="14.00">10</text>
<polyline fill="none" stroke="black" points="0,-136.5 49.61,-136.5 "/>
<text text-anchor="middle" x="24.8" y="-119.9" font-family="Courier New" font-size="14.00">11</text>
<polyline fill="none" stroke="black" points="0,-111.7 49.61,-111.7 "/>
<text text-anchor="middle" x="24.8" y="-95.1" font-family="Courier New" font-size="14.00">12</text>
<polyline fill="none" stroke="black" points="0,-86.9 49.61,-86.9 "/>
<text text-anchor="middle" x="24.8" y="-70.3" font-family="Courier New" font-size="14.00">13</text>
<polyline fill="none" stroke="black" points="0,-62.1 49.61,-62.1 "/>
<text text-anchor="middle" x="24.8" y="-45.5" font-family="Courier New" font-size="14.00">14</text>
<polyline fill="none" stroke="black" points="49.61,-37.3 49.61,-434.1 "/>
<text text-anchor="middle" x="368.46" y="-417.5" font-family="Courier New" font-size="14.00">type: &lt;inherited contract&gt;.variable (bytes)</text>
<polyline fill="none" stroke="black" points="49.61,-409.3 687.31,-409.3 "/>
<text text-anchor="middle" x="183.82" y="-392.7" font-family="Courier New" font-size="14.00">unallocated (12)</text>
<polyline fill="none" stroke="black" points="318.03,-384.5 318.03,-409.3 "/>
<text text-anchor="middle" x="502.65" y="-392.7" font-family="Courier New" font-size="14.00">address: Ownable._owner (20)</text>
<polyline fill="none" stroke="black" points="49.61,-384.5 687.31,-384.5 "/>
<text text-anchor="middle" x="164.82" y="-367.9" font-family="Courier New" font-size="14.00">unallocated (12)</text>
<polyline fill="none" stroke="black" points="280.03,-359.7 280.03,-384.5 "/>
<text text-anchor="middle" x="483.45" y="-367.9" font-family="Courier New" font-size="14.00">address: ManageOrders.appAddress (20)</text>
<polyline fill="none" stroke="black" points="49.61,-359.7 687.31,-359.7 "/>
<text text-anchor="middle" x="368.23" y="-343.1" font-family="Courier New" font-size="14.00">bytes: ManageOrders.nullSign (32)</text>
<polyline fill="none" stroke="black" points="49.61,-334.9 687.31,-334.9 "/>
<text text-anchor="middle" x="368.14" y="-318.3" font-family="Courier New" font-size="14.00">string: ManageOrders.iexec_result_storage_provider (32)</text>
<polyline fill="none" stroke="black" points="49.61,-310.1 687.31,-310.1 "/>
<text text-anchor="middle" x="368.04" y="-293.5" font-family="Courier New" font-size="14.00">string: ManageOrders.iexec_result_storage_proxy (32)</text>
<polyline fill="none" stroke="black" points="49.61,-285.3 687.31,-285.3 "/>
<text text-anchor="middle" x="368.33" y="-268.7" font-family="Courier New" font-size="14.00">string: ManageOrders.iexec_args (32)</text>
<polyline fill="none" stroke="black" points="49.61,-260.5 687.31,-260.5 "/>
<text text-anchor="middle" x="368.12" y="-243.9" font-family="Courier New" font-size="14.00">string: ERC721._name (32)</text>
<polyline fill="none" stroke="black" points="49.61,-235.7 687.31,-235.7 "/>
<text text-anchor="middle" x="368.02" y="-219.1" font-family="Courier New" font-size="14.00">string: ERC721._symbol (32)</text>
<polyline fill="none" stroke="black" points="49.61,-210.9 687.31,-210.9 "/>
<text text-anchor="middle" x="368.34" y="-194.3" font-family="Courier New" font-size="14.00">mapping(uint256=&gt;address): ERC721._owners (32)</text>
<polyline fill="none" stroke="black" points="49.61,-186.1 687.31,-186.1 "/>
<text text-anchor="middle" x="368.24" y="-169.5" font-family="Courier New" font-size="14.00">mapping(address=&gt;uint256): ERC721._balances (32)</text>
<polyline fill="none" stroke="black" points="49.61,-161.3 687.31,-161.3 "/>
<text text-anchor="middle" x="368.44" y="-144.7" font-family="Courier New" font-size="14.00">mapping(uint256=&gt;address): ERC721._tokenApprovals (32)</text>
<polyline fill="none" stroke="black" points="49.61,-136.5 687.31,-136.5 "/>
<text text-anchor="middle" x="368.05" y="-119.9" font-family="Courier New" font-size="14.00">mapping(address=&gt;mapping(address=&gt;bool)): ERC721._operatorApprovals (32)</text>
<polyline fill="none" stroke="black" points="49.61,-111.7 687.31,-111.7 "/>
<text text-anchor="middle" x="368.03" y="-95.1" font-family="Courier New" font-size="14.00">uint256: Collection._nextCollectionId (32)</text>
<polyline fill="none" stroke="black" points="49.61,-86.9 687.31,-86.9 "/>
<text text-anchor="middle" x="368.45" y="-70.3" font-family="Courier New" font-size="14.00">mapping(uint256=&gt;mapping(uint160=&gt;address)): Collection.contents (32)</text>
<polyline fill="none" stroke="black" points="49.61,-62.1 687.31,-62.1 "/>
<text text-anchor="middle" x="368.46" y="-45.5" font-family="Courier New" font-size="14.00">mapping(uint256=&gt;SubscriptionParams): Subscription.subscriptionParams (32)</text>
</g>
<!-- 1 -->
<g id="node2" class="node">
<title>1</title>
<polygon fill="#f2f2f2" stroke="black" points="723.31,-0.5 723.31,-99.7 990.54,-99.7 990.54,-0.5 723.31,-0.5"/>
<text text-anchor="middle" x="856.93" y="-83.1" font-family="Courier New" font-size="14.00">SubscriptionParams &lt;&lt;Struct&gt;&gt;</text>
<polyline fill="none" stroke="black" points="723.31,-74.9 990.54,-74.9 "/>
<text text-anchor="middle" x="756.51" y="-58.3" font-family="Courier New" font-size="14.00">offset</text>
<polyline fill="none" stroke="black" points="723.31,-50.1 789.71,-50.1 "/>
<text text-anchor="middle" x="756.51" y="-33.5" font-family="Courier New" font-size="14.00">0</text>
<polyline fill="none" stroke="black" points="723.31,-25.3 789.71,-25.3 "/>
<text text-anchor="middle" x="756.51" y="-8.7" font-family="Courier New" font-size="14.00">1</text>
<polyline fill="none" stroke="black" points="789.71,-0.5 789.71,-74.9 "/>
<text text-anchor="middle" x="890.13" y="-58.3" font-family="Courier New" font-size="14.00">type: variable (bytes)</text>
<polyline fill="none" stroke="black" points="789.71,-50.1 990.54,-50.1 "/>
<text text-anchor="middle" x="890.03" y="-33.5" font-family="Courier New" font-size="14.00">uint256: price (32)</text>
<polyline fill="none" stroke="black" points="789.71,-25.3 990.54,-25.3 "/>
<text text-anchor="middle" x="890.13" y="-8.7" font-family="Courier New" font-size="14.00">uint256: duration (32)</text>
</g>
<!-- 2&#45;&gt;1 -->
<g id="edge1" class="edge">
<title>2:17&#45;&gt;1</title>
<path fill="none" stroke="black" d="M687.31,-50.1C695.62,-50.1 704.16,-50.1 712.78,-50.1"/>
<polygon fill="black" stroke="black" points="712.92,-53.6 722.92,-50.1 712.92,-46.6 712.92,-53.6"/>
</g>
</g>
</svg>
