<?xml version="1.0" encoding="UTF-8" standalone="no"?>
<!DOCTYPE svg PUBLIC "-//W3C//DTD SVG 1.1//EN"
 "http://www.w3.org/Graphics/SVG/1.1/DTD/svg11.dtd">
<!-- Generated by graphviz version 5.0.0 (20220707.1540)
 -->
<!-- Title: StorageDiagram Pages: 1 -->
<svg width="2043pt" height="178pt"
 viewBox="0.00 0.00 2042.70 178.20" xmlns="http://www.w3.org/2000/svg" xmlns:xlink="http://www.w3.org/1999/xlink">
<g id="graph0" class="graph" transform="scale(1 1) rotate(0) translate(4 174.2)">
<title>StorageDiagram</title>
<polygon fill="white" stroke="transparent" points="-4,4 -4,-174.2 2038.7,-174.2 2038.7,4 -4,4"/>
<!-- 4 -->
<g id="node1" class="node">
<title>4</title>
<polygon fill="#f2f2f2" stroke="black" points="0,-70.5 0,-169.7 627.69,-169.7 627.69,-70.5 0,-70.5"/>
<text text-anchor="middle" x="313.85" y="-153.1" font-family="Courier New" font-size="14.00">AppWhitelistRegistry &lt;&lt;Contract&gt;&gt;</text>
<polyline fill="none" stroke="black" points="0,-144.9 627.69,-144.9 "/>
<text text-anchor="middle" x="24.8" y="-128.3" font-family="Courier New" font-size="14.00">slot</text>
<polyline fill="none" stroke="black" points="0,-120.1 49.61,-120.1 "/>
<text text-anchor="middle" x="24.8" y="-103.5" font-family="Courier New" font-size="14.00">0</text>
<polyline fill="none" stroke="black" points="0,-95.3 49.61,-95.3 "/>
<text text-anchor="middle" x="24.8" y="-78.7" font-family="Courier New" font-size="14.00">1&#45;2</text>
<polyline fill="none" stroke="black" points="49.61,-70.5 49.61,-144.9 "/>
<text text-anchor="middle" x="338.65" y="-128.3" font-family="Courier New" font-size="14.00">type: &lt;inherited contract&gt;.variable (bytes)</text>
<polyline fill="none" stroke="black" points="49.61,-120.1 627.69,-120.1 "/>
<text text-anchor="middle" x="124.82" y="-103.5" font-family="Courier New" font-size="14.00">unallocated (12)</text>
<polyline fill="none" stroke="black" points="200.03,-95.3 200.03,-120.1 "/>
<text text-anchor="middle" x="413.86" y="-103.5" font-family="Courier New" font-size="14.00">IProtectedDataSharing: _protectedDataSharing (20)</text>
<polyline fill="none" stroke="black" points="49.61,-95.3 627.69,-95.3 "/>
<text text-anchor="middle" x="338.54" y="-78.7" font-family="Courier New" font-size="14.00">EnumerableSet.AddressSet: _registeredAppWhitelistSet (64)</text>
</g>
<!-- 3 -->
<g id="node4" class="node">
<title>3</title>
<polygon fill="#f2f2f2" stroke="black" points="663.69,-45.9 663.69,-120.3 973.74,-120.3 973.74,-45.9 663.69,-45.9"/>
<text text-anchor="middle" x="818.72" y="-103.7" font-family="Courier New" font-size="14.00">EnumerableSet.AddressSet &lt;&lt;Struct&gt;&gt;</text>
<polyline fill="none" stroke="black" points="663.69,-95.5 973.74,-95.5 "/>
<text text-anchor="middle" x="692.5" y="-78.9" font-family="Courier New" font-size="14.00">slot</text>
<polyline fill="none" stroke="black" points="663.69,-70.7 721.3,-70.7 "/>
<text text-anchor="middle" x="692.5" y="-54.1" font-family="Courier New" font-size="14.00">1&#45;2</text>
<polyline fill="none" stroke="black" points="721.3,-45.9 721.3,-95.5 "/>
<text text-anchor="middle" x="847.22" y="-78.9" font-family="Courier New" font-size="14.00">type: variable (bytes)</text>
<polyline fill="none" stroke="black" points="721.3,-70.7 973.14,-70.7 "/>
<text text-anchor="middle" x="847.22" y="-54.1" font-family="Courier New" font-size="14.00">Set: AddressSet._inner (64)</text>
</g>
<!-- 4&#45;&gt;3 -->
<g id="edge1" class="edge">
<title>4:6&#45;&gt;3</title>
<path fill="none" stroke="black" d="M627.69,-83.1C636.05,-83.1 644.62,-83.1 653.27,-83.1"/>
<polygon fill="black" stroke="black" points="653.45,-86.6 663.45,-83.1 653.45,-79.6 653.45,-86.6"/>
</g>
<!-- 1 -->
<g id="node2" class="node">
<title>1</title>
<polygon fill="#f2f2f2" stroke="black" points="1464.21,-0.5 1464.21,-91.7 2034.7,-91.7 2034.7,-0.5 1464.21,-0.5"/>
<text text-anchor="middle" x="1749.45" y="-75.1" font-family="Courier New" font-size="14.00">bytes32[]: _values &lt;&lt;Array&gt;&gt;</text>
<text text-anchor="middle" x="1749.45" y="-58.3" font-family="Courier New" font-size="14.00">0xb10e2d527612073b26eecdfd717e6a320cf44b4afac2b0732d9fcbe2b7fa0cf6</text>
<polyline fill="none" stroke="black" points="1464.21,-50.1 2034.7,-50.1 "/>
<text text-anchor="middle" x="1572.91" y="-33.5" font-family="Courier New" font-size="14.00">offset</text>
<polyline fill="none" stroke="black" points="1464.21,-25.3 1681.61,-25.3 "/>
<text text-anchor="middle" x="1572.91" y="-8.7" font-family="Courier New" font-size="14.00">0</text>
<polyline fill="none" stroke="black" points="1681.61,-0.5 1681.61,-50.1 "/>
<text text-anchor="middle" x="1858.03" y="-33.5" font-family="Courier New" font-size="14.00">type: variable (bytes)</text>
<polyline fill="none" stroke="black" points="1681.61,-25.3 2034.44,-25.3 "/>
<text text-anchor="middle" x="1858.02" y="-8.7" font-family="Courier New" font-size="14.00">bytes32 (32)</text>
</g>
<!-- 2 -->
<g id="node3" class="node">
<title>2</title>
<polygon fill="#f2f2f2" stroke="black" points="1009.74,-8.5 1009.74,-107.7 1428.21,-107.7 1428.21,-8.5 1009.74,-8.5"/>
<text text-anchor="middle" x="1218.97" y="-91.1" font-family="Courier New" font-size="14.00">Set &lt;&lt;Struct&gt;&gt;</text>
<polyline fill="none" stroke="black" points="1009.74,-82.9 1428.21,-82.9 "/>
<text text-anchor="middle" x="1034.54" y="-66.3" font-family="Courier New" font-size="14.00">slot</text>
<polyline fill="none" stroke="black" points="1009.74,-58.1 1059.35,-58.1 "/>
<text text-anchor="middle" x="1034.54" y="-41.5" font-family="Courier New" font-size="14.00">1</text>
<polyline fill="none" stroke="black" points="1009.74,-33.3 1059.35,-33.3 "/>
<text text-anchor="middle" x="1034.54" y="-16.7" font-family="Courier New" font-size="14.00">2</text>
<polyline fill="none" stroke="black" points="1059.35,-8.5 1059.35,-82.9 "/>
<text text-anchor="middle" x="1243.78" y="-66.3" font-family="Courier New" font-size="14.00">type: variable (bytes)</text>
<polyline fill="none" stroke="black" points="1059.35,-58.1 1428.21,-58.1 "/>
<text text-anchor="middle" x="1243.46" y="-41.5" font-family="Courier New" font-size="14.00">bytes32[]: _values (32)</text>
<polyline fill="none" stroke="black" points="1059.35,-33.3 1428.21,-33.3 "/>
<text text-anchor="middle" x="1243.78" y="-16.7" font-family="Courier New" font-size="14.00">mapping(bytes32=&gt;uint256): _positions (32)</text>
</g>
<!-- 2&#45;&gt;1 -->
<g id="edge2" class="edge">
<title>2:3&#45;&gt;1</title>
<path fill="none" stroke="black" d="M1428.21,-46.1C1436.6,-46.1 1445.11,-46.1 1453.71,-46.1"/>
<polygon fill="black" stroke="black" points="1453.83,-49.6 1463.83,-46.1 1453.83,-42.6 1453.83,-49.6"/>
</g>
<!-- 3&#45;&gt;2 -->
<g id="edge3" class="edge">
<title>3:5&#45;&gt;2</title>
<path fill="none" stroke="black" d="M973.72,-58.1C982.1,-58.1 990.64,-58.1 999.27,-58.1"/>
<polygon fill="black" stroke="black" points="999.44,-61.6 1009.44,-58.1 999.44,-54.6 999.44,-61.6"/>
</g>
</g>
</svg>
