<?xml version="1.0" encoding="UTF-8" standalone="no"?>
<!DOCTYPE svg PUBLIC "-//W3C//DTD SVG 1.1//EN"
 "http://www.w3.org/Graphics/SVG/1.1/DTD/svg11.dtd">
<!-- Generated by graphviz version 5.0.0 (20220707.1540)
 -->
<!-- Title: StorageDiagram Pages: 1 -->
<svg width="2298pt" height="830pt"
 viewBox="0.00 0.00 2298.33 829.60" xmlns="http://www.w3.org/2000/svg" xmlns:xlink="http://www.w3.org/1999/xlink">
<g id="graph0" class="graph" transform="scale(1 1) rotate(0) translate(4 825.6)">
<title>StorageDiagram</title>
<polygon fill="white" stroke="transparent" points="-4,4 -4,-825.6 2294.33,-825.6 2294.33,4 -4,4"/>
<!-- 8 -->
<g id="node1" class="node">
<title>8</title>
<polygon fill="#f2f2f2" stroke="black" points="0,-329.9 0,-577.9 611.69,-577.9 611.69,-329.9 0,-329.9"/>
<text text-anchor="middle" x="305.85" y="-561.3" font-family="Courier New" font-size="14.00">DataProtectorSharing &lt;&lt;Contract&gt;&gt;</text>
<polyline fill="none" stroke="black" points="0,-553.1 611.69,-553.1 "/>
<text text-anchor="middle" x="24.8" y="-536.5" font-family="Courier New" font-size="14.00">slot</text>
<polyline fill="none" stroke="black" points="0,-528.3 49.61,-528.3 "/>
<text text-anchor="middle" x="24.8" y="-511.7" font-family="Courier New" font-size="14.00">0</text>
<polyline fill="none" stroke="black" points="0,-503.5 49.61,-503.5 "/>
<text text-anchor="middle" x="24.8" y="-486.9" font-family="Courier New" font-size="14.00">1</text>
<polyline fill="none" stroke="black" points="0,-478.7 49.61,-478.7 "/>
<text text-anchor="middle" x="24.8" y="-462.1" font-family="Courier New" font-size="14.00">2</text>
<polyline fill="none" stroke="black" points="0,-453.9 49.61,-453.9 "/>
<text text-anchor="middle" x="24.8" y="-437.3" font-family="Courier New" font-size="14.00">3</text>
<polyline fill="none" stroke="black" points="0,-429.1 49.61,-429.1 "/>
<text text-anchor="middle" x="24.8" y="-412.5" font-family="Courier New" font-size="14.00">4</text>
<polyline fill="none" stroke="black" points="0,-404.3 49.61,-404.3 "/>
<text text-anchor="middle" x="24.8" y="-387.7" font-family="Courier New" font-size="14.00">5</text>
<polyline fill="none" stroke="black" points="0,-379.5 49.61,-379.5 "/>
<text text-anchor="middle" x="24.8" y="-362.9" font-family="Courier New" font-size="14.00">6</text>
<polyline fill="none" stroke="black" points="0,-354.7 49.61,-354.7 "/>
<text text-anchor="middle" x="24.8" y="-338.1" font-family="Courier New" font-size="14.00">7</text>
<polyline fill="none" stroke="black" points="49.61,-329.9 49.61,-553.1 "/>
<text text-anchor="middle" x="330.65" y="-536.5" font-family="Courier New" font-size="14.00">type: &lt;inherited contract&gt;.variable (bytes)</text>
<polyline fill="none" stroke="black" points="49.61,-528.3 611.69,-528.3 "/>
<text text-anchor="middle" x="330.34" y="-511.7" font-family="Courier New" font-size="14.00">string: ManageOrders._iexec_result_storage_provider (32)</text>
<polyline fill="none" stroke="black" points="49.61,-503.5 611.69,-503.5 "/>
<text text-anchor="middle" x="330.24" y="-486.9" font-family="Courier New" font-size="14.00">string: ManageOrders._iexec_result_storage_proxy (32)</text>
<polyline fill="none" stroke="black" points="49.61,-478.7 611.69,-478.7 "/>
<text text-anchor="middle" x="330.53" y="-462.1" font-family="Courier New" font-size="14.00">uint256: ManageOrders._salt (32)</text>
<polyline fill="none" stroke="black" points="49.61,-453.9 611.69,-453.9 "/>
<text text-anchor="middle" x="330.33" y="-437.3" font-family="Courier New" font-size="14.00">uint256: _nextCollectionTokenId (32)</text>
<polyline fill="none" stroke="black" points="49.61,-429.1 611.69,-429.1 "/>
<text text-anchor="middle" x="330.43" y="-412.5" font-family="Courier New" font-size="14.00">mapping(address=&gt;uint256): earning (32)</text>
<polyline fill="none" stroke="black" points="49.61,-404.3 611.69,-404.3 "/>
<text text-anchor="middle" x="330.65" y="-387.7" font-family="Courier New" font-size="14.00">mapping(address=&gt;ProtectedDataDetails): protectedDataDetails (32)</text>
<polyline fill="none" stroke="black" points="49.61,-379.5 611.69,-379.5 "/>
<text text-anchor="middle" x="330.45" y="-362.9" font-family="Courier New" font-size="14.00">mapping(uint256=&gt;CollectionDetails): collectionDetails (32)</text>
<polyline fill="none" stroke="black" points="49.61,-354.7 611.69,-354.7 "/>
<text text-anchor="middle" x="330.35" y="-338.1" font-family="Courier New" font-size="14.00">mapping(address=&gt;IexecLibOrders_v5.AppOrder): _appOrders (32)</text>
</g>
<!-- 4 -->
<g id="node5" class="node">
<title>4</title>
<polygon fill="#f2f2f2" stroke="black" points="647.69,-569.7 647.69,-768.1 1643.44,-768.1 1643.44,-569.7 647.69,-569.7"/>
<text text-anchor="middle" x="1145.57" y="-751.5" font-family="Courier New" font-size="14.00">ProtectedDataDetails &lt;&lt;Struct&gt;&gt;</text>
<polyline fill="none" stroke="black" points="647.69,-743.3 1643.44,-743.3 "/>
<text text-anchor="middle" x="680.9" y="-726.7" font-family="Courier New" font-size="14.00">offset</text>
<polyline fill="none" stroke="black" points="647.69,-718.5 714.1,-718.5 "/>
<text text-anchor="middle" x="680.9" y="-701.9" font-family="Courier New" font-size="14.00">0</text>
<polyline fill="none" stroke="black" points="647.69,-693.7 714.1,-693.7 "/>
<text text-anchor="middle" x="680.9" y="-677.1" font-family="Courier New" font-size="14.00">1</text>
<polyline fill="none" stroke="black" points="647.69,-668.9 714.1,-668.9 "/>
<text text-anchor="middle" x="680.9" y="-652.3" font-family="Courier New" font-size="14.00">2</text>
<polyline fill="none" stroke="black" points="647.69,-644.1 714.1,-644.1 "/>
<text text-anchor="middle" x="680.9" y="-627.5" font-family="Courier New" font-size="14.00">3</text>
<polyline fill="none" stroke="black" points="647.69,-619.3 714.1,-619.3 "/>
<text text-anchor="middle" x="680.9" y="-602.7" font-family="Courier New" font-size="14.00">4</text>
<polyline fill="none" stroke="black" points="647.69,-594.5 714.1,-594.5 "/>
<text text-anchor="middle" x="680.9" y="-577.9" font-family="Courier New" font-size="14.00">5&#45;13</text>
<polyline fill="none" stroke="black" points="714.1,-569.7 714.1,-743.3 "/>
<text text-anchor="middle" x="1178.77" y="-726.7" font-family="Courier New" font-size="14.00">type: variable (bytes)</text>
<polyline fill="none" stroke="black" points="714.1,-718.5 1643.44,-718.5 "/>
<text text-anchor="middle" x="1178.42" y="-701.9" font-family="Courier New" font-size="14.00">uint256: collection (32)</text>
<polyline fill="none" stroke="black" points="714.1,-693.7 1643.44,-693.7 "/>
<text text-anchor="middle" x="785.11" y="-677.1" font-family="Courier New" font-size="14.00">unallocated (5)</text>
<polyline fill="none" stroke="black" points="856.12,-668.9 856.12,-693.7 "/>
<text text-anchor="middle" x="964.94" y="-677.1" font-family="Courier New" font-size="14.00">bool: inSubscription (1)</text>
<polyline fill="none" stroke="black" points="1073.76,-668.9 1073.76,-693.7 "/>
<text text-anchor="middle" x="1216.18" y="-677.1" font-family="Courier New" font-size="14.00">uint48: lastRentalExpiration (6)</text>
<polyline fill="none" stroke="black" points="1358.6,-668.9 1358.6,-693.7 "/>
<text text-anchor="middle" x="1501.02" y="-677.1" font-family="Courier New" font-size="14.00">IAppWhitelist: appWhitelist (20)</text>
<polyline fill="none" stroke="black" points="714.1,-668.9 1643.44,-668.9 "/>
<text text-anchor="middle" x="1178.73" y="-652.3" font-family="Courier New" font-size="14.00">RentingParams: rentingParams (32)</text>
<polyline fill="none" stroke="black" points="714.1,-644.1 1643.44,-644.1 "/>
<text text-anchor="middle" x="1178.73" y="-627.5" font-family="Courier New" font-size="14.00">mapping(address=&gt;uint48): renters (32)</text>
<polyline fill="none" stroke="black" points="714.1,-619.3 1643.44,-619.3 "/>
<text text-anchor="middle" x="1178.73" y="-602.7" font-family="Courier New" font-size="14.00">SellingParams: sellingParams (32)</text>
<polyline fill="none" stroke="black" points="714.1,-594.5 1643.44,-594.5 "/>
<text text-anchor="middle" x="1178.64" y="-577.9" font-family="Courier New" font-size="14.00">IexecLibOrders_v5.DatasetOrder: datasetOrder (288)</text>
</g>
<!-- 8&#45;&gt;4 -->
<g id="edge1" class="edge">
<title>8:27&#45;&gt;4</title>
<path fill="none" stroke="black" d="M611.69,-391.9C642.41,-391.9 624.56,-430.69 647.69,-450.9 700.62,-497.15 764.91,-534.96 829.43,-565.32"/>
<polygon fill="black" stroke="black" points="827.99,-568.51 838.54,-569.56 830.95,-562.16 827.99,-568.51"/>
</g>
<!-- 6 -->
<g id="node7" class="node">
<title>6</title>
<polygon fill="#f2f2f2" stroke="black" points="869.53,-292.5 869.53,-441.3 1421.61,-441.3 1421.61,-292.5 869.53,-292.5"/>
<text text-anchor="middle" x="1145.57" y="-424.7" font-family="Courier New" font-size="14.00">CollectionDetails &lt;&lt;Struct&gt;&gt;</text>
<polyline fill="none" stroke="black" points="869.53,-416.5 1421.61,-416.5 "/>
<text text-anchor="middle" x="902.73" y="-399.9" font-family="Courier New" font-size="14.00">offset</text>
<polyline fill="none" stroke="black" points="869.53,-391.7 935.94,-391.7 "/>
<text text-anchor="middle" x="902.73" y="-375.1" font-family="Courier New" font-size="14.00">0</text>
<polyline fill="none" stroke="black" points="869.53,-366.9 935.94,-366.9 "/>
<text text-anchor="middle" x="902.73" y="-350.3" font-family="Courier New" font-size="14.00">1</text>
<polyline fill="none" stroke="black" points="869.53,-342.1 935.94,-342.1 "/>
<text text-anchor="middle" x="902.73" y="-325.5" font-family="Courier New" font-size="14.00">2</text>
<polyline fill="none" stroke="black" points="869.53,-317.3 935.94,-317.3 "/>
<text text-anchor="middle" x="902.73" y="-300.7" font-family="Courier New" font-size="14.00">3</text>
<polyline fill="none" stroke="black" points="935.94,-292.5 935.94,-416.5 "/>
<text text-anchor="middle" x="1178.77" y="-399.9" font-family="Courier New" font-size="14.00">type: variable (bytes)</text>
<polyline fill="none" stroke="black" points="935.94,-391.7 1421.61,-391.7 "/>
<text text-anchor="middle" x="1178.55" y="-375.1" font-family="Courier New" font-size="14.00">uint256: size (32)</text>
<polyline fill="none" stroke="black" points="935.94,-366.9 1421.61,-366.9 "/>
<text text-anchor="middle" x="1011.15" y="-350.3" font-family="Courier New" font-size="14.00">unallocated (26)</text>
<polyline fill="none" stroke="black" points="1086.36,-342.1 1086.36,-366.9 "/>
<text text-anchor="middle" x="1253.98" y="-350.3" font-family="Courier New" font-size="14.00">uint48: lastSubscriptionExpiration (6)</text>
<polyline fill="none" stroke="black" points="935.94,-342.1 1421.61,-342.1 "/>
<text text-anchor="middle" x="1178.57" y="-325.5" font-family="Courier New" font-size="14.00">SubscriptionParams: subscriptionParams (32)</text>
<polyline fill="none" stroke="black" points="935.94,-317.3 1421.61,-317.3 "/>
<text text-anchor="middle" x="1178.36" y="-300.7" font-family="Courier New" font-size="14.00">mapping(address=&gt;uint48): subscribers (32)</text>
</g>
<!-- 8&#45;&gt;6 -->
<g id="edge2" class="edge">
<title>8:34&#45;&gt;6</title>
<path fill="none" stroke="black" d="M611.69,-366.9C691.98,-366.9 779.08,-366.9 859.14,-366.9"/>
<polygon fill="black" stroke="black" points="859.37,-370.4 869.37,-366.9 859.37,-363.4 859.37,-370.4"/>
</g>
<!-- 7 -->
<g id="node8" class="node">
<title>7</title>
<polygon fill="#f2f2f2" stroke="black" points="894.73,-0.5 894.73,-273.3 1396.41,-273.3 1396.41,-0.5 894.73,-0.5"/>
<text text-anchor="middle" x="1145.57" y="-256.7" font-family="Courier New" font-size="14.00">AppOrder &lt;&lt;Struct&gt;&gt;</text>
<polyline fill="none" stroke="black" points="894.73,-248.5 1396.41,-248.5 "/>
<text text-anchor="middle" x="927.94" y="-231.9" font-family="Courier New" font-size="14.00">offset</text>
<polyline fill="none" stroke="black" points="894.73,-223.7 961.14,-223.7 "/>
<text text-anchor="middle" x="927.94" y="-207.1" font-family="Courier New" font-size="14.00">0</text>
<polyline fill="none" stroke="black" points="894.73,-198.9 961.14,-198.9 "/>
<text text-anchor="middle" x="927.94" y="-182.3" font-family="Courier New" font-size="14.00">1</text>
<polyline fill="none" stroke="black" points="894.73,-174.1 961.14,-174.1 "/>
<text text-anchor="middle" x="927.94" y="-157.5" font-family="Courier New" font-size="14.00">2</text>
<polyline fill="none" stroke="black" points="894.73,-149.3 961.14,-149.3 "/>
<text text-anchor="middle" x="927.94" y="-132.7" font-family="Courier New" font-size="14.00">3</text>
<polyline fill="none" stroke="black" points="894.73,-124.5 961.14,-124.5 "/>
<text text-anchor="middle" x="927.94" y="-107.9" font-family="Courier New" font-size="14.00">4</text>
<polyline fill="none" stroke="black" points="894.73,-99.7 961.14,-99.7 "/>
<text text-anchor="middle" x="927.94" y="-83.1" font-family="Courier New" font-size="14.00">5</text>
<polyline fill="none" stroke="black" points="894.73,-74.9 961.14,-74.9 "/>
<text text-anchor="middle" x="927.94" y="-58.3" font-family="Courier New" font-size="14.00">6</text>
<polyline fill="none" stroke="black" points="894.73,-50.1 961.14,-50.1 "/>
<text text-anchor="middle" x="927.94" y="-33.5" font-family="Courier New" font-size="14.00">7</text>
<polyline fill="none" stroke="black" points="894.73,-25.3 961.14,-25.3 "/>
<text text-anchor="middle" x="927.94" y="-8.7" font-family="Courier New" font-size="14.00">8</text>
<polyline fill="none" stroke="black" points="961.14,-0.5 961.14,-248.5 "/>
<text text-anchor="middle" x="1178.77" y="-231.9" font-family="Courier New" font-size="14.00">type: variable (bytes)</text>
<polyline fill="none" stroke="black" points="961.14,-223.7 1396.41,-223.7 "/>
<text text-anchor="middle" x="1067.85" y="-207.1" font-family="Courier New" font-size="14.00">unallocated (12)</text>
<polyline fill="none" stroke="black" points="1174.56,-198.9 1174.56,-223.7 "/>
<text text-anchor="middle" x="1285.47" y="-207.1" font-family="Courier New" font-size="14.00">address: app (20)</text>
<polyline fill="none" stroke="black" points="961.14,-198.9 1396.41,-198.9 "/>
<text text-anchor="middle" x="1178.56" y="-182.3" font-family="Courier New" font-size="14.00">uint256: appprice (32)</text>
<polyline fill="none" stroke="black" points="961.14,-174.1 1396.41,-174.1 "/>
<text text-anchor="middle" x="1178.65" y="-157.5" font-family="Courier New" font-size="14.00">uint256: volume (32)</text>
<polyline fill="none" stroke="black" points="961.14,-149.3 1396.41,-149.3 "/>
<text text-anchor="middle" x="1178.55" y="-132.7" font-family="Courier New" font-size="14.00">bytes32: tag (32)</text>
<polyline fill="none" stroke="black" points="961.14,-124.5 1396.41,-124.5 "/>
<text text-anchor="middle" x="1042.35" y="-107.9" font-family="Courier New" font-size="14.00">unallocated (12)</text>
<polyline fill="none" stroke="black" points="1123.56,-99.7 1123.56,-124.5 "/>
<text text-anchor="middle" x="1259.88" y="-107.9" font-family="Courier New" font-size="14.00">address: datasetrestrict (20)</text>
<polyline fill="none" stroke="black" points="961.14,-99.7 1396.41,-99.7 "/>
<text text-anchor="middle" x="1036.35" y="-83.1" font-family="Courier New" font-size="14.00">unallocated (12)</text>
<polyline fill="none" stroke="black" points="1111.56,-74.9 1111.56,-99.7 "/>
<text text-anchor="middle" x="1253.98" y="-83.1" font-family="Courier New" font-size="14.00">address: workerpoolrestrict (20)</text>
<polyline fill="none" stroke="black" points="961.14,-74.9 1396.41,-74.9 "/>
<text text-anchor="middle" x="1038.35" y="-58.3" font-family="Courier New" font-size="14.00">unallocated (12)</text>
<polyline fill="none" stroke="black" points="1115.56,-50.1 1115.56,-74.9 "/>
<text text-anchor="middle" x="1255.78" y="-58.3" font-family="Courier New" font-size="14.00">address: requesterrestrict (20)</text>
<polyline fill="none" stroke="black" points="961.14,-50.1 1396.41,-50.1 "/>
<text text-anchor="middle" x="1178.75" y="-33.5" font-family="Courier New" font-size="14.00">bytes32: salt (32)</text>
<polyline fill="none" stroke="black" points="961.14,-25.3 1396.41,-25.3 "/>
<text text-anchor="middle" x="1178.35" y="-8.7" font-family="Courier New" font-size="14.00">bytes: sign (32)</text>
</g>
<!-- 8&#45;&gt;7 -->
<g id="edge3" class="edge">
<title>8:44&#45;&gt;7</title>
<path fill="none" stroke="black" d="M611.69,-341.9C642.41,-341.9 623.32,-301.6 647.69,-282.9 715.99,-230.51 802.69,-196.89 884.48,-175.32"/>
<polygon fill="black" stroke="black" points="885.62,-178.64 894.43,-172.75 883.87,-171.86 885.62,-178.64"/>
</g>
<!-- 1 -->
<g id="node2" class="node">
<title>1</title>
<polygon fill="#f2f2f2" stroke="black" points="1696.65,-746.7 1696.65,-821.1 2273.13,-821.1 2273.13,-746.7 1696.65,-746.7"/>
<text text-anchor="middle" x="1984.89" y="-804.5" font-family="Courier New" font-size="14.00">RentingParams &lt;&lt;Struct&gt;&gt;</text>
<polyline fill="none" stroke="black" points="1696.65,-796.3 2273.13,-796.3 "/>
<text text-anchor="middle" x="1729.85" y="-779.7" font-family="Courier New" font-size="14.00">offset</text>
<polyline fill="none" stroke="black" points="1696.65,-771.5 1763.06,-771.5 "/>
<text text-anchor="middle" x="1729.85" y="-754.9" font-family="Courier New" font-size="14.00">0</text>
<polyline fill="none" stroke="black" points="1763.06,-746.7 1763.06,-796.3 "/>
<text text-anchor="middle" x="2018.09" y="-779.7" font-family="Courier New" font-size="14.00">type: variable (bytes)</text>
<polyline fill="none" stroke="black" points="1763.06,-771.5 2273.13,-771.5 "/>
<text text-anchor="middle" x="1838.27" y="-754.9" font-family="Courier New" font-size="14.00">unallocated (12)</text>
<polyline fill="none" stroke="black" points="1913.48,-746.7 1913.48,-771.5 "/>
<text text-anchor="middle" x="2005.49" y="-754.9" font-family="Courier New" font-size="14.00">uint48: duration (6)</text>
<polyline fill="none" stroke="black" points="2097.5,-746.7 2097.5,-771.5 "/>
<text text-anchor="middle" x="2185.32" y="-754.9" font-family="Courier New" font-size="14.00">uint112: price (14)</text>
</g>
<!-- 2 -->
<g id="node3" class="node">
<title>2</title>
<polygon fill="#f2f2f2" stroke="black" points="1700.85,-653.7 1700.85,-728.1 2268.93,-728.1 2268.93,-653.7 1700.85,-653.7"/>
<text text-anchor="middle" x="1984.89" y="-711.5" font-family="Courier New" font-size="14.00">SellingParams &lt;&lt;Struct&gt;&gt;</text>
<polyline fill="none" stroke="black" points="1700.85,-703.3 2268.93,-703.3 "/>
<text text-anchor="middle" x="1734.05" y="-686.7" font-family="Courier New" font-size="14.00">offset</text>
<polyline fill="none" stroke="black" points="1700.85,-678.5 1767.26,-678.5 "/>
<text text-anchor="middle" x="1734.05" y="-661.9" font-family="Courier New" font-size="14.00">0</text>
<polyline fill="none" stroke="black" points="1767.26,-653.7 1767.26,-703.3 "/>
<text text-anchor="middle" x="2018.09" y="-686.7" font-family="Courier New" font-size="14.00">type: variable (bytes)</text>
<polyline fill="none" stroke="black" points="1767.26,-678.5 2268.93,-678.5 "/>
<text text-anchor="middle" x="1842.47" y="-661.9" font-family="Courier New" font-size="14.00">unallocated (17)</text>
<polyline fill="none" stroke="black" points="1917.68,-653.7 1917.68,-678.5 "/>
<text text-anchor="middle" x="2005.49" y="-661.9" font-family="Courier New" font-size="14.00">uint112: price (14)</text>
<polyline fill="none" stroke="black" points="2093.3,-653.7 2093.3,-678.5 "/>
<text text-anchor="middle" x="2181.12" y="-661.9" font-family="Courier New" font-size="14.00">bool: isForSale (1)</text>
</g>
<!-- 3 -->
<g id="node4" class="node">
<title>3</title>
<polygon fill="#f2f2f2" stroke="black" points="1679.44,-361.5 1679.44,-634.3 2290.33,-634.3 2290.33,-361.5 1679.44,-361.5"/>
<text text-anchor="middle" x="1984.89" y="-617.7" font-family="Courier New" font-size="14.00">IexecLibOrders_v5.DatasetOrder &lt;&lt;Struct&gt;&gt;</text>
<polyline fill="none" stroke="black" points="1679.44,-609.5 2290.33,-609.5 "/>
<text text-anchor="middle" x="1712.65" y="-592.9" font-family="Courier New" font-size="14.00">offset</text>
<polyline fill="none" stroke="black" points="1679.44,-584.7 1745.85,-584.7 "/>
<text text-anchor="middle" x="1712.65" y="-568.1" font-family="Courier New" font-size="14.00">0</text>
<polyline fill="none" stroke="black" points="1679.44,-559.9 1745.85,-559.9 "/>
<text text-anchor="middle" x="1712.65" y="-543.3" font-family="Courier New" font-size="14.00">1</text>
<polyline fill="none" stroke="black" points="1679.44,-535.1 1745.85,-535.1 "/>
<text text-anchor="middle" x="1712.65" y="-518.5" font-family="Courier New" font-size="14.00">2</text>
<polyline fill="none" stroke="black" points="1679.44,-510.3 1745.85,-510.3 "/>
<text text-anchor="middle" x="1712.65" y="-493.7" font-family="Courier New" font-size="14.00">3</text>
<polyline fill="none" stroke="black" points="1679.44,-485.5 1745.85,-485.5 "/>
<text text-anchor="middle" x="1712.65" y="-468.9" font-family="Courier New" font-size="14.00">4</text>
<polyline fill="none" stroke="black" points="1679.44,-460.7 1745.85,-460.7 "/>
<text text-anchor="middle" x="1712.65" y="-444.1" font-family="Courier New" font-size="14.00">5</text>
<polyline fill="none" stroke="black" points="1679.44,-435.9 1745.85,-435.9 "/>
<text text-anchor="middle" x="1712.65" y="-419.3" font-family="Courier New" font-size="14.00">6</text>
<polyline fill="none" stroke="black" points="1679.44,-411.1 1745.85,-411.1 "/>
<text text-anchor="middle" x="1712.65" y="-394.5" font-family="Courier New" font-size="14.00">7</text>
<polyline fill="none" stroke="black" points="1679.44,-386.3 1745.85,-386.3 "/>
<text text-anchor="middle" x="1712.65" y="-369.7" font-family="Courier New" font-size="14.00">8</text>
<polyline fill="none" stroke="black" points="1745.85,-361.5 1745.85,-609.5 "/>
<text text-anchor="middle" x="2018.09" y="-592.9" font-family="Courier New" font-size="14.00">type: variable (bytes)</text>
<polyline fill="none" stroke="black" points="1745.85,-584.7 2290.33,-584.7 "/>
<text text-anchor="middle" x="1844.06" y="-568.1" font-family="Courier New" font-size="14.00">unallocated (12)</text>
<polyline fill="none" stroke="black" points="1942.27,-559.9 1942.27,-584.7 "/>
<text text-anchor="middle" x="2116.1" y="-568.1" font-family="Courier New" font-size="14.00">address: DatasetOrder.dataset (20)</text>
<polyline fill="none" stroke="black" points="1745.85,-559.9 2290.33,-559.9 "/>
<text text-anchor="middle" x="2017.68" y="-543.3" font-family="Courier New" font-size="14.00">uint256: DatasetOrder.datasetprice (32)</text>
<polyline fill="none" stroke="black" points="1745.85,-535.1 2290.33,-535.1 "/>
<text text-anchor="middle" x="2017.97" y="-518.5" font-family="Courier New" font-size="14.00">uint256: DatasetOrder.volume (32)</text>
<polyline fill="none" stroke="black" points="1745.85,-510.3 2290.33,-510.3 "/>
<text text-anchor="middle" x="2017.87" y="-493.7" font-family="Courier New" font-size="14.00">bytes32: DatasetOrder.tag (32)</text>
<polyline fill="none" stroke="black" points="1745.85,-485.5 2290.33,-485.5 "/>
<text text-anchor="middle" x="1835.56" y="-468.9" font-family="Courier New" font-size="14.00">unallocated (12)</text>
<polyline fill="none" stroke="black" points="1925.27,-460.7 1925.27,-485.5 "/>
<text text-anchor="middle" x="2107.4" y="-468.9" font-family="Courier New" font-size="14.00">address: DatasetOrder.apprestrict (20)</text>
<polyline fill="none" stroke="black" points="1745.85,-460.7 2290.33,-460.7 "/>
<text text-anchor="middle" x="1821.06" y="-444.1" font-family="Courier New" font-size="14.00">unallocated (12)</text>
<polyline fill="none" stroke="black" points="1896.27,-435.9 1896.27,-460.7 "/>
<text text-anchor="middle" x="2093.3" y="-444.1" font-family="Courier New" font-size="14.00">address: DatasetOrder.workerpoolrestrict (20)</text>
<polyline fill="none" stroke="black" points="1745.85,-435.9 2290.33,-435.9 "/>
<text text-anchor="middle" x="1823.06" y="-419.3" font-family="Courier New" font-size="14.00">unallocated (12)</text>
<polyline fill="none" stroke="black" points="1900.27,-411.1 1900.27,-435.9 "/>
<text text-anchor="middle" x="2095.1" y="-419.3" font-family="Courier New" font-size="14.00">address: DatasetOrder.requesterrestrict (20)</text>
<polyline fill="none" stroke="black" points="1745.85,-411.1 2290.33,-411.1 "/>
<text text-anchor="middle" x="2018.07" y="-394.5" font-family="Courier New" font-size="14.00">bytes32: DatasetOrder.salt (32)</text>
<polyline fill="none" stroke="black" points="1745.85,-386.3 2290.33,-386.3 "/>
<text text-anchor="middle" x="2017.67" y="-369.7" font-family="Courier New" font-size="14.00">bytes: DatasetOrder.sign (32)</text>
</g>
<!-- 4&#45;&gt;1 -->
<g id="edge4" class="edge">
<title>4:12&#45;&gt;1</title>
<path fill="none" stroke="black" d="M1643.44,-656.9C1682.84,-656.9 1648.11,-714.02 1679.44,-737.9 1682.15,-739.97 1684.92,-741.96 1687.73,-743.88"/>
<polygon fill="black" stroke="black" points="1686.02,-746.94 1696.32,-749.42 1689.81,-741.06 1686.02,-746.94"/>
</g>
<!-- 4&#45;&gt;2 -->
<g id="edge5" class="edge">
<title>4:16&#45;&gt;2</title>
<path fill="none" stroke="black" d="M1643.44,-606.9C1666.39,-606.9 1659.05,-633.38 1679.44,-643.9 1683.32,-645.9 1687.26,-647.82 1691.25,-649.66"/>
<polygon fill="black" stroke="black" points="1690.1,-652.98 1700.66,-653.82 1692.93,-646.58 1690.1,-652.98"/>
</g>
<!-- 4&#45;&gt;3 -->
<g id="edge6" class="edge">
<title>4:26&#45;&gt;3</title>
<path fill="none" stroke="black" d="M1643.44,-581.9C1651.87,-581.9 1660.37,-581.65 1668.93,-581.19"/>
<polygon fill="black" stroke="black" points="1669.24,-584.68 1679,-580.55 1668.79,-577.69 1669.24,-584.68"/>
</g>
<!-- 5 -->
<g id="node6" class="node">
<title>5</title>
<polygon fill="#f2f2f2" stroke="black" points="1696.65,-267.7 1696.65,-342.1 2273.13,-342.1 2273.13,-267.7 1696.65,-267.7"/>
<text text-anchor="middle" x="1984.89" y="-325.5" font-family="Courier New" font-size="14.00">SubscriptionParams &lt;&lt;Struct&gt;&gt;</text>
<polyline fill="none" stroke="black" points="1696.65,-317.3 2273.13,-317.3 "/>
<text text-anchor="middle" x="1729.85" y="-300.7" font-family="Courier New" font-size="14.00">offset</text>
<polyline fill="none" stroke="black" points="1696.65,-292.5 1763.06,-292.5 "/>
<text text-anchor="middle" x="1729.85" y="-275.9" font-family="Courier New" font-size="14.00">0</text>
<polyline fill="none" stroke="black" points="1763.06,-267.7 1763.06,-317.3 "/>
<text text-anchor="middle" x="2018.09" y="-300.7" font-family="Courier New" font-size="14.00">type: variable (bytes)</text>
<polyline fill="none" stroke="black" points="1763.06,-292.5 2273.13,-292.5 "/>
<text text-anchor="middle" x="1838.27" y="-275.9" font-family="Courier New" font-size="14.00">unallocated (12)</text>
<polyline fill="none" stroke="black" points="1913.48,-267.7 1913.48,-292.5 "/>
<text text-anchor="middle" x="2005.49" y="-275.9" font-family="Courier New" font-size="14.00">uint48: duration (6)</text>
<polyline fill="none" stroke="black" points="2097.5,-267.7 2097.5,-292.5 "/>
<text text-anchor="middle" x="2185.32" y="-275.9" font-family="Courier New" font-size="14.00">uint112: price (14)</text>
</g>
<!-- 6&#45;&gt;5 -->
<g id="edge7" class="edge">
<title>6:32&#45;&gt;5</title>
<path fill="none" stroke="black" d="M1422.57,-329.9C1508.31,-329.9 1601.34,-326.95 1686.55,-323.08"/>
<polygon fill="black" stroke="black" points="1686.81,-326.57 1696.64,-322.62 1686.49,-319.58 1686.81,-326.57"/>
</g>
</g>
</svg>
