<?xml version="1.0" encoding="UTF-8" standalone="no"?>
<!DOCTYPE svg PUBLIC "-//W3C//DTD SVG 1.1//EN"
 "http://www.w3.org/Graphics/SVG/1.1/DTD/svg11.dtd">
<!-- Generated by graphviz version 5.0.0 (20220707.1540)
 -->
<!-- Title: StorageDiagram Pages: 1 -->
<svg width="1802pt" height="574pt"
 viewBox="0.00 0.00 1801.87 573.80" xmlns="http://www.w3.org/2000/svg" xmlns:xlink="http://www.w3.org/1999/xlink">
<g id="graph0" class="graph" transform="scale(1 1) rotate(0) translate(4 569.8)">
<title>StorageDiagram</title>
<polygon fill="white" stroke="transparent" points="-4,4 -4,-569.8 1797.87,-569.8 1797.87,4 -4,4"/>
<!-- 4 -->
<g id="node1" class="node">
<title>4</title>
<polygon fill="#f2f2f2" stroke="black" points="0,-118.9 0,-565.3 762.92,-565.3 762.92,-118.9 0,-118.9"/>
<text text-anchor="middle" x="381.46" y="-548.7" font-family="Courier New" font-size="14.00">ProtectedDataSharing &lt;&lt;Contract&gt;&gt;</text>
<polyline fill="none" stroke="black" points="0,-540.5 762.92,-540.5 "/>
<text text-anchor="middle" x="24.8" y="-523.9" font-family="Courier New" font-size="14.00">slot</text>
<polyline fill="none" stroke="black" points="0,-515.7 49.61,-515.7 "/>
<text text-anchor="middle" x="24.8" y="-499.1" font-family="Courier New" font-size="14.00">0</text>
<polyline fill="none" stroke="black" points="0,-490.9 49.61,-490.9 "/>
<text text-anchor="middle" x="24.8" y="-474.3" font-family="Courier New" font-size="14.00">1</text>
<polyline fill="none" stroke="black" points="0,-466.1 49.61,-466.1 "/>
<text text-anchor="middle" x="24.8" y="-449.5" font-family="Courier New" font-size="14.00">2</text>
<polyline fill="none" stroke="black" points="0,-441.3 49.61,-441.3 "/>
<text text-anchor="middle" x="24.8" y="-424.7" font-family="Courier New" font-size="14.00">3</text>
<polyline fill="none" stroke="black" points="0,-416.5 49.61,-416.5 "/>
<text text-anchor="middle" x="24.8" y="-399.9" font-family="Courier New" font-size="14.00">4</text>
<polyline fill="none" stroke="black" points="0,-391.7 49.61,-391.7 "/>
<text text-anchor="middle" x="24.8" y="-375.1" font-family="Courier New" font-size="14.00">5</text>
<polyline fill="none" stroke="black" points="0,-366.9 49.61,-366.9 "/>
<text text-anchor="middle" x="24.8" y="-350.3" font-family="Courier New" font-size="14.00">6</text>
<polyline fill="none" stroke="black" points="0,-342.1 49.61,-342.1 "/>
<text text-anchor="middle" x="24.8" y="-325.5" font-family="Courier New" font-size="14.00">7</text>
<polyline fill="none" stroke="black" points="0,-317.3 49.61,-317.3 "/>
<text text-anchor="middle" x="24.8" y="-300.7" font-family="Courier New" font-size="14.00">8</text>
<polyline fill="none" stroke="black" points="0,-292.5 49.61,-292.5 "/>
<text text-anchor="middle" x="24.8" y="-275.9" font-family="Courier New" font-size="14.00">9</text>
<polyline fill="none" stroke="black" points="0,-267.7 49.61,-267.7 "/>
<text text-anchor="middle" x="24.8" y="-251.1" font-family="Courier New" font-size="14.00">10</text>
<polyline fill="none" stroke="black" points="0,-242.9 49.61,-242.9 "/>
<text text-anchor="middle" x="24.8" y="-226.3" font-family="Courier New" font-size="14.00">11</text>
<polyline fill="none" stroke="black" points="0,-218.1 49.61,-218.1 "/>
<text text-anchor="middle" x="24.8" y="-201.5" font-family="Courier New" font-size="14.00">12</text>
<polyline fill="none" stroke="black" points="0,-193.3 49.61,-193.3 "/>
<text text-anchor="middle" x="24.8" y="-176.7" font-family="Courier New" font-size="14.00">13</text>
<polyline fill="none" stroke="black" points="0,-168.5 49.61,-168.5 "/>
<text text-anchor="middle" x="24.8" y="-151.9" font-family="Courier New" font-size="14.00">14</text>
<polyline fill="none" stroke="black" points="0,-143.7 49.61,-143.7 "/>
<text text-anchor="middle" x="24.8" y="-127.1" font-family="Courier New" font-size="14.00">15</text>
<polyline fill="none" stroke="black" points="49.61,-118.9 49.61,-540.5 "/>
<text text-anchor="middle" x="406.26" y="-523.9" font-family="Courier New" font-size="14.00">type: &lt;inherited contract&gt;.variable (bytes)</text>
<polyline fill="none" stroke="black" points="49.61,-515.7 762.92,-515.7 "/>
<text text-anchor="middle" x="202.32" y="-499.1" font-family="Courier New" font-size="14.00">unallocated (12)</text>
<polyline fill="none" stroke="black" points="355.03,-490.9 355.03,-515.7 "/>
<text text-anchor="middle" x="558.65" y="-499.1" font-family="Courier New" font-size="14.00">address: Ownable._owner (20)</text>
<polyline fill="none" stroke="black" points="49.61,-490.9 762.92,-490.9 "/>
<text text-anchor="middle" x="183.82" y="-474.3" font-family="Courier New" font-size="14.00">unallocated (12)</text>
<polyline fill="none" stroke="black" points="318.03,-466.1 318.03,-490.9 "/>
<text text-anchor="middle" x="540.45" y="-474.3" font-family="Courier New" font-size="14.00">address: ManageOrders.appAddress (20)</text>
<polyline fill="none" stroke="black" points="49.61,-466.1 762.92,-466.1 "/>
<text text-anchor="middle" x="406.23" y="-449.5" font-family="Courier New" font-size="14.00">bytes: ManageOrders.nullSign (32)</text>
<polyline fill="none" stroke="black" points="49.61,-441.3 762.92,-441.3 "/>
<text text-anchor="middle" x="406.14" y="-424.7" font-family="Courier New" font-size="14.00">string: ManageOrders.iexec_result_storage_provider (32)</text>
<polyline fill="none" stroke="black" points="49.61,-416.5 762.92,-416.5 "/>
<text text-anchor="middle" x="406.04" y="-399.9" font-family="Courier New" font-size="14.00">string: ManageOrders.iexec_result_storage_proxy (32)</text>
<polyline fill="none" stroke="black" points="49.61,-391.7 762.92,-391.7 "/>
<text text-anchor="middle" x="405.83" y="-375.1" font-family="Courier New" font-size="14.00">string: ManageOrders.iexec_args (32)</text>
<polyline fill="none" stroke="black" points="49.61,-366.9 762.92,-366.9 "/>
<text text-anchor="middle" x="406.12" y="-350.3" font-family="Courier New" font-size="14.00">string: ERC721._name (32)</text>
<polyline fill="none" stroke="black" points="49.61,-342.1 762.92,-342.1 "/>
<text text-anchor="middle" x="406.02" y="-325.5" font-family="Courier New" font-size="14.00">string: ERC721._symbol (32)</text>
<polyline fill="none" stroke="black" points="49.61,-317.3 762.92,-317.3 "/>
<text text-anchor="middle" x="405.84" y="-300.7" font-family="Courier New" font-size="14.00">mapping(uint256=&gt;address): ERC721._owners (32)</text>
<polyline fill="none" stroke="black" points="49.61,-292.5 762.92,-292.5 "/>
<text text-anchor="middle" x="406.24" y="-275.9" font-family="Courier New" font-size="14.00">mapping(address=&gt;uint256): ERC721._balances (32)</text>
<polyline fill="none" stroke="black" points="49.61,-267.7 762.92,-267.7 "/>
<text text-anchor="middle" x="405.94" y="-251.1" font-family="Courier New" font-size="14.00">mapping(uint256=&gt;address): ERC721._tokenApprovals (32)</text>
<polyline fill="none" stroke="black" points="49.61,-242.9 762.92,-242.9 "/>
<text text-anchor="middle" x="406.05" y="-226.3" font-family="Courier New" font-size="14.00">mapping(address=&gt;mapping(address=&gt;bool)): ERC721._operatorApprovals (32)</text>
<polyline fill="none" stroke="black" points="49.61,-218.1 762.92,-218.1 "/>
<text text-anchor="middle" x="406.03" y="-201.5" font-family="Courier New" font-size="14.00">uint256: Collection._nextCollectionId (32)</text>
<polyline fill="none" stroke="black" points="49.61,-193.3 762.92,-193.3 "/>
<text text-anchor="middle" x="405.95" y="-176.7" font-family="Courier New" font-size="14.00">mapping(uint256=&gt;mapping(uint160=&gt;Content)): Collection.contents (32)</text>
<polyline fill="none" stroke="black" points="49.61,-168.5 762.92,-168.5 "/>
<text text-anchor="middle" x="406.26" y="-151.9" font-family="Courier New" font-size="14.00">mapping(uint256=&gt;mapping(address=&gt;SubscriptionInfo)): Subscription.subscribers (32)</text>
<polyline fill="none" stroke="black" points="49.61,-143.7 762.92,-143.7 "/>
<text text-anchor="middle" x="405.96" y="-127.1" font-family="Courier New" font-size="14.00">mapping(uint256=&gt;SubscriptionParams): Subscription.subscriptionParams (32)</text>
</g>
<!-- 1 -->
<g id="node2" class="node">
<title>1</title>
<polygon fill="#f2f2f2" stroke="black" points="798.92,-211.9 798.92,-286.3 1793.87,-286.3 1793.87,-211.9 798.92,-211.9"/>
<text text-anchor="middle" x="1296.39" y="-269.7" font-family="Courier New" font-size="14.00">Content &lt;&lt;Struct&gt;&gt;</text>
<polyline fill="none" stroke="black" points="798.92,-261.5 1793.87,-261.5 "/>
<text text-anchor="middle" x="832.12" y="-244.9" font-family="Courier New" font-size="14.00">offset</text>
<polyline fill="none" stroke="black" points="798.92,-236.7 865.33,-236.7 "/>
<text text-anchor="middle" x="832.12" y="-220.1" font-family="Courier New" font-size="14.00">0</text>
<polyline fill="none" stroke="black" points="865.33,-211.9 865.33,-261.5 "/>
<text text-anchor="middle" x="1329.6" y="-244.9" font-family="Courier New" font-size="14.00">type: variable (bytes)</text>
<polyline fill="none" stroke="black" points="865.33,-236.7 1793.87,-236.7 "/>
<text text-anchor="middle" x="936.34" y="-220.1" font-family="Courier New" font-size="14.00">unallocated (9)</text>
<polyline fill="none" stroke="black" points="1007.35,-211.9 1007.35,-236.7 "/>
<text text-anchor="middle" x="1082.56" y="-220.1" font-family="Courier New" font-size="14.00">bool: inSale (1)</text>
<polyline fill="none" stroke="black" points="1157.77,-211.9 1157.77,-236.7 "/>
<text text-anchor="middle" x="1245.58" y="-220.1" font-family="Courier New" font-size="14.00">bool: inRenting (1)</text>
<polyline fill="none" stroke="black" points="1333.4,-211.9 1333.4,-236.7 "/>
<text text-anchor="middle" x="1442.21" y="-220.1" font-family="Courier New" font-size="14.00">bool: inSubscription (1)</text>
<polyline fill="none" stroke="black" points="1551.03,-211.9 1551.03,-236.7 "/>
<text text-anchor="middle" x="1672.45" y="-220.1" font-family="Courier New" font-size="14.00">address: protectedData (20)</text>
</g>
<!-- 4&#45;&gt;1 -->
<g id="edge1" class="edge">
<title>4:18&#45;&gt;1</title>
<path fill="none" stroke="black" d="M762.92,-181.1C781.67,-181.1 781.12,-197.19 798.92,-203.1 805.05,-205.14 811.25,-207.09 817.5,-208.97"/>
<polygon fill="black" stroke="black" points="816.79,-212.41 827.37,-211.86 818.76,-205.69 816.79,-212.41"/>
</g>
<!-- 2 -->
<g id="node3" class="node">
<title>2</title>
<polygon fill="#f2f2f2" stroke="black" points="1162.77,-118.9 1162.77,-193.3 1430.01,-193.3 1430.01,-118.9 1162.77,-118.9"/>
<text text-anchor="middle" x="1296.39" y="-176.7" font-family="Courier New" font-size="14.00">SubscriptionInfo &lt;&lt;Struct&gt;&gt;</text>
<polyline fill="none" stroke="black" points="1162.77,-168.5 1430.01,-168.5 "/>
<text text-anchor="middle" x="1195.98" y="-151.9" font-family="Courier New" font-size="14.00">offset</text>
<polyline fill="none" stroke="black" points="1162.77,-143.7 1229.18,-143.7 "/>
<text text-anchor="middle" x="1195.98" y="-127.1" font-family="Courier New" font-size="14.00">0</text>
<polyline fill="none" stroke="black" points="1229.18,-118.9 1229.18,-168.5 "/>
<text text-anchor="middle" x="1329.6" y="-151.9" font-family="Courier New" font-size="14.00">type: variable (bytes)</text>
<polyline fill="none" stroke="black" points="1229.18,-143.7 1430.01,-143.7 "/>
<text text-anchor="middle" x="1329.4" y="-127.1" font-family="Courier New" font-size="14.00">uint256: endDate (32)</text>
</g>
<!-- 4&#45;&gt;2 -->
<g id="edge2" class="edge">
<title>4:20&#45;&gt;2</title>
<path fill="none" stroke="black" d="M762.92,-156.1C894.9,-156.1 1045.28,-156.1 1152.49,-156.1"/>
<polygon fill="black" stroke="black" points="1152.73,-159.6 1162.73,-156.1 1152.73,-152.6 1152.73,-159.6"/>
</g>
<!-- 3 -->
<g id="node4" class="node">
<title>3</title>
<polygon fill="#f2f2f2" stroke="black" points="1162.77,-0.5 1162.77,-99.7 1430.01,-99.7 1430.01,-0.5 1162.77,-0.5"/>
<text text-anchor="middle" x="1296.39" y="-83.1" font-family="Courier New" font-size="14.00">SubscriptionParams &lt;&lt;Struct&gt;&gt;</text>
<polyline fill="none" stroke="black" points="1162.77,-74.9 1430.01,-74.9 "/>
<text text-anchor="middle" x="1195.98" y="-58.3" font-family="Courier New" font-size="14.00">offset</text>
<polyline fill="none" stroke="black" points="1162.77,-50.1 1229.18,-50.1 "/>
<text text-anchor="middle" x="1195.98" y="-33.5" font-family="Courier New" font-size="14.00">0</text>
<polyline fill="none" stroke="black" points="1162.77,-25.3 1229.18,-25.3 "/>
<text text-anchor="middle" x="1195.98" y="-8.7" font-family="Courier New" font-size="14.00">1</text>
<polyline fill="none" stroke="black" points="1229.18,-0.5 1229.18,-74.9 "/>
<text text-anchor="middle" x="1329.6" y="-58.3" font-family="Courier New" font-size="14.00">type: variable (bytes)</text>
<polyline fill="none" stroke="black" points="1229.18,-50.1 1430.01,-50.1 "/>
<text text-anchor="middle" x="1329.49" y="-33.5" font-family="Courier New" font-size="14.00">uint256: price (32)</text>
<polyline fill="none" stroke="black" points="1229.18,-25.3 1430.01,-25.3 "/>
<text text-anchor="middle" x="1329.6" y="-8.7" font-family="Courier New" font-size="14.00">uint256: duration (32)</text>
</g>
<!-- 4&#45;&gt;3 -->
<g id="edge3" class="edge">
<title>4:23&#45;&gt;3</title>
<path fill="none" stroke="black" d="M762.92,-131.1C781.67,-131.1 781.2,-115.24 798.92,-109.1 913.6,-69.38 1051.11,-55.45 1152.31,-50.98"/>
<polygon fill="black" stroke="black" points="1152.76,-54.47 1162.6,-50.56 1152.47,-47.47 1152.76,-54.47"/>
</g>
</g>
</svg>
