<?xml version="1.0" encoding="UTF-8" standalone="no"?>
<!DOCTYPE svg PUBLIC "-//W3C//DTD SVG 1.1//EN"
 "http://www.w3.org/Graphics/SVG/1.1/DTD/svg11.dtd">
<!-- Generated by graphviz version 5.0.0 (20220707.1540)
 -->
<!-- Title: StorageDiagram Pages: 1 -->
<svg width="1576pt" height="524pt"
 viewBox="0.00 0.00 1575.83 523.80" xmlns="http://www.w3.org/2000/svg" xmlns:xlink="http://www.w3.org/1999/xlink">
<g id="graph0" class="graph" transform="scale(1 1) rotate(0) translate(4 519.8)">
<title>StorageDiagram</title>
<polygon fill="white" stroke="transparent" points="-4,4 -4,-519.8 1571.83,-519.8 1571.83,4 -4,4"/>
<!-- 4 -->
<g id="node1" class="node">
<title>4</title>
<polygon fill="#f2f2f2" stroke="black" points="0,-44.1 0,-515.3 779.72,-515.3 779.72,-44.1 0,-44.1"/>
<text text-anchor="middle" x="389.86" y="-498.7" font-family="Courier New" font-size="14.00">ProtectedDataSharing &lt;&lt;Contract&gt;&gt;</text>
<polyline fill="none" stroke="black" points="0,-490.5 779.72,-490.5 "/>
<text text-anchor="middle" x="24.8" y="-473.9" font-family="Courier New" font-size="14.00">slot</text>
<polyline fill="none" stroke="black" points="0,-465.7 49.61,-465.7 "/>
<text text-anchor="middle" x="24.8" y="-449.1" font-family="Courier New" font-size="14.00">0</text>
<polyline fill="none" stroke="black" points="0,-440.9 49.61,-440.9 "/>
<text text-anchor="middle" x="24.8" y="-424.3" font-family="Courier New" font-size="14.00">1</text>
<polyline fill="none" stroke="black" points="0,-416.1 49.61,-416.1 "/>
<text text-anchor="middle" x="24.8" y="-399.5" font-family="Courier New" font-size="14.00">2</text>
<polyline fill="none" stroke="black" points="0,-391.3 49.61,-391.3 "/>
<text text-anchor="middle" x="24.8" y="-374.7" font-family="Courier New" font-size="14.00">3</text>
<polyline fill="none" stroke="black" points="0,-366.5 49.61,-366.5 "/>
<text text-anchor="middle" x="24.8" y="-349.9" font-family="Courier New" font-size="14.00">4</text>
<polyline fill="none" stroke="black" points="0,-341.7 49.61,-341.7 "/>
<text text-anchor="middle" x="24.8" y="-325.1" font-family="Courier New" font-size="14.00">5</text>
<polyline fill="none" stroke="black" points="0,-316.9 49.61,-316.9 "/>
<text text-anchor="middle" x="24.8" y="-300.3" font-family="Courier New" font-size="14.00">6</text>
<polyline fill="none" stroke="black" points="0,-292.1 49.61,-292.1 "/>
<text text-anchor="middle" x="24.8" y="-275.5" font-family="Courier New" font-size="14.00">7</text>
<polyline fill="none" stroke="black" points="0,-267.3 49.61,-267.3 "/>
<text text-anchor="middle" x="24.8" y="-250.7" font-family="Courier New" font-size="14.00">8</text>
<polyline fill="none" stroke="black" points="0,-242.5 49.61,-242.5 "/>
<text text-anchor="middle" x="24.8" y="-225.9" font-family="Courier New" font-size="14.00">9</text>
<polyline fill="none" stroke="black" points="0,-217.7 49.61,-217.7 "/>
<text text-anchor="middle" x="24.8" y="-201.1" font-family="Courier New" font-size="14.00">10</text>
<polyline fill="none" stroke="black" points="0,-192.9 49.61,-192.9 "/>
<text text-anchor="middle" x="24.8" y="-176.3" font-family="Courier New" font-size="14.00">11</text>
<polyline fill="none" stroke="black" points="0,-168.1 49.61,-168.1 "/>
<text text-anchor="middle" x="24.8" y="-151.5" font-family="Courier New" font-size="14.00">12</text>
<polyline fill="none" stroke="black" points="0,-143.3 49.61,-143.3 "/>
<text text-anchor="middle" x="24.8" y="-126.7" font-family="Courier New" font-size="14.00">13</text>
<polyline fill="none" stroke="black" points="0,-118.5 49.61,-118.5 "/>
<text text-anchor="middle" x="24.8" y="-101.9" font-family="Courier New" font-size="14.00">14</text>
<polyline fill="none" stroke="black" points="0,-93.7 49.61,-93.7 "/>
<text text-anchor="middle" x="24.8" y="-77.1" font-family="Courier New" font-size="14.00">15</text>
<polyline fill="none" stroke="black" points="0,-68.9 49.61,-68.9 "/>
<text text-anchor="middle" x="24.8" y="-52.3" font-family="Courier New" font-size="14.00">16</text>
<polyline fill="none" stroke="black" points="49.61,-44.1 49.61,-490.5 "/>
<text text-anchor="middle" x="414.66" y="-473.9" font-family="Courier New" font-size="14.00">type: &lt;inherited contract&gt;.variable (bytes)</text>
<polyline fill="none" stroke="black" points="49.61,-465.7 779.72,-465.7 "/>
<text text-anchor="middle" x="173.32" y="-449.1" font-family="Courier New" font-size="14.00">unallocated (12)</text>
<polyline fill="none" stroke="black" points="297.03,-440.9 297.03,-465.7 "/>
<text text-anchor="middle" x="538.36" y="-449.1" font-family="Courier New" font-size="14.00">IExecPocoDelegate: Store.m_pocoDelegate (20)</text>
<polyline fill="none" stroke="black" points="49.61,-440.9 779.72,-440.9 "/>
<text text-anchor="middle" x="202.32" y="-424.3" font-family="Courier New" font-size="14.00">unallocated (12)</text>
<polyline fill="none" stroke="black" points="355.03,-416.1 355.03,-440.9 "/>
<text text-anchor="middle" x="567.05" y="-424.3" font-family="Courier New" font-size="14.00">address: Store.appAddress (20)</text>
<polyline fill="none" stroke="black" points="49.61,-416.1 779.72,-416.1 "/>
<text text-anchor="middle" x="414.24" y="-399.5" font-family="Courier New" font-size="14.00">string: Store.iexec_result_storage_provider (32)</text>
<polyline fill="none" stroke="black" points="49.61,-391.3 779.72,-391.3 "/>
<text text-anchor="middle" x="414.64" y="-374.7" font-family="Courier New" font-size="14.00">string: Store.iexec_result_storage_proxy (32)</text>
<polyline fill="none" stroke="black" points="49.61,-366.5 779.72,-366.5 "/>
<text text-anchor="middle" x="414.66" y="-349.9" font-family="Courier New" font-size="14.00">mapping(uint256=&gt;mapping(address=&gt;address)): Store.appForProtectedData (32)</text>
<polyline fill="none" stroke="black" points="49.61,-341.7 779.72,-341.7 "/>
<text text-anchor="middle" x="175.32" y="-325.1" font-family="Courier New" font-size="14.00">unallocated (12)</text>
<polyline fill="none" stroke="black" points="301.03,-316.9 301.03,-341.7 "/>
<text text-anchor="middle" x="540.16" y="-325.1" font-family="Courier New" font-size="14.00">IRegistry: Store.protectedDataRegistry (20)</text>
<polyline fill="none" stroke="black" points="49.61,-316.9 779.72,-316.9 "/>
<text text-anchor="middle" x="196.32" y="-300.3" font-family="Courier New" font-size="14.00">unallocated (12)</text>
<polyline fill="none" stroke="black" points="343.03,-292.1 343.03,-316.9 "/>
<text text-anchor="middle" x="561.15" y="-300.3" font-family="Courier New" font-size="14.00">IRegistry: Store.appRegistry (20)</text>
<polyline fill="none" stroke="black" points="49.61,-292.1 779.72,-292.1 "/>
<text text-anchor="middle" x="414.53" y="-275.5" font-family="Courier New" font-size="14.00">uint256: Store._nextCollectionId (32)</text>
<polyline fill="none" stroke="black" points="49.61,-267.3 779.72,-267.3 "/>
<text text-anchor="middle" x="414.65" y="-250.7" font-family="Courier New" font-size="14.00">mapping(uint256=&gt;mapping(uint160=&gt;address)): Store.protectedDatas (32)</text>
<polyline fill="none" stroke="black" points="49.61,-242.5 779.72,-242.5 "/>
<text text-anchor="middle" x="414.66" y="-225.9" font-family="Courier New" font-size="14.00">mapping(uint256=&gt;mapping(address=&gt;bool)): Store.protectedDataInSubscription (32)</text>
<polyline fill="none" stroke="black" points="49.61,-217.7 779.72,-217.7 "/>
<text text-anchor="middle" x="414.35" y="-201.1" font-family="Courier New" font-size="14.00">mapping(uint256=&gt;mapping(address=&gt;uint48)): Store.subscribers (32)</text>
<polyline fill="none" stroke="black" points="49.61,-192.9 779.72,-192.9 "/>
<text text-anchor="middle" x="414.55" y="-176.3" font-family="Courier New" font-size="14.00">mapping(uint256=&gt;SubscriptionParams): Store.subscriptionParams (32)</text>
<polyline fill="none" stroke="black" points="49.61,-168.1 779.72,-168.1 "/>
<text text-anchor="middle" x="414.25" y="-151.5" font-family="Courier New" font-size="14.00">mapping(uint256=&gt;uint48): Store.lastSubscriptionExpiration (32)</text>
<polyline fill="none" stroke="black" points="49.61,-143.3 779.72,-143.3 "/>
<text text-anchor="middle" x="414.66" y="-126.7" font-family="Courier New" font-size="14.00">mapping(uint256=&gt;mapping(address=&gt;RentingParams)): Store.protectedDataForRenting (32)</text>
<polyline fill="none" stroke="black" points="49.61,-118.5 779.72,-118.5 "/>
<text text-anchor="middle" x="414.55" y="-101.9" font-family="Courier New" font-size="14.00">mapping(address=&gt;mapping(address=&gt;uint48)): Store.renters (32)</text>
<polyline fill="none" stroke="black" points="49.61,-93.7 779.72,-93.7 "/>
<text text-anchor="middle" x="414.54" y="-77.1" font-family="Courier New" font-size="14.00">mapping(address=&gt;uint48): Store.lastRentalExpiration (32)</text>
<polyline fill="none" stroke="black" points="49.61,-68.9 779.72,-68.9 "/>
<text text-anchor="middle" x="414.56" y="-52.3" font-family="Courier New" font-size="14.00">mapping(uint256=&gt;mapping(address=&gt;SellingParams)): Store.protectedDataForSale (32)</text>
</g>
<!-- 1 -->
<g id="node2" class="node">
<title>1</title>
<polygon fill="#f2f2f2" stroke="black" points="903.53,-186.5 903.53,-260.9 1480.02,-260.9 1480.02,-186.5 903.53,-186.5"/>
<text text-anchor="middle" x="1191.78" y="-244.3" font-family="Courier New" font-size="14.00">SubscriptionParams &lt;&lt;Struct&gt;&gt;</text>
<polyline fill="none" stroke="black" points="903.53,-236.1 1480.02,-236.1 "/>
<text text-anchor="middle" x="936.74" y="-219.5" font-family="Courier New" font-size="14.00">offset</text>
<polyline fill="none" stroke="black" points="903.53,-211.3 969.94,-211.3 "/>
<text text-anchor="middle" x="936.74" y="-194.7" font-family="Courier New" font-size="14.00">0</text>
<polyline fill="none" stroke="black" points="969.94,-186.5 969.94,-236.1 "/>
<text text-anchor="middle" x="1224.98" y="-219.5" font-family="Courier New" font-size="14.00">type: variable (bytes)</text>
<polyline fill="none" stroke="black" points="969.94,-211.3 1480.02,-211.3 "/>
<text text-anchor="middle" x="1045.15" y="-194.7" font-family="Courier New" font-size="14.00">unallocated (12)</text>
<polyline fill="none" stroke="black" points="1120.36,-186.5 1120.36,-211.3 "/>
<text text-anchor="middle" x="1212.38" y="-194.7" font-family="Courier New" font-size="14.00">uint48: duration (6)</text>
<polyline fill="none" stroke="black" points="1304.39,-186.5 1304.39,-211.3 "/>
<text text-anchor="middle" x="1392.21" y="-194.7" font-family="Courier New" font-size="14.00">uint112: price (14)</text>
</g>
<!-- 4&#45;&gt;1 -->
<g id="edge1" class="edge">
<title>4:14&#45;&gt;1</title>
<path fill="none" stroke="black" d="M779.72,-180.7C818.83,-180.7 859.92,-182.65 900.37,-185.72"/>
<polygon fill="black" stroke="black" points="900.12,-189.21 910.37,-186.5 900.67,-182.23 900.12,-189.21"/>
</g>
<!-- 2 -->
<g id="node3" class="node">
<title>2</title>
<polygon fill="#f2f2f2" stroke="black" points="815.72,-93.5 815.72,-167.9 1567.83,-167.9 1567.83,-93.5 815.72,-93.5"/>
<text text-anchor="middle" x="1191.78" y="-151.3" font-family="Courier New" font-size="14.00">RentingParams &lt;&lt;Struct&gt;&gt;</text>
<polyline fill="none" stroke="black" points="815.72,-143.1 1567.83,-143.1 "/>
<text text-anchor="middle" x="848.93" y="-126.5" font-family="Courier New" font-size="14.00">offset</text>
<polyline fill="none" stroke="black" points="815.72,-118.3 882.13,-118.3 "/>
<text text-anchor="middle" x="848.93" y="-101.7" font-family="Courier New" font-size="14.00">0</text>
<polyline fill="none" stroke="black" points="882.13,-93.5 882.13,-143.1 "/>
<text text-anchor="middle" x="1224.98" y="-126.5" font-family="Courier New" font-size="14.00">type: variable (bytes)</text>
<polyline fill="none" stroke="black" points="882.13,-118.3 1567.83,-118.3 "/>
<text text-anchor="middle" x="957.34" y="-101.7" font-family="Courier New" font-size="14.00">unallocated (11)</text>
<polyline fill="none" stroke="black" points="1032.55,-93.5 1032.55,-118.3 "/>
<text text-anchor="middle" x="1124.57" y="-101.7" font-family="Courier New" font-size="14.00">uint48: duration (6)</text>
<polyline fill="none" stroke="black" points="1216.58,-93.5 1216.58,-118.3 "/>
<text text-anchor="middle" x="1304.39" y="-101.7" font-family="Courier New" font-size="14.00">uint112: price (14)</text>
<polyline fill="none" stroke="black" points="1392.21,-93.5 1392.21,-118.3 "/>
<text text-anchor="middle" x="1480.02" y="-101.7" font-family="Courier New" font-size="14.00">bool: isForRent (1)</text>
</g>
<!-- 4&#45;&gt;2 -->
<g id="edge2" class="edge">
<title>4:19&#45;&gt;2</title>
<path fill="none" stroke="black" d="M779.72,-130.7C788.18,-130.7 796.75,-130.7 805.38,-130.7"/>
<polygon fill="black" stroke="black" points="805.54,-134.2 815.54,-130.7 805.54,-127.2 805.54,-134.2"/>
</g>
<!-- 3 -->
<g id="node4" class="node">
<title>3</title>
<polygon fill="#f2f2f2" stroke="black" points="907.74,-0.5 907.74,-74.9 1475.82,-74.9 1475.82,-0.5 907.74,-0.5"/>
<text text-anchor="middle" x="1191.78" y="-58.3" font-family="Courier New" font-size="14.00">SellingParams &lt;&lt;Struct&gt;&gt;</text>
<polyline fill="none" stroke="black" points="907.74,-50.1 1475.82,-50.1 "/>
<text text-anchor="middle" x="940.94" y="-33.5" font-family="Courier New" font-size="14.00">offset</text>
<polyline fill="none" stroke="black" points="907.74,-25.3 974.14,-25.3 "/>
<text text-anchor="middle" x="940.94" y="-8.7" font-family="Courier New" font-size="14.00">0</text>
<polyline fill="none" stroke="black" points="974.14,-0.5 974.14,-50.1 "/>
<text text-anchor="middle" x="1224.98" y="-33.5" font-family="Courier New" font-size="14.00">type: variable (bytes)</text>
<polyline fill="none" stroke="black" points="974.14,-25.3 1475.82,-25.3 "/>
<text text-anchor="middle" x="1049.35" y="-8.7" font-family="Courier New" font-size="14.00">unallocated (17)</text>
<polyline fill="none" stroke="black" points="1124.57,-0.5 1124.57,-25.3 "/>
<text text-anchor="middle" x="1212.38" y="-8.7" font-family="Courier New" font-size="14.00">uint112: price (14)</text>
<polyline fill="none" stroke="black" points="1300.19,-0.5 1300.19,-25.3 "/>
<text text-anchor="middle" x="1388" y="-8.7" font-family="Courier New" font-size="14.00">bool: isForSale (1)</text>
</g>
<!-- 4&#45;&gt;3 -->
<g id="edge3" class="edge">
<title>4:24&#45;&gt;3</title>
<path fill="none" stroke="black" d="M779.72,-56.7C817.84,-56.7 857.92,-55.87 897.49,-54.57"/>
<polygon fill="black" stroke="black" points="897.67,-58.06 907.54,-54.23 897.43,-51.07 897.67,-58.06"/>
</g>
</g>
</svg>
