<?xml version="1.0" encoding="UTF-8" standalone="no"?>
<!DOCTYPE svg PUBLIC "-//W3C//DTD SVG 1.1//EN"
 "http://www.w3.org/Graphics/SVG/1.1/DTD/svg11.dtd">
<!-- Generated by graphviz version 5.0.0 (20220707.1540)
 -->
<!-- Title: StorageDiagram Pages: 1 -->
<svg width="1567pt" height="449pt"
 viewBox="0.00 0.00 1567.43 449.20" xmlns="http://www.w3.org/2000/svg" xmlns:xlink="http://www.w3.org/1999/xlink">
<g id="graph0" class="graph" transform="scale(1 1) rotate(0) translate(4 445.2)">
<title>StorageDiagram</title>
<polygon fill="white" stroke="transparent" points="-4,4 -4,-445.2 1563.43,-445.2 1563.43,4 -4,4"/>
<!-- 4 -->
<g id="node1" class="node">
<title>4</title>
<polygon fill="#f2f2f2" stroke="black" points="0,-68.7 0,-440.7 771.32,-440.7 771.32,-68.7 0,-68.7"/>
<text text-anchor="middle" x="385.66" y="-424.1" font-family="Courier New" font-size="14.00">ProtectedDataSharing &lt;&lt;Contract&gt;&gt;</text>
<polyline fill="none" stroke="black" points="0,-415.9 771.32,-415.9 "/>
<text text-anchor="middle" x="24.8" y="-399.3" font-family="Courier New" font-size="14.00">slot</text>
<polyline fill="none" stroke="black" points="0,-391.1 49.61,-391.1 "/>
<text text-anchor="middle" x="24.8" y="-374.5" font-family="Courier New" font-size="14.00">0</text>
<polyline fill="none" stroke="black" points="0,-366.3 49.61,-366.3 "/>
<text text-anchor="middle" x="24.8" y="-349.7" font-family="Courier New" font-size="14.00">1</text>
<polyline fill="none" stroke="black" points="0,-341.5 49.61,-341.5 "/>
<text text-anchor="middle" x="24.8" y="-324.9" font-family="Courier New" font-size="14.00">2</text>
<polyline fill="none" stroke="black" points="0,-316.7 49.61,-316.7 "/>
<text text-anchor="middle" x="24.8" y="-300.1" font-family="Courier New" font-size="14.00">3</text>
<polyline fill="none" stroke="black" points="0,-291.9 49.61,-291.9 "/>
<text text-anchor="middle" x="24.8" y="-275.3" font-family="Courier New" font-size="14.00">4</text>
<polyline fill="none" stroke="black" points="0,-267.1 49.61,-267.1 "/>
<text text-anchor="middle" x="24.8" y="-250.5" font-family="Courier New" font-size="14.00">5</text>
<polyline fill="none" stroke="black" points="0,-242.3 49.61,-242.3 "/>
<text text-anchor="middle" x="24.8" y="-225.7" font-family="Courier New" font-size="14.00">6</text>
<polyline fill="none" stroke="black" points="0,-217.5 49.61,-217.5 "/>
<text text-anchor="middle" x="24.8" y="-200.9" font-family="Courier New" font-size="14.00">7</text>
<polyline fill="none" stroke="black" points="0,-192.7 49.61,-192.7 "/>
<text text-anchor="middle" x="24.8" y="-176.1" font-family="Courier New" font-size="14.00">8</text>
<polyline fill="none" stroke="black" points="0,-167.9 49.61,-167.9 "/>
<text text-anchor="middle" x="24.8" y="-151.3" font-family="Courier New" font-size="14.00">9</text>
<polyline fill="none" stroke="black" points="0,-143.1 49.61,-143.1 "/>
<text text-anchor="middle" x="24.8" y="-126.5" font-family="Courier New" font-size="14.00">10</text>
<polyline fill="none" stroke="black" points="0,-118.3 49.61,-118.3 "/>
<text text-anchor="middle" x="24.8" y="-101.7" font-family="Courier New" font-size="14.00">11</text>
<polyline fill="none" stroke="black" points="0,-93.5 49.61,-93.5 "/>
<text text-anchor="middle" x="24.8" y="-76.9" font-family="Courier New" font-size="14.00">12</text>
<polyline fill="none" stroke="black" points="49.61,-68.7 49.61,-415.9 "/>
<text text-anchor="middle" x="410.46" y="-399.3" font-family="Courier New" font-size="14.00">type: &lt;inherited contract&gt;.variable (bytes)</text>
<polyline fill="none" stroke="black" points="49.61,-391.1 771.32,-391.1 "/>
<text text-anchor="middle" x="204.82" y="-374.5" font-family="Courier New" font-size="14.00">unallocated (12)</text>
<polyline fill="none" stroke="black" points="360.03,-366.3 360.03,-391.1 "/>
<text text-anchor="middle" x="565.65" y="-374.5" font-family="Courier New" font-size="14.00">address: Ownable._owner (20)</text>
<polyline fill="none" stroke="black" points="49.61,-366.3 771.32,-366.3 "/>
<text text-anchor="middle" x="200.32" y="-349.7" font-family="Courier New" font-size="14.00">unallocated (12)</text>
<polyline fill="none" stroke="black" points="351.03,-341.5 351.03,-366.3 "/>
<text text-anchor="middle" x="561.05" y="-349.7" font-family="Courier New" font-size="14.00">address: Store.appAddress (20)</text>
<polyline fill="none" stroke="black" points="49.61,-341.5 771.32,-341.5 "/>
<text text-anchor="middle" x="410.32" y="-324.9" font-family="Courier New" font-size="14.00">bytes: Store.nullSign (32)</text>
<polyline fill="none" stroke="black" points="49.61,-316.7 771.32,-316.7 "/>
<text text-anchor="middle" x="410.24" y="-300.1" font-family="Courier New" font-size="14.00">string: Store.iexec_result_storage_provider (32)</text>
<polyline fill="none" stroke="black" points="49.61,-291.9 771.32,-291.9 "/>
<text text-anchor="middle" x="410.14" y="-275.3" font-family="Courier New" font-size="14.00">string: Store.iexec_result_storage_proxy (32)</text>
<polyline fill="none" stroke="black" points="49.61,-267.1 771.32,-267.1 "/>
<text text-anchor="middle" x="410.43" y="-250.5" font-family="Courier New" font-size="14.00">string: Store.iexec_args (32)</text>
<polyline fill="none" stroke="black" points="49.61,-242.3 771.32,-242.3 "/>
<text text-anchor="middle" x="410.13" y="-225.7" font-family="Courier New" font-size="14.00">Collection: Store.m_collection (32)</text>
<polyline fill="none" stroke="black" points="49.61,-217.5 771.32,-217.5 "/>
<text text-anchor="middle" x="410.16" y="-200.9" font-family="Courier New" font-size="14.00">mapping(uint256=&gt;mapping(address=&gt;bool)): Store.protectedDataInSubscription (32)</text>
<polyline fill="none" stroke="black" points="49.61,-192.7 771.32,-192.7 "/>
<text text-anchor="middle" x="410.35" y="-176.1" font-family="Courier New" font-size="14.00">mapping(uint256=&gt;mapping(address=&gt;uint48)): Store.subscribers (32)</text>
<polyline fill="none" stroke="black" points="49.61,-167.9 771.32,-167.9 "/>
<text text-anchor="middle" x="410.05" y="-151.3" font-family="Courier New" font-size="14.00">mapping(uint256=&gt;SubscriptionParams): Store.subscriptionParams (32)</text>
<polyline fill="none" stroke="black" points="49.61,-143.1 771.32,-143.1 "/>
<text text-anchor="middle" x="410.46" y="-126.5" font-family="Courier New" font-size="14.00">mapping(uint256=&gt;mapping(address=&gt;RentingParams)): Store.protectedDataInRenting (32)</text>
<polyline fill="none" stroke="black" points="49.61,-118.3 771.32,-118.3 "/>
<text text-anchor="middle" x="410.05" y="-101.7" font-family="Courier New" font-size="14.00">mapping(uint256=&gt;mapping(address=&gt;uint48)): Store.tenants (32)</text>
<polyline fill="none" stroke="black" points="49.61,-93.5 771.32,-93.5 "/>
<text text-anchor="middle" x="410.36" y="-76.9" font-family="Courier New" font-size="14.00">mapping(uint256=&gt;mapping(address=&gt;SellingParam)): Store.protectedDataForSale (32)</text>
</g>
<!-- 1 -->
<g id="node2" class="node">
<title>1</title>
<polygon fill="#f2f2f2" stroke="black" points="895.13,-186.5 895.13,-260.9 1471.62,-260.9 1471.62,-186.5 895.13,-186.5"/>
<text text-anchor="middle" x="1183.38" y="-244.3" font-family="Courier New" font-size="14.00">SubscriptionParams &lt;&lt;Struct&gt;&gt;</text>
<polyline fill="none" stroke="black" points="895.13,-236.1 1471.62,-236.1 "/>
<text text-anchor="middle" x="928.34" y="-219.5" font-family="Courier New" font-size="14.00">offset</text>
<polyline fill="none" stroke="black" points="895.13,-211.3 961.54,-211.3 "/>
<text text-anchor="middle" x="928.34" y="-194.7" font-family="Courier New" font-size="14.00">0</text>
<polyline fill="none" stroke="black" points="961.54,-186.5 961.54,-236.1 "/>
<text text-anchor="middle" x="1216.58" y="-219.5" font-family="Courier New" font-size="14.00">type: variable (bytes)</text>
<polyline fill="none" stroke="black" points="961.54,-211.3 1471.62,-211.3 "/>
<text text-anchor="middle" x="1036.75" y="-194.7" font-family="Courier New" font-size="14.00">unallocated (12)</text>
<polyline fill="none" stroke="black" points="1111.96,-186.5 1111.96,-211.3 "/>
<text text-anchor="middle" x="1203.98" y="-194.7" font-family="Courier New" font-size="14.00">uint48: duration (6)</text>
<polyline fill="none" stroke="black" points="1295.99,-186.5 1295.99,-211.3 "/>
<text text-anchor="middle" x="1383.8" y="-194.7" font-family="Courier New" font-size="14.00">uint112: price (14)</text>
</g>
<!-- 4&#45;&gt;1 -->
<g id="edge1" class="edge">
<title>4:12&#45;&gt;1</title>
<path fill="none" stroke="black" d="M771.32,-155.7C790.07,-155.7 789.61,-171.53 807.32,-177.7 832.15,-186.35 858.39,-193.42 885.01,-199.19"/>
<polygon fill="black" stroke="black" points="884.32,-202.62 894.83,-201.26 885.76,-195.78 884.32,-202.62"/>
</g>
<!-- 2 -->
<g id="node3" class="node">
<title>2</title>
<polygon fill="#f2f2f2" stroke="black" points="807.32,-93.5 807.32,-167.9 1559.43,-167.9 1559.43,-93.5 807.32,-93.5"/>
<text text-anchor="middle" x="1183.38" y="-151.3" font-family="Courier New" font-size="14.00">RentingParams &lt;&lt;Struct&gt;&gt;</text>
<polyline fill="none" stroke="black" points="807.32,-143.1 1559.43,-143.1 "/>
<text text-anchor="middle" x="840.52" y="-126.5" font-family="Courier New" font-size="14.00">offset</text>
<polyline fill="none" stroke="black" points="807.32,-118.3 873.73,-118.3 "/>
<text text-anchor="middle" x="840.52" y="-101.7" font-family="Courier New" font-size="14.00">0</text>
<polyline fill="none" stroke="black" points="873.73,-93.5 873.73,-143.1 "/>
<text text-anchor="middle" x="1216.58" y="-126.5" font-family="Courier New" font-size="14.00">type: variable (bytes)</text>
<polyline fill="none" stroke="black" points="873.73,-118.3 1559.43,-118.3 "/>
<text text-anchor="middle" x="948.94" y="-101.7" font-family="Courier New" font-size="14.00">unallocated (11)</text>
<polyline fill="none" stroke="black" points="1024.15,-93.5 1024.15,-118.3 "/>
<text text-anchor="middle" x="1116.16" y="-101.7" font-family="Courier New" font-size="14.00">uint48: duration (6)</text>
<polyline fill="none" stroke="black" points="1208.18,-93.5 1208.18,-118.3 "/>
<text text-anchor="middle" x="1295.99" y="-101.7" font-family="Courier New" font-size="14.00">uint112: price (14)</text>
<polyline fill="none" stroke="black" points="1383.8,-93.5 1383.8,-118.3 "/>
<text text-anchor="middle" x="1471.62" y="-101.7" font-family="Courier New" font-size="14.00">bool: inRenting (1)</text>
</g>
<!-- 4&#45;&gt;2 -->
<g id="edge2" class="edge">
<title>4:16&#45;&gt;2</title>
<path fill="none" stroke="black" d="M771.32,-130.7C779.78,-130.7 788.34,-130.7 796.98,-130.7"/>
<polygon fill="black" stroke="black" points="797.14,-134.2 807.14,-130.7 797.14,-127.2 797.14,-134.2"/>
</g>
<!-- 3 -->
<g id="node4" class="node">
<title>3</title>
<polygon fill="#f2f2f2" stroke="black" points="907.74,-0.5 907.74,-74.9 1459.01,-74.9 1459.01,-0.5 907.74,-0.5"/>
<text text-anchor="middle" x="1183.38" y="-58.3" font-family="Courier New" font-size="14.00">SellingParam &lt;&lt;Struct&gt;&gt;</text>
<polyline fill="none" stroke="black" points="907.74,-50.1 1459.01,-50.1 "/>
<text text-anchor="middle" x="940.94" y="-33.5" font-family="Courier New" font-size="14.00">offset</text>
<polyline fill="none" stroke="black" points="907.74,-25.3 974.14,-25.3 "/>
<text text-anchor="middle" x="940.94" y="-8.7" font-family="Courier New" font-size="14.00">0</text>
<polyline fill="none" stroke="black" points="974.14,-0.5 974.14,-50.1 "/>
<text text-anchor="middle" x="1216.58" y="-33.5" font-family="Courier New" font-size="14.00">type: variable (bytes)</text>
<polyline fill="none" stroke="black" points="974.14,-25.3 1459.01,-25.3 "/>
<text text-anchor="middle" x="1049.35" y="-8.7" font-family="Courier New" font-size="14.00">unallocated (17)</text>
<polyline fill="none" stroke="black" points="1124.57,-0.5 1124.57,-25.3 "/>
<text text-anchor="middle" x="1212.38" y="-8.7" font-family="Courier New" font-size="14.00">uint112: price (14)</text>
<polyline fill="none" stroke="black" points="1300.19,-0.5 1300.19,-25.3 "/>
<text text-anchor="middle" x="1379.6" y="-8.7" font-family="Courier New" font-size="14.00">bool: forSale (1)</text>
</g>
<!-- 4&#45;&gt;3 -->
<g id="edge3" class="edge">
<title>4:20&#45;&gt;3</title>
<path fill="none" stroke="black" d="M771.32,-80.7C812.17,-80.7 855.19,-78.57 897.38,-75.27"/>
<polygon fill="black" stroke="black" points="897.82,-78.74 907.51,-74.45 897.26,-71.76 897.82,-78.74"/>
</g>
</g>
</svg>
