<?xml version="1.0" encoding="UTF-8" standalone="no"?>
<!DOCTYPE svg PUBLIC "-//W3C//DTD SVG 1.1//EN"
 "http://www.w3.org/Graphics/SVG/1.1/DTD/svg11.dtd">
<!-- Generated by graphviz version 5.0.0 (20220707.1540)
 -->
<!-- Title: StorageDiagram Pages: 1 -->
<svg width="1887pt" height="403pt"
 viewBox="0.00 0.00 1886.67 402.80" xmlns="http://www.w3.org/2000/svg" xmlns:xlink="http://www.w3.org/1999/xlink">
<g id="graph0" class="graph" transform="scale(1 1) rotate(0) translate(4 398.8)">
<title>StorageDiagram</title>
<polygon fill="white" stroke="transparent" points="-4,4 -4,-398.8 1882.67,-398.8 1882.67,4 -4,4"/>
<!-- 6 -->
<g id="node1" class="node">
<title>6</title>
<polygon fill="#f2f2f2" stroke="black" points="0,-171.1 0,-394.3 611.69,-394.3 611.69,-171.1 0,-171.1"/>
<text text-anchor="middle" x="305.85" y="-377.7" font-family="Courier New" font-size="14.00">ProtectedDataSharing &lt;&lt;Contract&gt;&gt;</text>
<polyline fill="none" stroke="black" points="0,-369.5 611.69,-369.5 "/>
<text text-anchor="middle" x="24.8" y="-352.9" font-family="Courier New" font-size="14.00">slot</text>
<polyline fill="none" stroke="black" points="0,-344.7 49.61,-344.7 "/>
<text text-anchor="middle" x="24.8" y="-328.1" font-family="Courier New" font-size="14.00">0</text>
<polyline fill="none" stroke="black" points="0,-319.9 49.61,-319.9 "/>
<text text-anchor="middle" x="24.8" y="-303.3" font-family="Courier New" font-size="14.00">1</text>
<polyline fill="none" stroke="black" points="0,-295.1 49.61,-295.1 "/>
<text text-anchor="middle" x="24.8" y="-278.5" font-family="Courier New" font-size="14.00">2</text>
<polyline fill="none" stroke="black" points="0,-270.3 49.61,-270.3 "/>
<text text-anchor="middle" x="24.8" y="-253.7" font-family="Courier New" font-size="14.00">3</text>
<polyline fill="none" stroke="black" points="0,-245.5 49.61,-245.5 "/>
<text text-anchor="middle" x="24.8" y="-228.9" font-family="Courier New" font-size="14.00">4</text>
<polyline fill="none" stroke="black" points="0,-220.7 49.61,-220.7 "/>
<text text-anchor="middle" x="24.8" y="-204.1" font-family="Courier New" font-size="14.00">5</text>
<polyline fill="none" stroke="black" points="0,-195.9 49.61,-195.9 "/>
<text text-anchor="middle" x="24.8" y="-179.3" font-family="Courier New" font-size="14.00">6</text>
<polyline fill="none" stroke="black" points="49.61,-171.1 49.61,-369.5 "/>
<text text-anchor="middle" x="330.65" y="-352.9" font-family="Courier New" font-size="14.00">type: &lt;inherited contract&gt;.variable (bytes)</text>
<polyline fill="none" stroke="black" points="49.61,-344.7 611.69,-344.7 "/>
<text text-anchor="middle" x="330.64" y="-328.1" font-family="Courier New" font-size="14.00">string: ManageOrders.iexec_result_storage_provider (32)</text>
<polyline fill="none" stroke="black" points="49.61,-319.9 611.69,-319.9 "/>
<text text-anchor="middle" x="330.54" y="-303.3" font-family="Courier New" font-size="14.00">string: ManageOrders.iexec_result_storage_proxy (32)</text>
<polyline fill="none" stroke="black" points="49.61,-295.1 611.69,-295.1 "/>
<text text-anchor="middle" x="330.33" y="-278.5" font-family="Courier New" font-size="14.00">uint256: _nextCollectionTokenId (32)</text>
<polyline fill="none" stroke="black" points="49.61,-270.3 611.69,-270.3 "/>
<text text-anchor="middle" x="330.44" y="-253.7" font-family="Courier New" font-size="14.00">mapping(address=&gt;uint256): collectionForData (32)</text>
<polyline fill="none" stroke="black" points="49.61,-245.5 611.69,-245.5 "/>
<text text-anchor="middle" x="330.43" y="-228.9" font-family="Courier New" font-size="14.00">mapping(address=&gt;uint256): earning (32)</text>
<polyline fill="none" stroke="black" points="49.61,-220.7 611.69,-220.7 "/>
<text text-anchor="middle" x="330.65" y="-204.1" font-family="Courier New" font-size="14.00">mapping(address=&gt;ProtectedDataDetails): protectedDataDetails (32)</text>
<polyline fill="none" stroke="black" points="49.61,-195.9 611.69,-195.9 "/>
<text text-anchor="middle" x="330.45" y="-179.3" font-family="Courier New" font-size="14.00">mapping(uint256=&gt;CollectionDetails): collectionDetails (32)</text>
</g>
<!-- 3 -->
<g id="node4" class="node">
<title>3</title>
<polygon fill="#f2f2f2" stroke="black" points="647.69,-193.5 647.69,-391.9 1266.18,-391.9 1266.18,-193.5 647.69,-193.5"/>
<text text-anchor="middle" x="956.94" y="-375.3" font-family="Courier New" font-size="14.00">ProtectedDataDetails &lt;&lt;Struct&gt;&gt;</text>
<polyline fill="none" stroke="black" points="647.69,-367.1 1266.18,-367.1 "/>
<text text-anchor="middle" x="680.9" y="-350.5" font-family="Courier New" font-size="14.00">offset</text>
<polyline fill="none" stroke="black" points="647.69,-342.3 714.1,-342.3 "/>
<text text-anchor="middle" x="680.9" y="-325.7" font-family="Courier New" font-size="14.00">0</text>
<polyline fill="none" stroke="black" points="647.69,-317.5 714.1,-317.5 "/>
<text text-anchor="middle" x="680.9" y="-300.9" font-family="Courier New" font-size="14.00">1</text>
<polyline fill="none" stroke="black" points="647.69,-292.7 714.1,-292.7 "/>
<text text-anchor="middle" x="680.9" y="-276.1" font-family="Courier New" font-size="14.00">2</text>
<polyline fill="none" stroke="black" points="647.69,-267.9 714.1,-267.9 "/>
<text text-anchor="middle" x="680.9" y="-251.3" font-family="Courier New" font-size="14.00">3</text>
<polyline fill="none" stroke="black" points="647.69,-243.1 714.1,-243.1 "/>
<text text-anchor="middle" x="680.9" y="-226.5" font-family="Courier New" font-size="14.00">4</text>
<polyline fill="none" stroke="black" points="647.69,-218.3 714.1,-218.3 "/>
<text text-anchor="middle" x="680.9" y="-201.7" font-family="Courier New" font-size="14.00">5</text>
<polyline fill="none" stroke="black" points="714.1,-193.5 714.1,-367.1 "/>
<text text-anchor="middle" x="990.14" y="-350.5" font-family="Courier New" font-size="14.00">type: variable (bytes)</text>
<polyline fill="none" stroke="black" points="714.1,-342.3 1266.18,-342.3 "/>
<text text-anchor="middle" x="989.92" y="-325.7" font-family="Courier New" font-size="14.00">uint256: collection (32)</text>
<polyline fill="none" stroke="black" points="714.1,-317.5 1266.18,-317.5 "/>
<text text-anchor="middle" x="785.11" y="-300.9" font-family="Courier New" font-size="14.00">unallocated (6)</text>
<polyline fill="none" stroke="black" points="856.12,-292.7 856.12,-317.5 "/>
<text text-anchor="middle" x="981.74" y="-300.9" font-family="Courier New" font-size="14.00">uint48: rentalExpiration (6)</text>
<polyline fill="none" stroke="black" points="1107.36,-292.7 1107.36,-317.5 "/>
<text text-anchor="middle" x="1186.77" y="-300.9" font-family="Courier New" font-size="14.00">address: app (20)</text>
<polyline fill="none" stroke="black" points="714.1,-292.7 1266.18,-292.7 "/>
<text text-anchor="middle" x="989.73" y="-276.1" font-family="Courier New" font-size="14.00">RentingParams: rentingParams (32)</text>
<polyline fill="none" stroke="black" points="714.1,-267.9 1266.18,-267.9 "/>
<text text-anchor="middle" x="989.73" y="-251.3" font-family="Courier New" font-size="14.00">mapping(address=&gt;uint48): renters (32)</text>
<polyline fill="none" stroke="black" points="714.1,-243.1 1266.18,-243.1 "/>
<text text-anchor="middle" x="835.31" y="-226.5" font-family="Courier New" font-size="14.00">unallocated (31)</text>
<polyline fill="none" stroke="black" points="956.52,-218.3 956.52,-243.1 "/>
<text text-anchor="middle" x="1111.34" y="-226.5" font-family="Courier New" font-size="14.00">bool: inSubscription (1)</text>
<polyline fill="none" stroke="black" points="714.1,-218.3 1266.18,-218.3 "/>
<text text-anchor="middle" x="989.73" y="-201.7" font-family="Courier New" font-size="14.00">SellingParams: sellingParams (32)</text>
</g>
<!-- 6&#45;&gt;3 -->
<g id="edge1" class="edge">
<title>6:17&#45;&gt;3</title>
<path fill="none" stroke="black" d="M611.69,-208.7C620.21,-208.7 628.8,-208.95 637.45,-209.41"/>
<polygon fill="black" stroke="black" points="637.42,-212.91 647.63,-210.05 637.87,-205.93 637.42,-212.91"/>
</g>
<!-- 5 -->
<g id="node6" class="node">
<title>5</title>
<polygon fill="#f2f2f2" stroke="black" points="697.7,-25.3 697.7,-174.1 1216.18,-174.1 1216.18,-25.3 697.7,-25.3"/>
<text text-anchor="middle" x="956.94" y="-157.5" font-family="Courier New" font-size="14.00">CollectionDetails &lt;&lt;Struct&gt;&gt;</text>
<polyline fill="none" stroke="black" points="697.7,-149.3 1216.18,-149.3 "/>
<text text-anchor="middle" x="730.91" y="-132.7" font-family="Courier New" font-size="14.00">offset</text>
<polyline fill="none" stroke="black" points="697.7,-124.5 764.11,-124.5 "/>
<text text-anchor="middle" x="730.91" y="-107.9" font-family="Courier New" font-size="14.00">0</text>
<polyline fill="none" stroke="black" points="697.7,-99.7 764.11,-99.7 "/>
<text text-anchor="middle" x="730.91" y="-83.1" font-family="Courier New" font-size="14.00">1</text>
<polyline fill="none" stroke="black" points="697.7,-74.9 764.11,-74.9 "/>
<text text-anchor="middle" x="730.91" y="-58.3" font-family="Courier New" font-size="14.00">2</text>
<polyline fill="none" stroke="black" points="697.7,-50.1 764.11,-50.1 "/>
<text text-anchor="middle" x="730.91" y="-33.5" font-family="Courier New" font-size="14.00">3</text>
<polyline fill="none" stroke="black" points="764.11,-25.3 764.11,-149.3 "/>
<text text-anchor="middle" x="990.14" y="-132.7" font-family="Courier New" font-size="14.00">type: variable (bytes)</text>
<polyline fill="none" stroke="black" points="764.11,-124.5 1216.18,-124.5 "/>
<text text-anchor="middle" x="989.72" y="-107.9" font-family="Courier New" font-size="14.00">uint256: size (32)</text>
<polyline fill="none" stroke="black" points="764.11,-99.7 1216.18,-99.7 "/>
<text text-anchor="middle" x="839.32" y="-83.1" font-family="Courier New" font-size="14.00">unallocated (26)</text>
<polyline fill="none" stroke="black" points="914.53,-74.9 914.53,-99.7 "/>
<text text-anchor="middle" x="1065.35" y="-83.1" font-family="Courier New" font-size="14.00">uint48: subscriptionExpiration (6)</text>
<polyline fill="none" stroke="black" points="764.11,-74.9 1216.18,-74.9 "/>
<text text-anchor="middle" x="990.04" y="-58.3" font-family="Courier New" font-size="14.00">mapping(address=&gt;uint48): subscribers (32)</text>
<polyline fill="none" stroke="black" points="764.11,-50.1 1216.18,-50.1 "/>
<text text-anchor="middle" x="989.74" y="-33.5" font-family="Courier New" font-size="14.00">SubscriptionParams: subscriptionParams (32)</text>
</g>
<!-- 6&#45;&gt;5 -->
<g id="edge2" class="edge">
<title>6:24&#45;&gt;5</title>
<path fill="none" stroke="black" d="M611.69,-183.7C641.53,-183.7 672.42,-180.68 702.89,-175.8"/>
<polygon fill="black" stroke="black" points="703.48,-179.25 712.76,-174.15 702.32,-172.34 703.48,-179.25"/>
</g>
<!-- 1 -->
<g id="node2" class="node">
<title>1</title>
<polygon fill="#f2f2f2" stroke="black" points="1302.18,-252.5 1302.18,-326.9 1878.67,-326.9 1878.67,-252.5 1302.18,-252.5"/>
<text text-anchor="middle" x="1590.43" y="-310.3" font-family="Courier New" font-size="14.00">RentingParams &lt;&lt;Struct&gt;&gt;</text>
<polyline fill="none" stroke="black" points="1302.18,-302.1 1878.67,-302.1 "/>
<text text-anchor="middle" x="1335.39" y="-285.5" font-family="Courier New" font-size="14.00">offset</text>
<polyline fill="none" stroke="black" points="1302.18,-277.3 1368.59,-277.3 "/>
<text text-anchor="middle" x="1335.39" y="-260.7" font-family="Courier New" font-size="14.00">0</text>
<polyline fill="none" stroke="black" points="1368.59,-252.5 1368.59,-302.1 "/>
<text text-anchor="middle" x="1623.63" y="-285.5" font-family="Courier New" font-size="14.00">type: variable (bytes)</text>
<polyline fill="none" stroke="black" points="1368.59,-277.3 1878.67,-277.3 "/>
<text text-anchor="middle" x="1443.8" y="-260.7" font-family="Courier New" font-size="14.00">unallocated (12)</text>
<polyline fill="none" stroke="black" points="1519.01,-252.5 1519.01,-277.3 "/>
<text text-anchor="middle" x="1611.03" y="-260.7" font-family="Courier New" font-size="14.00">uint48: duration (6)</text>
<polyline fill="none" stroke="black" points="1703.04,-252.5 1703.04,-277.3 "/>
<text text-anchor="middle" x="1790.85" y="-260.7" font-family="Courier New" font-size="14.00">uint112: price (14)</text>
</g>
<!-- 2 -->
<g id="node3" class="node">
<title>2</title>
<polygon fill="#f2f2f2" stroke="black" points="1306.39,-159.5 1306.39,-233.9 1874.47,-233.9 1874.47,-159.5 1306.39,-159.5"/>
<text text-anchor="middle" x="1590.43" y="-217.3" font-family="Courier New" font-size="14.00">SellingParams &lt;&lt;Struct&gt;&gt;</text>
<polyline fill="none" stroke="black" points="1306.39,-209.1 1874.47,-209.1 "/>
<text text-anchor="middle" x="1339.59" y="-192.5" font-family="Courier New" font-size="14.00">offset</text>
<polyline fill="none" stroke="black" points="1306.39,-184.3 1372.79,-184.3 "/>
<text text-anchor="middle" x="1339.59" y="-167.7" font-family="Courier New" font-size="14.00">0</text>
<polyline fill="none" stroke="black" points="1372.79,-159.5 1372.79,-209.1 "/>
<text text-anchor="middle" x="1623.63" y="-192.5" font-family="Courier New" font-size="14.00">type: variable (bytes)</text>
<polyline fill="none" stroke="black" points="1372.79,-184.3 1874.47,-184.3 "/>
<text text-anchor="middle" x="1448" y="-167.7" font-family="Courier New" font-size="14.00">unallocated (17)</text>
<polyline fill="none" stroke="black" points="1523.22,-159.5 1523.22,-184.3 "/>
<text text-anchor="middle" x="1611.03" y="-167.7" font-family="Courier New" font-size="14.00">uint112: price (14)</text>
<polyline fill="none" stroke="black" points="1698.84,-159.5 1698.84,-184.3 "/>
<text text-anchor="middle" x="1786.65" y="-167.7" font-family="Courier New" font-size="14.00">bool: isForSale (1)</text>
</g>
<!-- 3&#45;&gt;1 -->
<g id="edge3" class="edge">
<title>3:11&#45;&gt;1</title>
<path fill="none" stroke="black" d="M1265.94,-280.7C1274.42,-280.7 1283.02,-280.73 1291.71,-280.79"/>
<polygon fill="black" stroke="black" points="1291.91,-284.29 1301.94,-280.87 1291.97,-277.29 1291.91,-284.29"/>
</g>
<!-- 3&#45;&gt;2 -->
<g id="edge4" class="edge">
<title>3:16&#45;&gt;2</title>
<path fill="none" stroke="black" d="M1265.94,-205.7C1275.84,-205.7 1285.91,-205.66 1296.09,-205.58"/>
<polygon fill="black" stroke="black" points="1296.32,-209.08 1306.29,-205.49 1296.26,-202.08 1296.32,-209.08"/>
</g>
<!-- 4 -->
<g id="node5" class="node">
<title>4</title>
<polygon fill="#f2f2f2" stroke="black" points="1302.18,-0.5 1302.18,-74.9 1878.67,-74.9 1878.67,-0.5 1302.18,-0.5"/>
<text text-anchor="middle" x="1590.43" y="-58.3" font-family="Courier New" font-size="14.00">SubscriptionParams &lt;&lt;Struct&gt;&gt;</text>
<polyline fill="none" stroke="black" points="1302.18,-50.1 1878.67,-50.1 "/>
<text text-anchor="middle" x="1335.39" y="-33.5" font-family="Courier New" font-size="14.00">offset</text>
<polyline fill="none" stroke="black" points="1302.18,-25.3 1368.59,-25.3 "/>
<text text-anchor="middle" x="1335.39" y="-8.7" font-family="Courier New" font-size="14.00">0</text>
<polyline fill="none" stroke="black" points="1368.59,-0.5 1368.59,-50.1 "/>
<text text-anchor="middle" x="1623.63" y="-33.5" font-family="Courier New" font-size="14.00">type: variable (bytes)</text>
<polyline fill="none" stroke="black" points="1368.59,-25.3 1878.67,-25.3 "/>
<text text-anchor="middle" x="1443.8" y="-8.7" font-family="Courier New" font-size="14.00">unallocated (12)</text>
<polyline fill="none" stroke="black" points="1519.01,-0.5 1519.01,-25.3 "/>
<text text-anchor="middle" x="1611.03" y="-8.7" font-family="Courier New" font-size="14.00">uint48: duration (6)</text>
<polyline fill="none" stroke="black" points="1703.04,-0.5 1703.04,-25.3 "/>
<text text-anchor="middle" x="1790.85" y="-8.7" font-family="Courier New" font-size="14.00">uint112: price (14)</text>
</g>
<!-- 5&#45;&gt;4 -->
<g id="edge5" class="edge">
<title>5:23&#45;&gt;4</title>
<path fill="none" stroke="black" d="M1215.94,-37.7C1240.63,-37.7 1266.23,-37.7 1291.93,-37.7"/>
<polygon fill="black" stroke="black" points="1292.17,-41.2 1302.17,-37.7 1292.17,-34.2 1292.17,-41.2"/>
</g>
</g>
</svg>
