<?xml version="1.0" encoding="UTF-8" standalone="no"?>
<!DOCTYPE svg PUBLIC "-//W3C//DTD SVG 1.1//EN"
 "http://www.w3.org/Graphics/SVG/1.1/DTD/svg11.dtd">
<!-- Generated by graphviz version 5.0.0 (20220707.1540)
 -->
<!-- Title: StorageDiagram Pages: 1 -->
<svg width="1065pt" height="158pt"
 viewBox="0.00 0.00 1064.95 157.80" xmlns="http://www.w3.org/2000/svg" xmlns:xlink="http://www.w3.org/1999/xlink">
<g id="graph0" class="graph" transform="scale(1 1) rotate(0) translate(4 153.8)">
<title>StorageDiagram</title>
<polygon fill="white" stroke="transparent" points="-4,4 -4,-153.8 1060.95,-153.8 1060.95,4 -4,4"/>
<!-- 2 -->
<g id="node1" class="node">
<title>2</title>
<polygon fill="#f2f2f2" stroke="black" points="0,-0.5 0,-149.3 627.69,-149.3 627.69,-0.5 0,-0.5"/>
<text text-anchor="middle" x="313.85" y="-132.7" font-family="Courier New" font-size="14.00">AppWhitelist &lt;&lt;Contract&gt;&gt;</text>
<polyline fill="none" stroke="black" points="0,-124.5 627.69,-124.5 "/>
<text text-anchor="middle" x="24.8" y="-107.9" font-family="Courier New" font-size="14.00">slot</text>
<polyline fill="none" stroke="black" points="0,-99.7 49.61,-99.7 "/>
<text text-anchor="middle" x="24.8" y="-83.1" font-family="Courier New" font-size="14.00">0</text>
<polyline fill="none" stroke="black" points="0,-74.9 49.61,-74.9 "/>
<text text-anchor="middle" x="24.8" y="-58.3" font-family="Courier New" font-size="14.00">1</text>
<polyline fill="none" stroke="black" points="0,-50.1 49.61,-50.1 "/>
<text text-anchor="middle" x="24.8" y="-33.5" font-family="Courier New" font-size="14.00">2</text>
<polyline fill="none" stroke="black" points="0,-25.3 49.61,-25.3 "/>
<text text-anchor="middle" x="24.8" y="-8.7" font-family="Courier New" font-size="14.00">3</text>
<polyline fill="none" stroke="black" points="49.61,-0.5 49.61,-124.5 "/>
<text text-anchor="middle" x="338.65" y="-107.9" font-family="Courier New" font-size="14.00">type: &lt;inherited contract&gt;.variable (bytes)</text>
<polyline fill="none" stroke="black" points="49.61,-99.7 627.69,-99.7 "/>
<text text-anchor="middle" x="338.54" y="-83.1" font-family="Courier New" font-size="14.00">mapping(address=&gt;BitMaps.BitMap): ERC734._store (32)</text>
<polyline fill="none" stroke="black" points="49.61,-74.9 627.69,-74.9 "/>
<text text-anchor="middle" x="124.82" y="-58.3" font-family="Courier New" font-size="14.00">unallocated (12)</text>
<polyline fill="none" stroke="black" points="200.03,-50.1 200.03,-74.9 "/>
<text text-anchor="middle" x="413.86" y="-58.3" font-family="Courier New" font-size="14.00">IProtectedDataSharing: _protectedDataSharing (20)</text>
<polyline fill="none" stroke="black" points="49.61,-50.1 627.69,-50.1 "/>
<text text-anchor="middle" x="168.82" y="-33.5" font-family="Courier New" font-size="14.00">unallocated (12)</text>
<polyline fill="none" stroke="black" points="288.03,-25.3 288.03,-50.1 "/>
<text text-anchor="middle" x="457.65" y="-33.5" font-family="Courier New" font-size="14.00">IRegistry: _appRegistry (20)</text>
<polyline fill="none" stroke="black" points="49.61,-25.3 627.69,-25.3 "/>
<text text-anchor="middle" x="338.23" y="-8.7" font-family="Courier New" font-size="14.00">mapping(address=&gt;bool): appWhitelisted (32)</text>
</g>
<!-- 1 -->
<g id="node2" class="node">
<title>1</title>
<polygon fill="#f2f2f2" stroke="black" points="663.69,-49.7 663.69,-124.1 1056.95,-124.1 1056.95,-49.7 663.69,-49.7"/>
<text text-anchor="middle" x="860.32" y="-107.5" font-family="Courier New" font-size="14.00">BitMap &lt;&lt;Struct&gt;&gt;</text>
<polyline fill="none" stroke="black" points="663.69,-99.3 1056.95,-99.3 "/>
<text text-anchor="middle" x="696.9" y="-82.7" font-family="Courier New" font-size="14.00">offset</text>
<polyline fill="none" stroke="black" points="663.69,-74.5 730.1,-74.5 "/>
<text text-anchor="middle" x="696.9" y="-57.9" font-family="Courier New" font-size="14.00">0</text>
<polyline fill="none" stroke="black" points="730.1,-49.7 730.1,-99.3 "/>
<text text-anchor="middle" x="893.53" y="-82.7" font-family="Courier New" font-size="14.00">type: variable (bytes)</text>
<polyline fill="none" stroke="black" points="730.1,-74.5 1056.95,-74.5 "/>
<text text-anchor="middle" x="893.53" y="-57.9" font-family="Courier New" font-size="14.00">mapping(uint256=&gt;uint256): _data (32)</text>
</g>
<!-- 2&#45;&gt;1 -->
<g id="edge1" class="edge">
<title>2:2&#45;&gt;1</title>
<path fill="none" stroke="black" d="M627.69,-86.9C636.08,-86.9 644.63,-86.9 653.27,-86.9"/>
<polygon fill="black" stroke="black" points="653.45,-90.4 663.45,-86.9 653.45,-83.4 653.45,-90.4"/>
</g>
</g>
</svg>
