<?xml version="1.0" encoding="UTF-8" standalone="no"?>
<!DOCTYPE svg PUBLIC "-//W3C//DTD SVG 1.1//EN"
 "http://www.w3.org/Graphics/SVG/1.1/DTD/svg11.dtd">
<!-- Generated by graphviz version 5.0.0 (20220707.1540)
 -->
<!-- Title: StorageDiagram Pages: 1 -->
<svg width="1567pt" height="449pt"
 viewBox="0.00 0.00 1567.43 448.80" xmlns="http://www.w3.org/2000/svg" xmlns:xlink="http://www.w3.org/1999/xlink">
<g id="graph0" class="graph" transform="scale(1 1) rotate(0) translate(4 444.8)">
<title>StorageDiagram</title>
<polygon fill="white" stroke="transparent" points="-4,4 -4,-444.8 1563.43,-444.8 1563.43,4 -4,4"/>
<!-- 4 -->
<g id="node1" class="node">
<title>4</title>
<polygon fill="#f2f2f2" stroke="black" points="0,-93.1 0,-440.3 771.32,-440.3 771.32,-93.1 0,-93.1"/>
<text text-anchor="middle" x="385.66" y="-423.7" font-family="Courier New" font-size="14.00">ProtectedDataSharing &lt;&lt;Contract&gt;&gt;</text>
<polyline fill="none" stroke="black" points="0,-415.5 771.32,-415.5 "/>
<text text-anchor="middle" x="24.8" y="-398.9" font-family="Courier New" font-size="14.00">slot</text>
<polyline fill="none" stroke="black" points="0,-390.7 49.61,-390.7 "/>
<text text-anchor="middle" x="24.8" y="-374.1" font-family="Courier New" font-size="14.00">0</text>
<polyline fill="none" stroke="black" points="0,-365.9 49.61,-365.9 "/>
<text text-anchor="middle" x="24.8" y="-349.3" font-family="Courier New" font-size="14.00">1</text>
<polyline fill="none" stroke="black" points="0,-341.1 49.61,-341.1 "/>
<text text-anchor="middle" x="24.8" y="-324.5" font-family="Courier New" font-size="14.00">2</text>
<polyline fill="none" stroke="black" points="0,-316.3 49.61,-316.3 "/>
<text text-anchor="middle" x="24.8" y="-299.7" font-family="Courier New" font-size="14.00">3</text>
<polyline fill="none" stroke="black" points="0,-291.5 49.61,-291.5 "/>
<text text-anchor="middle" x="24.8" y="-274.9" font-family="Courier New" font-size="14.00">4</text>
<polyline fill="none" stroke="black" points="0,-266.7 49.61,-266.7 "/>
<text text-anchor="middle" x="24.8" y="-250.1" font-family="Courier New" font-size="14.00">5</text>
<polyline fill="none" stroke="black" points="0,-241.9 49.61,-241.9 "/>
<text text-anchor="middle" x="24.8" y="-225.3" font-family="Courier New" font-size="14.00">6</text>
<polyline fill="none" stroke="black" points="0,-217.1 49.61,-217.1 "/>
<text text-anchor="middle" x="24.8" y="-200.5" font-family="Courier New" font-size="14.00">7</text>
<polyline fill="none" stroke="black" points="0,-192.3 49.61,-192.3 "/>
<text text-anchor="middle" x="24.8" y="-175.7" font-family="Courier New" font-size="14.00">8</text>
<polyline fill="none" stroke="black" points="0,-167.5 49.61,-167.5 "/>
<text text-anchor="middle" x="24.8" y="-150.9" font-family="Courier New" font-size="14.00">9</text>
<polyline fill="none" stroke="black" points="0,-142.7 49.61,-142.7 "/>
<text text-anchor="middle" x="24.8" y="-126.1" font-family="Courier New" font-size="14.00">10</text>
<polyline fill="none" stroke="black" points="0,-117.9 49.61,-117.9 "/>
<text text-anchor="middle" x="24.8" y="-101.3" font-family="Courier New" font-size="14.00">11</text>
<polyline fill="none" stroke="black" points="49.61,-93.1 49.61,-415.5 "/>
<text text-anchor="middle" x="410.46" y="-398.9" font-family="Courier New" font-size="14.00">type: &lt;inherited contract&gt;.variable (bytes)</text>
<polyline fill="none" stroke="black" points="49.61,-390.7 771.32,-390.7 "/>
<text text-anchor="middle" x="204.82" y="-374.1" font-family="Courier New" font-size="14.00">unallocated (12)</text>
<polyline fill="none" stroke="black" points="360.03,-365.9 360.03,-390.7 "/>
<text text-anchor="middle" x="565.65" y="-374.1" font-family="Courier New" font-size="14.00">address: Ownable._owner (20)</text>
<polyline fill="none" stroke="black" points="49.61,-365.9 771.32,-365.9 "/>
<text text-anchor="middle" x="200.32" y="-349.3" font-family="Courier New" font-size="14.00">unallocated (12)</text>
<polyline fill="none" stroke="black" points="351.03,-341.1 351.03,-365.9 "/>
<text text-anchor="middle" x="561.05" y="-349.3" font-family="Courier New" font-size="14.00">address: Store.appAddress (20)</text>
<polyline fill="none" stroke="black" points="49.61,-341.1 771.32,-341.1 "/>
<text text-anchor="middle" x="410.32" y="-324.5" font-family="Courier New" font-size="14.00">bytes: Store.nullSign (32)</text>
<polyline fill="none" stroke="black" points="49.61,-316.3 771.32,-316.3 "/>
<text text-anchor="middle" x="410.24" y="-299.7" font-family="Courier New" font-size="14.00">string: Store.iexec_result_storage_provider (32)</text>
<polyline fill="none" stroke="black" points="49.61,-291.5 771.32,-291.5 "/>
<text text-anchor="middle" x="410.14" y="-274.9" font-family="Courier New" font-size="14.00">string: Store.iexec_result_storage_proxy (32)</text>
<polyline fill="none" stroke="black" points="49.61,-266.7 771.32,-266.7 "/>
<text text-anchor="middle" x="410.43" y="-250.1" font-family="Courier New" font-size="14.00">string: Store.iexec_args (32)</text>
<polyline fill="none" stroke="black" points="49.61,-241.9 771.32,-241.9 "/>
<text text-anchor="middle" x="410.13" y="-225.3" font-family="Courier New" font-size="14.00">Collection: Store.m_collection (32)</text>
<polyline fill="none" stroke="black" points="49.61,-217.1 771.32,-217.1 "/>
<text text-anchor="middle" x="410.16" y="-200.5" font-family="Courier New" font-size="14.00">mapping(uint256=&gt;mapping(address=&gt;bool)): Store.protectedDataInSubscription (32)</text>
<polyline fill="none" stroke="black" points="49.61,-192.3 771.32,-192.3 "/>
<text text-anchor="middle" x="410.35" y="-175.7" font-family="Courier New" font-size="14.00">mapping(uint256=&gt;mapping(address=&gt;uint48)): Store.subscribers (32)</text>
<polyline fill="none" stroke="black" points="49.61,-167.5 771.32,-167.5 "/>
<text text-anchor="middle" x="410.05" y="-150.9" font-family="Courier New" font-size="14.00">mapping(uint256=&gt;SubscriptionParams): Store.subscriptionParams (32)</text>
<polyline fill="none" stroke="black" points="49.61,-142.7 771.32,-142.7 "/>
<text text-anchor="middle" x="410.46" y="-126.1" font-family="Courier New" font-size="14.00">mapping(uint256=&gt;mapping(address=&gt;RentingParams)): Store.protectedDataInRenting (32)</text>
<polyline fill="none" stroke="black" points="49.61,-117.9 771.32,-117.9 "/>
<text text-anchor="middle" x="410.36" y="-101.3" font-family="Courier New" font-size="14.00">mapping(uint256=&gt;mapping(address=&gt;SellingParam)): Store.protectedDataForSale (32)</text>
</g>
<!-- 1 -->
<g id="node2" class="node">
<title>1</title>
<polygon fill="#f2f2f2" stroke="black" points="895.13,-186.5 895.13,-260.9 1471.62,-260.9 1471.62,-186.5 895.13,-186.5"/>
<text text-anchor="middle" x="1183.38" y="-244.3" font-family="Courier New" font-size="14.00">SubscriptionParams &lt;&lt;Struct&gt;&gt;</text>
<polyline fill="none" stroke="black" points="895.13,-236.1 1471.62,-236.1 "/>
<text text-anchor="middle" x="928.34" y="-219.5" font-family="Courier New" font-size="14.00">offset</text>
<polyline fill="none" stroke="black" points="895.13,-211.3 961.54,-211.3 "/>
<text text-anchor="middle" x="928.34" y="-194.7" font-family="Courier New" font-size="14.00">0</text>
<polyline fill="none" stroke="black" points="961.54,-186.5 961.54,-236.1 "/>
<text text-anchor="middle" x="1216.58" y="-219.5" font-family="Courier New" font-size="14.00">type: variable (bytes)</text>
<polyline fill="none" stroke="black" points="961.54,-211.3 1471.62,-211.3 "/>
<text text-anchor="middle" x="1036.75" y="-194.7" font-family="Courier New" font-size="14.00">unallocated (12)</text>
<polyline fill="none" stroke="black" points="1111.96,-186.5 1111.96,-211.3 "/>
<text text-anchor="middle" x="1203.98" y="-194.7" font-family="Courier New" font-size="14.00">uint48: duration (6)</text>
<polyline fill="none" stroke="black" points="1295.99,-186.5 1295.99,-211.3 "/>
<text text-anchor="middle" x="1383.8" y="-194.7" font-family="Courier New" font-size="14.00">uint112: price (14)</text>
</g>
<!-- 4&#45;&gt;1 -->
<g id="edge1" class="edge">
<title>4:12&#45;&gt;1</title>
<path fill="none" stroke="black" d="M771.32,-154.7C790.31,-154.7 789.45,-171.27 807.32,-177.7 832.2,-186.65 858.54,-193.92 885.26,-199.82"/>
<polygon fill="black" stroke="black" points="884.61,-203.26 895.12,-201.93 886.08,-196.41 884.61,-203.26"/>
</g>
<!-- 2 -->
<g id="node3" class="node">
<title>2</title>
<polygon fill="#f2f2f2" stroke="black" points="807.32,-93.5 807.32,-167.9 1559.43,-167.9 1559.43,-93.5 807.32,-93.5"/>
<text text-anchor="middle" x="1183.38" y="-151.3" font-family="Courier New" font-size="14.00">RentingParams &lt;&lt;Struct&gt;&gt;</text>
<polyline fill="none" stroke="black" points="807.32,-143.1 1559.43,-143.1 "/>
<text text-anchor="middle" x="840.52" y="-126.5" font-family="Courier New" font-size="14.00">offset</text>
<polyline fill="none" stroke="black" points="807.32,-118.3 873.73,-118.3 "/>
<text text-anchor="middle" x="840.52" y="-101.7" font-family="Courier New" font-size="14.00">0</text>
<polyline fill="none" stroke="black" points="873.73,-93.5 873.73,-143.1 "/>
<text text-anchor="middle" x="1216.58" y="-126.5" font-family="Courier New" font-size="14.00">type: variable (bytes)</text>
<polyline fill="none" stroke="black" points="873.73,-118.3 1559.43,-118.3 "/>
<text text-anchor="middle" x="948.94" y="-101.7" font-family="Courier New" font-size="14.00">unallocated (11)</text>
<polyline fill="none" stroke="black" points="1024.15,-93.5 1024.15,-118.3 "/>
<text text-anchor="middle" x="1116.16" y="-101.7" font-family="Courier New" font-size="14.00">uint48: duration (6)</text>
<polyline fill="none" stroke="black" points="1208.18,-93.5 1208.18,-118.3 "/>
<text text-anchor="middle" x="1295.99" y="-101.7" font-family="Courier New" font-size="14.00">uint112: price (14)</text>
<polyline fill="none" stroke="black" points="1383.8,-93.5 1383.8,-118.3 "/>
<text text-anchor="middle" x="1471.62" y="-101.7" font-family="Courier New" font-size="14.00">bool: inRenting (1)</text>
</g>
<!-- 4&#45;&gt;2 -->
<g id="edge2" class="edge">
<title>4:16&#45;&gt;2</title>
<path fill="none" stroke="black" d="M771.32,-130.7C779.78,-130.7 788.34,-130.7 796.98,-130.7"/>
<polygon fill="black" stroke="black" points="797.14,-134.2 807.14,-130.7 797.14,-127.2 797.14,-134.2"/>
</g>
<!-- 3 -->
<g id="node4" class="node">
<title>3</title>
<polygon fill="#f2f2f2" stroke="black" points="911.94,-0.5 911.94,-74.9 1454.81,-74.9 1454.81,-0.5 911.94,-0.5"/>
<text text-anchor="middle" x="1183.38" y="-58.3" font-family="Courier New" font-size="14.00">SellingParam &lt;&lt;Struct&gt;&gt;</text>
<polyline fill="none" stroke="black" points="911.94,-50.1 1454.81,-50.1 "/>
<text text-anchor="middle" x="945.14" y="-33.5" font-family="Courier New" font-size="14.00">offset</text>
<polyline fill="none" stroke="black" points="911.94,-25.3 978.34,-25.3 "/>
<text text-anchor="middle" x="945.14" y="-8.7" font-family="Courier New" font-size="14.00">0</text>
<polyline fill="none" stroke="black" points="978.34,-0.5 978.34,-50.1 "/>
<text text-anchor="middle" x="1216.58" y="-33.5" font-family="Courier New" font-size="14.00">type: variable (bytes)</text>
<polyline fill="none" stroke="black" points="978.34,-25.3 1454.81,-25.3 "/>
<text text-anchor="middle" x="1053.56" y="-8.7" font-family="Courier New" font-size="14.00">unallocated (17)</text>
<polyline fill="none" stroke="black" points="1128.77,-0.5 1128.77,-25.3 "/>
<text text-anchor="middle" x="1216.58" y="-8.7" font-family="Courier New" font-size="14.00">uint112: price (14)</text>
<polyline fill="none" stroke="black" points="1304.39,-0.5 1304.39,-25.3 "/>
<text text-anchor="middle" x="1379.6" y="-8.7" font-family="Courier New" font-size="14.00">bool: onSale (1)</text>
</g>
<!-- 4&#45;&gt;3 -->
<g id="edge3" class="edge">
<title>4:19&#45;&gt;3</title>
<path fill="none" stroke="black" d="M771.32,-105.7C790.07,-105.7 789.61,-89.87 807.32,-83.7 837.36,-73.23 869.47,-65.08 901.79,-58.74"/>
<polygon fill="black" stroke="black" points="902.66,-62.14 911.83,-56.83 901.35,-55.27 902.66,-62.14"/>
</g>
</g>
</svg>
