<?xml version="1.0" encoding="UTF-8" standalone="no"?>
<!DOCTYPE svg PUBLIC "-//W3C//DTD SVG 1.1//EN"
 "http://www.w3.org/Graphics/SVG/1.1/DTD/svg11.dtd">
<!-- Generated by graphviz version 5.0.0 (20220707.1540)
 -->
<!-- Title: StorageDiagram Pages: 1 -->
<svg width="2022pt" height="830pt"
 viewBox="0.00 0.00 2021.89 829.60" xmlns="http://www.w3.org/2000/svg" xmlns:xlink="http://www.w3.org/1999/xlink">
<g id="graph0" class="graph" transform="scale(1 1) rotate(0) translate(4 825.6)">
<title>StorageDiagram</title>
<polygon fill="white" stroke="transparent" points="-4,4 -4,-825.6 2017.89,-825.6 2017.89,4 -4,4"/>
<!-- 8 -->
<g id="node1" class="node">
<title>8</title>
<polygon fill="#f2f2f2" stroke="black" points="0,-329.9 0,-577.9 611.69,-577.9 611.69,-329.9 0,-329.9"/>
<text text-anchor="middle" x="305.85" y="-561.3" font-family="Courier New" font-size="14.00">DataProtectorSharing &lt;&lt;Contract&gt;&gt;</text>
<polyline fill="none" stroke="black" points="0,-553.1 611.69,-553.1 "/>
<text text-anchor="middle" x="24.8" y="-536.5" font-family="Courier New" font-size="14.00">slot</text>
<polyline fill="none" stroke="black" points="0,-528.3 49.61,-528.3 "/>
<text text-anchor="middle" x="24.8" y="-511.7" font-family="Courier New" font-size="14.00">0</text>
<polyline fill="none" stroke="black" points="0,-503.5 49.61,-503.5 "/>
<text text-anchor="middle" x="24.8" y="-486.9" font-family="Courier New" font-size="14.00">1</text>
<polyline fill="none" stroke="black" points="0,-478.7 49.61,-478.7 "/>
<text text-anchor="middle" x="24.8" y="-462.1" font-family="Courier New" font-size="14.00">2</text>
<polyline fill="none" stroke="black" points="0,-453.9 49.61,-453.9 "/>
<text text-anchor="middle" x="24.8" y="-437.3" font-family="Courier New" font-size="14.00">3</text>
<polyline fill="none" stroke="black" points="0,-429.1 49.61,-429.1 "/>
<text text-anchor="middle" x="24.8" y="-412.5" font-family="Courier New" font-size="14.00">4</text>
<polyline fill="none" stroke="black" points="0,-404.3 49.61,-404.3 "/>
<text text-anchor="middle" x="24.8" y="-387.7" font-family="Courier New" font-size="14.00">5</text>
<polyline fill="none" stroke="black" points="0,-379.5 49.61,-379.5 "/>
<text text-anchor="middle" x="24.8" y="-362.9" font-family="Courier New" font-size="14.00">6</text>
<polyline fill="none" stroke="black" points="0,-354.7 49.61,-354.7 "/>
<text text-anchor="middle" x="24.8" y="-338.1" font-family="Courier New" font-size="14.00">7</text>
<polyline fill="none" stroke="black" points="49.61,-329.9 49.61,-553.1 "/>
<text text-anchor="middle" x="330.65" y="-536.5" font-family="Courier New" font-size="14.00">type: &lt;inherited contract&gt;.variable (bytes)</text>
<polyline fill="none" stroke="black" points="49.61,-528.3 611.69,-528.3 "/>
<text text-anchor="middle" x="330.34" y="-511.7" font-family="Courier New" font-size="14.00">string: ManageOrders._iexec_result_storage_provider (32)</text>
<polyline fill="none" stroke="black" points="49.61,-503.5 611.69,-503.5 "/>
<text text-anchor="middle" x="330.24" y="-486.9" font-family="Courier New" font-size="14.00">string: ManageOrders._iexec_result_storage_proxy (32)</text>
<polyline fill="none" stroke="black" points="49.61,-478.7 611.69,-478.7 "/>
<text text-anchor="middle" x="330.53" y="-462.1" font-family="Courier New" font-size="14.00">uint256: ManageOrders._salt (32)</text>
<polyline fill="none" stroke="black" points="49.61,-453.9 611.69,-453.9 "/>
<text text-anchor="middle" x="330.33" y="-437.3" font-family="Courier New" font-size="14.00">uint256: _nextCollectionTokenId (32)</text>
<polyline fill="none" stroke="black" points="49.61,-429.1 611.69,-429.1 "/>
<text text-anchor="middle" x="330.43" y="-412.5" font-family="Courier New" font-size="14.00">mapping(address=&gt;uint256): earning (32)</text>
<polyline fill="none" stroke="black" points="49.61,-404.3 611.69,-404.3 "/>
<text text-anchor="middle" x="330.65" y="-387.7" font-family="Courier New" font-size="14.00">mapping(address=&gt;ProtectedDataDetails): protectedDataDetails (32)</text>
<polyline fill="none" stroke="black" points="49.61,-379.5 611.69,-379.5 "/>
<text text-anchor="middle" x="330.45" y="-362.9" font-family="Courier New" font-size="14.00">mapping(uint256=&gt;CollectionDetails): collectionDetails (32)</text>
<polyline fill="none" stroke="black" points="49.61,-354.7 611.69,-354.7 "/>
<text text-anchor="middle" x="330.35" y="-338.1" font-family="Courier New" font-size="14.00">mapping(address=&gt;IexecLibOrders_v5.AppOrder): _appOrders (32)</text>
</g>
<!-- 4 -->
<g id="node5" class="node">
<title>4</title>
<polygon fill="#f2f2f2" stroke="black" points="647.69,-569.3 647.69,-792.5 1367,-792.5 1367,-569.3 647.69,-569.3"/>
<text text-anchor="middle" x="1007.35" y="-775.9" font-family="Courier New" font-size="14.00">ProtectedDataDetails &lt;&lt;Struct&gt;&gt;</text>
<polyline fill="none" stroke="black" points="647.69,-767.7 1367,-767.7 "/>
<text text-anchor="middle" x="680.9" y="-751.1" font-family="Courier New" font-size="14.00">offset</text>
<polyline fill="none" stroke="black" points="647.69,-742.9 714.1,-742.9 "/>
<text text-anchor="middle" x="680.9" y="-726.3" font-family="Courier New" font-size="14.00">0</text>
<polyline fill="none" stroke="black" points="647.69,-718.1 714.1,-718.1 "/>
<text text-anchor="middle" x="680.9" y="-701.5" font-family="Courier New" font-size="14.00">1</text>
<polyline fill="none" stroke="black" points="647.69,-693.3 714.1,-693.3 "/>
<text text-anchor="middle" x="680.9" y="-676.7" font-family="Courier New" font-size="14.00">2</text>
<polyline fill="none" stroke="black" points="647.69,-668.5 714.1,-668.5 "/>
<text text-anchor="middle" x="680.9" y="-651.9" font-family="Courier New" font-size="14.00">3</text>
<polyline fill="none" stroke="black" points="647.69,-643.7 714.1,-643.7 "/>
<text text-anchor="middle" x="680.9" y="-627.1" font-family="Courier New" font-size="14.00">4</text>
<polyline fill="none" stroke="black" points="647.69,-618.9 714.1,-618.9 "/>
<text text-anchor="middle" x="680.9" y="-602.3" font-family="Courier New" font-size="14.00">5</text>
<polyline fill="none" stroke="black" points="647.69,-594.1 714.1,-594.1 "/>
<text text-anchor="middle" x="680.9" y="-577.5" font-family="Courier New" font-size="14.00">6&#45;14</text>
<polyline fill="none" stroke="black" points="714.1,-569.3 714.1,-767.7 "/>
<text text-anchor="middle" x="1040.55" y="-751.1" font-family="Courier New" font-size="14.00">type: variable (bytes)</text>
<polyline fill="none" stroke="black" points="714.1,-742.9 1367,-742.9 "/>
<text text-anchor="middle" x="1040.42" y="-726.3" font-family="Courier New" font-size="14.00">uint256: collection (32)</text>
<polyline fill="none" stroke="black" points="714.1,-718.1 1367,-718.1 "/>
<text text-anchor="middle" x="1040.32" y="-701.5" font-family="Courier New" font-size="14.00">AppWhitelist: appWhitelist (32)</text>
<polyline fill="none" stroke="black" points="714.1,-693.3 1367,-693.3 "/>
<text text-anchor="middle" x="789.31" y="-676.7" font-family="Courier New" font-size="14.00">unallocated (25)</text>
<polyline fill="none" stroke="black" points="864.52,-668.5 864.52,-693.3 "/>
<text text-anchor="middle" x="973.34" y="-676.7" font-family="Courier New" font-size="14.00">bool: inSubscription (1)</text>
<polyline fill="none" stroke="black" points="1082.16,-668.5 1082.16,-693.3 "/>
<text text-anchor="middle" x="1224.58" y="-676.7" font-family="Courier New" font-size="14.00">uint48: lastRentalExpiration (6)</text>
<polyline fill="none" stroke="black" points="714.1,-668.5 1367,-668.5 "/>
<text text-anchor="middle" x="1040.23" y="-651.9" font-family="Courier New" font-size="14.00">RentingParams: rentingParams (32)</text>
<polyline fill="none" stroke="black" points="714.1,-643.7 1367,-643.7 "/>
<text text-anchor="middle" x="1040.23" y="-627.1" font-family="Courier New" font-size="14.00">mapping(address=&gt;uint48): renters (32)</text>
<polyline fill="none" stroke="black" points="714.1,-618.9 1367,-618.9 "/>
<text text-anchor="middle" x="1040.23" y="-602.3" font-family="Courier New" font-size="14.00">SellingParams: sellingParams (32)</text>
<polyline fill="none" stroke="black" points="714.1,-594.1 1367,-594.1 "/>
<text text-anchor="middle" x="1040.14" y="-577.5" font-family="Courier New" font-size="14.00">IexecLibOrders_v5.DatasetOrder: datasetOrder (288)</text>
</g>
<!-- 8&#45;&gt;4 -->
<g id="edge1" class="edge">
<title>8:27&#45;&gt;4</title>
<path fill="none" stroke="black" d="M611.69,-391.9C642.41,-391.9 626.22,-428.94 647.69,-450.9 688.76,-492.89 738.86,-530.97 788.43,-563.51"/>
<polygon fill="black" stroke="black" points="786.74,-566.58 797.03,-569.1 790.55,-560.71 786.74,-566.58"/>
</g>
<!-- 6 -->
<g id="node7" class="node">
<title>6</title>
<polygon fill="#f2f2f2" stroke="black" points="731.31,-292.5 731.31,-441.3 1283.39,-441.3 1283.39,-292.5 731.31,-292.5"/>
<text text-anchor="middle" x="1007.35" y="-424.7" font-family="Courier New" font-size="14.00">CollectionDetails &lt;&lt;Struct&gt;&gt;</text>
<polyline fill="none" stroke="black" points="731.31,-416.5 1283.39,-416.5 "/>
<text text-anchor="middle" x="764.51" y="-399.9" font-family="Courier New" font-size="14.00">offset</text>
<polyline fill="none" stroke="black" points="731.31,-391.7 797.71,-391.7 "/>
<text text-anchor="middle" x="764.51" y="-375.1" font-family="Courier New" font-size="14.00">0</text>
<polyline fill="none" stroke="black" points="731.31,-366.9 797.71,-366.9 "/>
<text text-anchor="middle" x="764.51" y="-350.3" font-family="Courier New" font-size="14.00">1</text>
<polyline fill="none" stroke="black" points="731.31,-342.1 797.71,-342.1 "/>
<text text-anchor="middle" x="764.51" y="-325.5" font-family="Courier New" font-size="14.00">2</text>
<polyline fill="none" stroke="black" points="731.31,-317.3 797.71,-317.3 "/>
<text text-anchor="middle" x="764.51" y="-300.7" font-family="Courier New" font-size="14.00">3</text>
<polyline fill="none" stroke="black" points="797.71,-292.5 797.71,-416.5 "/>
<text text-anchor="middle" x="1040.55" y="-399.9" font-family="Courier New" font-size="14.00">type: variable (bytes)</text>
<polyline fill="none" stroke="black" points="797.71,-391.7 1283.39,-391.7 "/>
<text text-anchor="middle" x="1040.33" y="-375.1" font-family="Courier New" font-size="14.00">uint256: size (32)</text>
<polyline fill="none" stroke="black" points="797.71,-366.9 1283.39,-366.9 "/>
<text text-anchor="middle" x="872.93" y="-350.3" font-family="Courier New" font-size="14.00">unallocated (26)</text>
<polyline fill="none" stroke="black" points="948.14,-342.1 948.14,-366.9 "/>
<text text-anchor="middle" x="1115.76" y="-350.3" font-family="Courier New" font-size="14.00">uint48: lastSubscriptionExpiration (6)</text>
<polyline fill="none" stroke="black" points="797.71,-342.1 1283.39,-342.1 "/>
<text text-anchor="middle" x="1040.34" y="-325.5" font-family="Courier New" font-size="14.00">SubscriptionParams: subscriptionParams (32)</text>
<polyline fill="none" stroke="black" points="797.71,-317.3 1283.39,-317.3 "/>
<text text-anchor="middle" x="1040.14" y="-300.7" font-family="Courier New" font-size="14.00">mapping(address=&gt;uint48): subscribers (32)</text>
</g>
<!-- 8&#45;&gt;6 -->
<g id="edge2" class="edge">
<title>8:34&#45;&gt;6</title>
<path fill="none" stroke="black" d="M611.69,-366.9C647,-366.9 684.08,-366.9 720.8,-366.9"/>
<polygon fill="black" stroke="black" points="721.14,-370.4 731.14,-366.9 721.14,-363.4 721.14,-370.4"/>
</g>
<!-- 7 -->
<g id="node8" class="node">
<title>7</title>
<polygon fill="#f2f2f2" stroke="black" points="756.51,-0.5 756.51,-273.3 1258.18,-273.3 1258.18,-0.5 756.51,-0.5"/>
<text text-anchor="middle" x="1007.35" y="-256.7" font-family="Courier New" font-size="14.00">AppOrder &lt;&lt;Struct&gt;&gt;</text>
<polyline fill="none" stroke="black" points="756.51,-248.5 1258.18,-248.5 "/>
<text text-anchor="middle" x="789.71" y="-231.9" font-family="Courier New" font-size="14.00">offset</text>
<polyline fill="none" stroke="black" points="756.51,-223.7 822.92,-223.7 "/>
<text text-anchor="middle" x="789.71" y="-207.1" font-family="Courier New" font-size="14.00">0</text>
<polyline fill="none" stroke="black" points="756.51,-198.9 822.92,-198.9 "/>
<text text-anchor="middle" x="789.71" y="-182.3" font-family="Courier New" font-size="14.00">1</text>
<polyline fill="none" stroke="black" points="756.51,-174.1 822.92,-174.1 "/>
<text text-anchor="middle" x="789.71" y="-157.5" font-family="Courier New" font-size="14.00">2</text>
<polyline fill="none" stroke="black" points="756.51,-149.3 822.92,-149.3 "/>
<text text-anchor="middle" x="789.71" y="-132.7" font-family="Courier New" font-size="14.00">3</text>
<polyline fill="none" stroke="black" points="756.51,-124.5 822.92,-124.5 "/>
<text text-anchor="middle" x="789.71" y="-107.9" font-family="Courier New" font-size="14.00">4</text>
<polyline fill="none" stroke="black" points="756.51,-99.7 822.92,-99.7 "/>
<text text-anchor="middle" x="789.71" y="-83.1" font-family="Courier New" font-size="14.00">5</text>
<polyline fill="none" stroke="black" points="756.51,-74.9 822.92,-74.9 "/>
<text text-anchor="middle" x="789.71" y="-58.3" font-family="Courier New" font-size="14.00">6</text>
<polyline fill="none" stroke="black" points="756.51,-50.1 822.92,-50.1 "/>
<text text-anchor="middle" x="789.71" y="-33.5" font-family="Courier New" font-size="14.00">7</text>
<polyline fill="none" stroke="black" points="756.51,-25.3 822.92,-25.3 "/>
<text text-anchor="middle" x="789.71" y="-8.7" font-family="Courier New" font-size="14.00">8</text>
<polyline fill="none" stroke="black" points="822.92,-0.5 822.92,-248.5 "/>
<text text-anchor="middle" x="1040.55" y="-231.9" font-family="Courier New" font-size="14.00">type: variable (bytes)</text>
<polyline fill="none" stroke="black" points="822.92,-223.7 1258.18,-223.7 "/>
<text text-anchor="middle" x="929.63" y="-207.1" font-family="Courier New" font-size="14.00">unallocated (12)</text>
<polyline fill="none" stroke="black" points="1036.34,-198.9 1036.34,-223.7 "/>
<text text-anchor="middle" x="1147.25" y="-207.1" font-family="Courier New" font-size="14.00">address: app (20)</text>
<polyline fill="none" stroke="black" points="822.92,-198.9 1258.18,-198.9 "/>
<text text-anchor="middle" x="1040.33" y="-182.3" font-family="Courier New" font-size="14.00">uint256: appprice (32)</text>
<polyline fill="none" stroke="black" points="822.92,-174.1 1258.18,-174.1 "/>
<text text-anchor="middle" x="1040.43" y="-157.5" font-family="Courier New" font-size="14.00">uint256: volume (32)</text>
<polyline fill="none" stroke="black" points="822.92,-149.3 1258.18,-149.3 "/>
<text text-anchor="middle" x="1040.33" y="-132.7" font-family="Courier New" font-size="14.00">bytes32: tag (32)</text>
<polyline fill="none" stroke="black" points="822.92,-124.5 1258.18,-124.5 "/>
<text text-anchor="middle" x="904.13" y="-107.9" font-family="Courier New" font-size="14.00">unallocated (12)</text>
<polyline fill="none" stroke="black" points="985.34,-99.7 985.34,-124.5 "/>
<text text-anchor="middle" x="1121.66" y="-107.9" font-family="Courier New" font-size="14.00">address: datasetrestrict (20)</text>
<polyline fill="none" stroke="black" points="822.92,-99.7 1258.18,-99.7 "/>
<text text-anchor="middle" x="898.13" y="-83.1" font-family="Courier New" font-size="14.00">unallocated (12)</text>
<polyline fill="none" stroke="black" points="973.34,-74.9 973.34,-99.7 "/>
<text text-anchor="middle" x="1115.76" y="-83.1" font-family="Courier New" font-size="14.00">address: workerpoolrestrict (20)</text>
<polyline fill="none" stroke="black" points="822.92,-74.9 1258.18,-74.9 "/>
<text text-anchor="middle" x="900.13" y="-58.3" font-family="Courier New" font-size="14.00">unallocated (12)</text>
<polyline fill="none" stroke="black" points="977.34,-50.1 977.34,-74.9 "/>
<text text-anchor="middle" x="1117.56" y="-58.3" font-family="Courier New" font-size="14.00">address: requesterrestrict (20)</text>
<polyline fill="none" stroke="black" points="822.92,-50.1 1258.18,-50.1 "/>
<text text-anchor="middle" x="1040.53" y="-33.5" font-family="Courier New" font-size="14.00">bytes32: salt (32)</text>
<polyline fill="none" stroke="black" points="822.92,-25.3 1258.18,-25.3 "/>
<text text-anchor="middle" x="1040.13" y="-8.7" font-family="Courier New" font-size="14.00">bytes: sign (32)</text>
</g>
<!-- 8&#45;&gt;7 -->
<g id="edge3" class="edge">
<title>8:44&#45;&gt;7</title>
<path fill="none" stroke="black" d="M611.69,-341.9C642.41,-341.9 624.29,-302.8 647.69,-282.9 677.2,-257.81 711.59,-236.61 747.18,-218.83"/>
<polygon fill="black" stroke="black" points="748.81,-221.93 756.25,-214.39 745.73,-215.65 748.81,-221.93"/>
</g>
<!-- 1 -->
<g id="node2" class="node">
<title>1</title>
<polygon fill="#f2f2f2" stroke="black" points="1420.21,-746.7 1420.21,-821.1 1996.69,-821.1 1996.69,-746.7 1420.21,-746.7"/>
<text text-anchor="middle" x="1708.45" y="-804.5" font-family="Courier New" font-size="14.00">RentingParams &lt;&lt;Struct&gt;&gt;</text>
<polyline fill="none" stroke="black" points="1420.21,-796.3 1996.69,-796.3 "/>
<text text-anchor="middle" x="1453.41" y="-779.7" font-family="Courier New" font-size="14.00">offset</text>
<polyline fill="none" stroke="black" points="1420.21,-771.5 1486.61,-771.5 "/>
<text text-anchor="middle" x="1453.41" y="-754.9" font-family="Courier New" font-size="14.00">0</text>
<polyline fill="none" stroke="black" points="1486.61,-746.7 1486.61,-796.3 "/>
<text text-anchor="middle" x="1741.65" y="-779.7" font-family="Courier New" font-size="14.00">type: variable (bytes)</text>
<polyline fill="none" stroke="black" points="1486.61,-771.5 1996.69,-771.5 "/>
<text text-anchor="middle" x="1561.82" y="-754.9" font-family="Courier New" font-size="14.00">unallocated (12)</text>
<polyline fill="none" stroke="black" points="1637.04,-746.7 1637.04,-771.5 "/>
<text text-anchor="middle" x="1729.05" y="-754.9" font-family="Courier New" font-size="14.00">uint48: duration (6)</text>
<polyline fill="none" stroke="black" points="1821.06,-746.7 1821.06,-771.5 "/>
<text text-anchor="middle" x="1908.88" y="-754.9" font-family="Courier New" font-size="14.00">uint112: price (14)</text>
</g>
<!-- 2 -->
<g id="node3" class="node">
<title>2</title>
<polygon fill="#f2f2f2" stroke="black" points="1424.41,-653.7 1424.41,-728.1 1992.49,-728.1 1992.49,-653.7 1424.41,-653.7"/>
<text text-anchor="middle" x="1708.45" y="-711.5" font-family="Courier New" font-size="14.00">SellingParams &lt;&lt;Struct&gt;&gt;</text>
<polyline fill="none" stroke="black" points="1424.41,-703.3 1992.49,-703.3 "/>
<text text-anchor="middle" x="1457.61" y="-686.7" font-family="Courier New" font-size="14.00">offset</text>
<polyline fill="none" stroke="black" points="1424.41,-678.5 1490.81,-678.5 "/>
<text text-anchor="middle" x="1457.61" y="-661.9" font-family="Courier New" font-size="14.00">0</text>
<polyline fill="none" stroke="black" points="1490.81,-653.7 1490.81,-703.3 "/>
<text text-anchor="middle" x="1741.65" y="-686.7" font-family="Courier New" font-size="14.00">type: variable (bytes)</text>
<polyline fill="none" stroke="black" points="1490.81,-678.5 1992.49,-678.5 "/>
<text text-anchor="middle" x="1566.02" y="-661.9" font-family="Courier New" font-size="14.00">unallocated (17)</text>
<polyline fill="none" stroke="black" points="1641.24,-653.7 1641.24,-678.5 "/>
<text text-anchor="middle" x="1729.05" y="-661.9" font-family="Courier New" font-size="14.00">uint112: price (14)</text>
<polyline fill="none" stroke="black" points="1816.86,-653.7 1816.86,-678.5 "/>
<text text-anchor="middle" x="1904.67" y="-661.9" font-family="Courier New" font-size="14.00">bool: isForSale (1)</text>
</g>
<!-- 3 -->
<g id="node4" class="node">
<title>3</title>
<polygon fill="#f2f2f2" stroke="black" points="1403,-361.5 1403,-634.3 2013.89,-634.3 2013.89,-361.5 1403,-361.5"/>
<text text-anchor="middle" x="1708.45" y="-617.7" font-family="Courier New" font-size="14.00">IexecLibOrders_v5.DatasetOrder &lt;&lt;Struct&gt;&gt;</text>
<polyline fill="none" stroke="black" points="1403,-609.5 2013.89,-609.5 "/>
<text text-anchor="middle" x="1436.21" y="-592.9" font-family="Courier New" font-size="14.00">offset</text>
<polyline fill="none" stroke="black" points="1403,-584.7 1469.41,-584.7 "/>
<text text-anchor="middle" x="1436.21" y="-568.1" font-family="Courier New" font-size="14.00">0</text>
<polyline fill="none" stroke="black" points="1403,-559.9 1469.41,-559.9 "/>
<text text-anchor="middle" x="1436.21" y="-543.3" font-family="Courier New" font-size="14.00">1</text>
<polyline fill="none" stroke="black" points="1403,-535.1 1469.41,-535.1 "/>
<text text-anchor="middle" x="1436.21" y="-518.5" font-family="Courier New" font-size="14.00">2</text>
<polyline fill="none" stroke="black" points="1403,-510.3 1469.41,-510.3 "/>
<text text-anchor="middle" x="1436.21" y="-493.7" font-family="Courier New" font-size="14.00">3</text>
<polyline fill="none" stroke="black" points="1403,-485.5 1469.41,-485.5 "/>
<text text-anchor="middle" x="1436.21" y="-468.9" font-family="Courier New" font-size="14.00">4</text>
<polyline fill="none" stroke="black" points="1403,-460.7 1469.41,-460.7 "/>
<text text-anchor="middle" x="1436.21" y="-444.1" font-family="Courier New" font-size="14.00">5</text>
<polyline fill="none" stroke="black" points="1403,-435.9 1469.41,-435.9 "/>
<text text-anchor="middle" x="1436.21" y="-419.3" font-family="Courier New" font-size="14.00">6</text>
<polyline fill="none" stroke="black" points="1403,-411.1 1469.41,-411.1 "/>
<text text-anchor="middle" x="1436.21" y="-394.5" font-family="Courier New" font-size="14.00">7</text>
<polyline fill="none" stroke="black" points="1403,-386.3 1469.41,-386.3 "/>
<text text-anchor="middle" x="1436.21" y="-369.7" font-family="Courier New" font-size="14.00">8</text>
<polyline fill="none" stroke="black" points="1469.41,-361.5 1469.41,-609.5 "/>
<text text-anchor="middle" x="1741.65" y="-592.9" font-family="Courier New" font-size="14.00">type: variable (bytes)</text>
<polyline fill="none" stroke="black" points="1469.41,-584.7 2013.89,-584.7 "/>
<text text-anchor="middle" x="1567.62" y="-568.1" font-family="Courier New" font-size="14.00">unallocated (12)</text>
<polyline fill="none" stroke="black" points="1665.83,-559.9 1665.83,-584.7 "/>
<text text-anchor="middle" x="1839.65" y="-568.1" font-family="Courier New" font-size="14.00">address: DatasetOrder.dataset (20)</text>
<polyline fill="none" stroke="black" points="1469.41,-559.9 2013.89,-559.9 "/>
<text text-anchor="middle" x="1741.24" y="-543.3" font-family="Courier New" font-size="14.00">uint256: DatasetOrder.datasetprice (32)</text>
<polyline fill="none" stroke="black" points="1469.41,-535.1 2013.89,-535.1 "/>
<text text-anchor="middle" x="1741.53" y="-518.5" font-family="Courier New" font-size="14.00">uint256: DatasetOrder.volume (32)</text>
<polyline fill="none" stroke="black" points="1469.41,-510.3 2013.89,-510.3 "/>
<text text-anchor="middle" x="1741.43" y="-493.7" font-family="Courier New" font-size="14.00">bytes32: DatasetOrder.tag (32)</text>
<polyline fill="none" stroke="black" points="1469.41,-485.5 2013.89,-485.5 "/>
<text text-anchor="middle" x="1559.12" y="-468.9" font-family="Courier New" font-size="14.00">unallocated (12)</text>
<polyline fill="none" stroke="black" points="1648.83,-460.7 1648.83,-485.5 "/>
<text text-anchor="middle" x="1830.96" y="-468.9" font-family="Courier New" font-size="14.00">address: DatasetOrder.apprestrict (20)</text>
<polyline fill="none" stroke="black" points="1469.41,-460.7 2013.89,-460.7 "/>
<text text-anchor="middle" x="1544.62" y="-444.1" font-family="Courier New" font-size="14.00">unallocated (12)</text>
<polyline fill="none" stroke="black" points="1619.83,-435.9 1619.83,-460.7 "/>
<text text-anchor="middle" x="1816.86" y="-444.1" font-family="Courier New" font-size="14.00">address: DatasetOrder.workerpoolrestrict (20)</text>
<polyline fill="none" stroke="black" points="1469.41,-435.9 2013.89,-435.9 "/>
<text text-anchor="middle" x="1546.62" y="-419.3" font-family="Courier New" font-size="14.00">unallocated (12)</text>
<polyline fill="none" stroke="black" points="1623.83,-411.1 1623.83,-435.9 "/>
<text text-anchor="middle" x="1818.66" y="-419.3" font-family="Courier New" font-size="14.00">address: DatasetOrder.requesterrestrict (20)</text>
<polyline fill="none" stroke="black" points="1469.41,-411.1 2013.89,-411.1 "/>
<text text-anchor="middle" x="1741.63" y="-394.5" font-family="Courier New" font-size="14.00">bytes32: DatasetOrder.salt (32)</text>
<polyline fill="none" stroke="black" points="1469.41,-386.3 2013.89,-386.3 "/>
<text text-anchor="middle" x="1741.23" y="-369.7" font-family="Courier New" font-size="14.00">bytes: DatasetOrder.sign (32)</text>
</g>
<!-- 4&#45;&gt;1 -->
<g id="edge4" class="edge">
<title>4:12&#45;&gt;1</title>
<path fill="none" stroke="black" d="M1367,-655.9C1406.8,-655.9 1371.4,-713.7 1403,-737.9 1405.85,-740.08 1408.75,-742.17 1411.71,-744.19"/>
<polygon fill="black" stroke="black" points="1409.89,-747.18 1420.19,-749.66 1413.69,-741.3 1409.89,-747.18"/>
</g>
<!-- 4&#45;&gt;2 -->
<g id="edge5" class="edge">
<title>4:16&#45;&gt;2</title>
<path fill="none" stroke="black" d="M1367,-606.9C1389.94,-606.9 1382.61,-633.38 1403,-643.9 1406.88,-645.9 1410.82,-647.82 1414.81,-649.66"/>
<polygon fill="black" stroke="black" points="1413.66,-652.98 1424.22,-653.82 1416.49,-646.58 1413.66,-652.98"/>
</g>
<!-- 4&#45;&gt;3 -->
<g id="edge6" class="edge">
<title>4:26&#45;&gt;3</title>
<path fill="none" stroke="black" d="M1367,-581.9C1375.42,-581.9 1383.93,-581.65 1392.49,-581.19"/>
<polygon fill="black" stroke="black" points="1392.8,-584.68 1402.55,-580.55 1392.35,-577.69 1392.8,-584.68"/>
</g>
<!-- 5 -->
<g id="node6" class="node">
<title>5</title>
<polygon fill="#f2f2f2" stroke="black" points="1420.21,-267.7 1420.21,-342.1 1996.69,-342.1 1996.69,-267.7 1420.21,-267.7"/>
<text text-anchor="middle" x="1708.45" y="-325.5" font-family="Courier New" font-size="14.00">SubscriptionParams &lt;&lt;Struct&gt;&gt;</text>
<polyline fill="none" stroke="black" points="1420.21,-317.3 1996.69,-317.3 "/>
<text text-anchor="middle" x="1453.41" y="-300.7" font-family="Courier New" font-size="14.00">offset</text>
<polyline fill="none" stroke="black" points="1420.21,-292.5 1486.61,-292.5 "/>
<text text-anchor="middle" x="1453.41" y="-275.9" font-family="Courier New" font-size="14.00">0</text>
<polyline fill="none" stroke="black" points="1486.61,-267.7 1486.61,-317.3 "/>
<text text-anchor="middle" x="1741.65" y="-300.7" font-family="Courier New" font-size="14.00">type: variable (bytes)</text>
<polyline fill="none" stroke="black" points="1486.61,-292.5 1996.69,-292.5 "/>
<text text-anchor="middle" x="1561.82" y="-275.9" font-family="Courier New" font-size="14.00">unallocated (12)</text>
<polyline fill="none" stroke="black" points="1637.04,-267.7 1637.04,-292.5 "/>
<text text-anchor="middle" x="1729.05" y="-275.9" font-family="Courier New" font-size="14.00">uint48: duration (6)</text>
<polyline fill="none" stroke="black" points="1821.06,-267.7 1821.06,-292.5 "/>
<text text-anchor="middle" x="1908.88" y="-275.9" font-family="Courier New" font-size="14.00">uint112: price (14)</text>
</g>
<!-- 6&#45;&gt;5 -->
<g id="edge7" class="edge">
<title>6:32&#45;&gt;5</title>
<path fill="none" stroke="black" d="M1284.35,-329.9C1324.97,-329.9 1367.74,-328.74 1409.85,-326.91"/>
<polygon fill="black" stroke="black" points="1410.13,-330.41 1419.96,-326.46 1409.82,-323.41 1410.13,-330.41"/>
</g>
</g>
</svg>
