<?xml version="1.0" encoding="UTF-8" standalone="no"?>
<!DOCTYPE svg PUBLIC "-//W3C//DTD SVG 1.1//EN"
 "http://www.w3.org/Graphics/SVG/1.1/DTD/svg11.dtd">
<!-- Generated by graphviz version 5.0.0 (20220707.1540)
 -->
<!-- Title: StorageDiagram Pages: 1 -->
<svg width="940pt" height="108pt"
 viewBox="0.00 0.00 939.74 108.40" xmlns="http://www.w3.org/2000/svg" xmlns:xlink="http://www.w3.org/1999/xlink">
<g id="graph0" class="graph" transform="scale(1 1) rotate(0) translate(4 104.4)">
<title>StorageDiagram</title>
<polygon fill="white" stroke="transparent" points="-4,4 -4,-104.4 935.74,-104.4 935.74,4 -4,4"/>
<!-- 2 -->
<g id="node1" class="node">
<title>2</title>
<polygon fill="#f2f2f2" stroke="black" points="0,-25.5 0,-99.9 502.48,-99.9 502.48,-25.5 0,-25.5"/>
<text text-anchor="middle" x="251.24" y="-83.3" font-family="Courier New" font-size="14.00">AppWhitelist &lt;&lt;Contract&gt;&gt;</text>
<polyline fill="none" stroke="black" points="0,-75.1 502.48,-75.1 "/>
<text text-anchor="middle" x="24.8" y="-58.5" font-family="Courier New" font-size="14.00">slot</text>
<polyline fill="none" stroke="black" points="0,-50.3 49.61,-50.3 "/>
<text text-anchor="middle" x="24.8" y="-33.7" font-family="Courier New" font-size="14.00">0</text>
<polyline fill="none" stroke="black" points="49.61,-25.5 49.61,-75.1 "/>
<text text-anchor="middle" x="276.04" y="-58.5" font-family="Courier New" font-size="14.00">type: &lt;inherited contract&gt;.variable (bytes)</text>
<polyline fill="none" stroke="black" points="49.61,-50.3 502.48,-50.3 "/>
<text text-anchor="middle" x="276.04" y="-33.7" font-family="Courier New" font-size="14.00">mapping(bytes32=&gt;BitMaps.BitMap): ERC734._store (32)</text>
</g>
<!-- 1 -->
<g id="node2" class="node">
<title>1</title>
<polygon fill="#f2f2f2" stroke="black" points="538.48,-0.5 538.48,-74.9 931.74,-74.9 931.74,-0.5 538.48,-0.5"/>
<text text-anchor="middle" x="735.11" y="-58.3" font-family="Courier New" font-size="14.00">BitMap &lt;&lt;Struct&gt;&gt;</text>
<polyline fill="none" stroke="black" points="538.48,-50.1 931.74,-50.1 "/>
<text text-anchor="middle" x="571.68" y="-33.5" font-family="Courier New" font-size="14.00">offset</text>
<polyline fill="none" stroke="black" points="538.48,-25.3 604.88,-25.3 "/>
<text text-anchor="middle" x="571.68" y="-8.7" font-family="Courier New" font-size="14.00">0</text>
<polyline fill="none" stroke="black" points="604.88,-0.5 604.88,-50.1 "/>
<text text-anchor="middle" x="768.31" y="-33.5" font-family="Courier New" font-size="14.00">type: variable (bytes)</text>
<polyline fill="none" stroke="black" points="604.88,-25.3 931.74,-25.3 "/>
<text text-anchor="middle" x="768.31" y="-8.7" font-family="Courier New" font-size="14.00">mapping(uint256=&gt;uint256): _data (32)</text>
</g>
<!-- 2&#45;&gt;1 -->
<g id="edge1" class="edge">
<title>2:2&#45;&gt;1</title>
<path fill="none" stroke="black" d="M502.48,-37.7C510.86,-37.7 519.41,-37.7 528.05,-37.7"/>
<polygon fill="black" stroke="black" points="528.23,-41.2 538.23,-37.7 528.23,-34.2 528.23,-41.2"/>
</g>
</g>
</svg>
