<?xml version="1.0" encoding="UTF-8" standalone="no"?>
<!DOCTYPE svg PUBLIC "-//W3C//DTD SVG 1.1//EN"
 "http://www.w3.org/Graphics/SVG/1.1/DTD/svg11.dtd">
<!-- Generated by graphviz version 5.0.0 (20220707.1540)
 -->
<!-- Title: StorageDiagram Pages: 1 -->
<svg width="1525pt" height="498pt"
 viewBox="0.00 0.00 1525.42 498.40" xmlns="http://www.w3.org/2000/svg" xmlns:xlink="http://www.w3.org/1999/xlink">
<g id="graph0" class="graph" transform="scale(1 1) rotate(0) translate(4 494.4)">
<title>StorageDiagram</title>
<polygon fill="white" stroke="transparent" points="-4,4 -4,-494.4 1521.42,-494.4 1521.42,4 -4,4"/>
<!-- 4 -->
<g id="node1" class="node">
<title>4</title>
<polygon fill="#f2f2f2" stroke="black" points="0,-43.5 0,-489.9 729.31,-489.9 729.31,-43.5 0,-43.5"/>
<text text-anchor="middle" x="364.66" y="-473.3" font-family="Courier New" font-size="14.00">ProtectedDataSharing &lt;&lt;Contract&gt;&gt;</text>
<polyline fill="none" stroke="black" points="0,-465.1 729.31,-465.1 "/>
<text text-anchor="middle" x="24.8" y="-448.5" font-family="Courier New" font-size="14.00">slot</text>
<polyline fill="none" stroke="black" points="0,-440.3 49.61,-440.3 "/>
<text text-anchor="middle" x="24.8" y="-423.7" font-family="Courier New" font-size="14.00">0</text>
<polyline fill="none" stroke="black" points="0,-415.5 49.61,-415.5 "/>
<text text-anchor="middle" x="24.8" y="-398.9" font-family="Courier New" font-size="14.00">1</text>
<polyline fill="none" stroke="black" points="0,-390.7 49.61,-390.7 "/>
<text text-anchor="middle" x="24.8" y="-374.1" font-family="Courier New" font-size="14.00">2</text>
<polyline fill="none" stroke="black" points="0,-365.9 49.61,-365.9 "/>
<text text-anchor="middle" x="24.8" y="-349.3" font-family="Courier New" font-size="14.00">3</text>
<polyline fill="none" stroke="black" points="0,-341.1 49.61,-341.1 "/>
<text text-anchor="middle" x="24.8" y="-324.5" font-family="Courier New" font-size="14.00">4</text>
<polyline fill="none" stroke="black" points="0,-316.3 49.61,-316.3 "/>
<text text-anchor="middle" x="24.8" y="-299.7" font-family="Courier New" font-size="14.00">5</text>
<polyline fill="none" stroke="black" points="0,-291.5 49.61,-291.5 "/>
<text text-anchor="middle" x="24.8" y="-274.9" font-family="Courier New" font-size="14.00">6</text>
<polyline fill="none" stroke="black" points="0,-266.7 49.61,-266.7 "/>
<text text-anchor="middle" x="24.8" y="-250.1" font-family="Courier New" font-size="14.00">7</text>
<polyline fill="none" stroke="black" points="0,-241.9 49.61,-241.9 "/>
<text text-anchor="middle" x="24.8" y="-225.3" font-family="Courier New" font-size="14.00">8</text>
<polyline fill="none" stroke="black" points="0,-217.1 49.61,-217.1 "/>
<text text-anchor="middle" x="24.8" y="-200.5" font-family="Courier New" font-size="14.00">9</text>
<polyline fill="none" stroke="black" points="0,-192.3 49.61,-192.3 "/>
<text text-anchor="middle" x="24.8" y="-175.7" font-family="Courier New" font-size="14.00">10</text>
<polyline fill="none" stroke="black" points="0,-167.5 49.61,-167.5 "/>
<text text-anchor="middle" x="24.8" y="-150.9" font-family="Courier New" font-size="14.00">11</text>
<polyline fill="none" stroke="black" points="0,-142.7 49.61,-142.7 "/>
<text text-anchor="middle" x="24.8" y="-126.1" font-family="Courier New" font-size="14.00">12</text>
<polyline fill="none" stroke="black" points="0,-117.9 49.61,-117.9 "/>
<text text-anchor="middle" x="24.8" y="-101.3" font-family="Courier New" font-size="14.00">13</text>
<polyline fill="none" stroke="black" points="0,-93.1 49.61,-93.1 "/>
<text text-anchor="middle" x="24.8" y="-76.5" font-family="Courier New" font-size="14.00">14</text>
<polyline fill="none" stroke="black" points="0,-68.3 49.61,-68.3 "/>
<text text-anchor="middle" x="24.8" y="-51.7" font-family="Courier New" font-size="14.00">15</text>
<polyline fill="none" stroke="black" points="49.61,-43.5 49.61,-465.1 "/>
<text text-anchor="middle" x="389.46" y="-448.5" font-family="Courier New" font-size="14.00">type: &lt;inherited contract&gt;.variable (bytes)</text>
<polyline fill="none" stroke="black" points="49.61,-440.3 729.31,-440.3 "/>
<text text-anchor="middle" x="389.03" y="-423.7" font-family="Courier New" font-size="14.00">uint256: ReentrancyGuard._status (32)</text>
<polyline fill="none" stroke="black" points="49.61,-415.5 729.31,-415.5 "/>
<text text-anchor="middle" x="389.14" y="-398.9" font-family="Courier New" font-size="14.00">string: ManageOrders.iexec_result_storage_provider (32)</text>
<polyline fill="none" stroke="black" points="49.61,-390.7 729.31,-390.7 "/>
<text text-anchor="middle" x="389.04" y="-374.1" font-family="Courier New" font-size="14.00">string: ManageOrders.iexec_result_storage_proxy (32)</text>
<polyline fill="none" stroke="black" points="49.61,-365.9 729.31,-365.9 "/>
<text text-anchor="middle" x="389.33" y="-349.3" font-family="Courier New" font-size="14.00">uint256: _nextCollectionTokenId (32)</text>
<polyline fill="none" stroke="black" points="49.61,-341.1 729.31,-341.1 "/>
<text text-anchor="middle" x="389.45" y="-324.5" font-family="Courier New" font-size="14.00">mapping(uint256=&gt;mapping(uint160=&gt;address)): protectedDatas (32)</text>
<polyline fill="none" stroke="black" points="49.61,-316.3 729.31,-316.3 "/>
<text text-anchor="middle" x="389.45" y="-299.7" font-family="Courier New" font-size="14.00">mapping(uint256=&gt;mapping(address=&gt;address)): appForProtectedData (32)</text>
<polyline fill="none" stroke="black" points="49.61,-291.5 729.31,-291.5 "/>
<text text-anchor="middle" x="389.04" y="-274.9" font-family="Courier New" font-size="14.00">mapping(uint256=&gt;uint256): protectedDataInCollection (32)</text>
<polyline fill="none" stroke="black" points="49.61,-266.7 729.31,-266.7 "/>
<text text-anchor="middle" x="389.13" y="-250.1" font-family="Courier New" font-size="14.00">mapping(address=&gt;uint256): balances (32)</text>
<polyline fill="none" stroke="black" points="49.61,-241.9 729.31,-241.9 "/>
<text text-anchor="middle" x="389.46" y="-225.3" font-family="Courier New" font-size="14.00">mapping(uint256=&gt;mapping(address=&gt;bool)): protectedDataInSubscription (32)</text>
<polyline fill="none" stroke="black" points="49.61,-217.1 729.31,-217.1 "/>
<text text-anchor="middle" x="389.15" y="-200.5" font-family="Courier New" font-size="14.00">mapping(uint256=&gt;mapping(address=&gt;uint48)): subscribers (32)</text>
<polyline fill="none" stroke="black" points="49.61,-192.3 729.31,-192.3 "/>
<text text-anchor="middle" x="389.35" y="-175.7" font-family="Courier New" font-size="14.00">mapping(uint256=&gt;SubscriptionParams): subscriptionParams (32)</text>
<polyline fill="none" stroke="black" points="49.61,-167.5 729.31,-167.5 "/>
<text text-anchor="middle" x="389.04" y="-150.9" font-family="Courier New" font-size="14.00">mapping(uint256=&gt;uint48): lastSubscriptionExpiration (32)</text>
<polyline fill="none" stroke="black" points="49.61,-142.7 729.31,-142.7 "/>
<text text-anchor="middle" x="389.46" y="-126.1" font-family="Courier New" font-size="14.00">mapping(uint256=&gt;mapping(address=&gt;RentingParams)): protectedDataForRenting (32)</text>
<polyline fill="none" stroke="black" points="49.61,-117.9 729.31,-117.9 "/>
<text text-anchor="middle" x="389.34" y="-101.3" font-family="Courier New" font-size="14.00">mapping(address=&gt;mapping(address=&gt;uint48)): renters (32)</text>
<polyline fill="none" stroke="black" points="49.61,-93.1 729.31,-93.1 "/>
<text text-anchor="middle" x="389.34" y="-76.5" font-family="Courier New" font-size="14.00">mapping(address=&gt;uint48): lastRentalExpiration (32)</text>
<polyline fill="none" stroke="black" points="49.61,-68.3 729.31,-68.3 "/>
<text text-anchor="middle" x="389.36" y="-51.7" font-family="Courier New" font-size="14.00">mapping(uint256=&gt;mapping(address=&gt;SellingParams)): protectedDataForSale (32)</text>
</g>
<!-- 1 -->
<g id="node2" class="node">
<title>1</title>
<polygon fill="#f2f2f2" stroke="black" points="853.13,-186.5 853.13,-260.9 1429.61,-260.9 1429.61,-186.5 853.13,-186.5"/>
<text text-anchor="middle" x="1141.37" y="-244.3" font-family="Courier New" font-size="14.00">SubscriptionParams &lt;&lt;Struct&gt;&gt;</text>
<polyline fill="none" stroke="black" points="853.13,-236.1 1429.61,-236.1 "/>
<text text-anchor="middle" x="886.33" y="-219.5" font-family="Courier New" font-size="14.00">offset</text>
<polyline fill="none" stroke="black" points="853.13,-211.3 919.53,-211.3 "/>
<text text-anchor="middle" x="886.33" y="-194.7" font-family="Courier New" font-size="14.00">0</text>
<polyline fill="none" stroke="black" points="919.53,-186.5 919.53,-236.1 "/>
<text text-anchor="middle" x="1174.57" y="-219.5" font-family="Courier New" font-size="14.00">type: variable (bytes)</text>
<polyline fill="none" stroke="black" points="919.53,-211.3 1429.61,-211.3 "/>
<text text-anchor="middle" x="994.75" y="-194.7" font-family="Courier New" font-size="14.00">unallocated (12)</text>
<polyline fill="none" stroke="black" points="1069.96,-186.5 1069.96,-211.3 "/>
<text text-anchor="middle" x="1161.97" y="-194.7" font-family="Courier New" font-size="14.00">uint48: duration (6)</text>
<polyline fill="none" stroke="black" points="1253.98,-186.5 1253.98,-211.3 "/>
<text text-anchor="middle" x="1341.8" y="-194.7" font-family="Courier New" font-size="14.00">uint112: price (14)</text>
</g>
<!-- 4&#45;&gt;1 -->
<g id="edge1" class="edge">
<title>4:13&#45;&gt;1</title>
<path fill="none" stroke="black" d="M729.31,-179.7C771.59,-179.7 816.18,-182.03 859.78,-185.62"/>
<polygon fill="black" stroke="black" points="859.69,-189.12 869.95,-186.48 860.28,-182.15 859.69,-189.12"/>
</g>
<!-- 2 -->
<g id="node3" class="node">
<title>2</title>
<polygon fill="#f2f2f2" stroke="black" points="765.31,-93.5 765.31,-167.9 1517.42,-167.9 1517.42,-93.5 765.31,-93.5"/>
<text text-anchor="middle" x="1141.37" y="-151.3" font-family="Courier New" font-size="14.00">RentingParams &lt;&lt;Struct&gt;&gt;</text>
<polyline fill="none" stroke="black" points="765.31,-143.1 1517.42,-143.1 "/>
<text text-anchor="middle" x="798.52" y="-126.5" font-family="Courier New" font-size="14.00">offset</text>
<polyline fill="none" stroke="black" points="765.31,-118.3 831.72,-118.3 "/>
<text text-anchor="middle" x="798.52" y="-101.7" font-family="Courier New" font-size="14.00">0</text>
<polyline fill="none" stroke="black" points="831.72,-93.5 831.72,-143.1 "/>
<text text-anchor="middle" x="1174.57" y="-126.5" font-family="Courier New" font-size="14.00">type: variable (bytes)</text>
<polyline fill="none" stroke="black" points="831.72,-118.3 1517.42,-118.3 "/>
<text text-anchor="middle" x="906.93" y="-101.7" font-family="Courier New" font-size="14.00">unallocated (11)</text>
<polyline fill="none" stroke="black" points="982.14,-93.5 982.14,-118.3 "/>
<text text-anchor="middle" x="1074.16" y="-101.7" font-family="Courier New" font-size="14.00">uint48: duration (6)</text>
<polyline fill="none" stroke="black" points="1166.17,-93.5 1166.17,-118.3 "/>
<text text-anchor="middle" x="1253.98" y="-101.7" font-family="Courier New" font-size="14.00">uint112: price (14)</text>
<polyline fill="none" stroke="black" points="1341.8,-93.5 1341.8,-118.3 "/>
<text text-anchor="middle" x="1429.61" y="-101.7" font-family="Courier New" font-size="14.00">bool: isForRent (1)</text>
</g>
<!-- 4&#45;&gt;2 -->
<g id="edge2" class="edge">
<title>4:18&#45;&gt;2</title>
<path fill="none" stroke="black" d="M729.31,-130.7C737.78,-130.7 746.34,-130.7 754.97,-130.7"/>
<polygon fill="black" stroke="black" points="755.13,-134.2 765.13,-130.7 755.13,-127.2 755.13,-134.2"/>
</g>
<!-- 3 -->
<g id="node4" class="node">
<title>3</title>
<polygon fill="#f2f2f2" stroke="black" points="857.33,-0.5 857.33,-74.9 1425.41,-74.9 1425.41,-0.5 857.33,-0.5"/>
<text text-anchor="middle" x="1141.37" y="-58.3" font-family="Courier New" font-size="14.00">SellingParams &lt;&lt;Struct&gt;&gt;</text>
<polyline fill="none" stroke="black" points="857.33,-50.1 1425.41,-50.1 "/>
<text text-anchor="middle" x="890.53" y="-33.5" font-family="Courier New" font-size="14.00">offset</text>
<polyline fill="none" stroke="black" points="857.33,-25.3 923.74,-25.3 "/>
<text text-anchor="middle" x="890.53" y="-8.7" font-family="Courier New" font-size="14.00">0</text>
<polyline fill="none" stroke="black" points="923.74,-0.5 923.74,-50.1 "/>
<text text-anchor="middle" x="1174.57" y="-33.5" font-family="Courier New" font-size="14.00">type: variable (bytes)</text>
<polyline fill="none" stroke="black" points="923.74,-25.3 1425.41,-25.3 "/>
<text text-anchor="middle" x="998.95" y="-8.7" font-family="Courier New" font-size="14.00">unallocated (17)</text>
<polyline fill="none" stroke="black" points="1074.16,-0.5 1074.16,-25.3 "/>
<text text-anchor="middle" x="1161.97" y="-8.7" font-family="Courier New" font-size="14.00">uint112: price (14)</text>
<polyline fill="none" stroke="black" points="1249.78,-0.5 1249.78,-25.3 "/>
<text text-anchor="middle" x="1337.6" y="-8.7" font-family="Courier New" font-size="14.00">bool: isForSale (1)</text>
</g>
<!-- 4&#45;&gt;3 -->
<g id="edge3" class="edge">
<title>4:23&#45;&gt;3</title>
<path fill="none" stroke="black" d="M729.31,-55.7C767.42,-55.7 807.51,-54.92 847.08,-53.68"/>
<polygon fill="black" stroke="black" points="847.24,-57.18 857.13,-53.36 847.02,-50.18 847.24,-57.18"/>
</g>
</g>
</svg>
